<svg width="37" height="30" viewBox="0 0 37 30" fill="none" xmlns="http://www.w3.org/2000/svg">
<path d="M0.826022 29.1029C2.12536 27.511 3.42752 25.9211 4.72217 24.3254C4.99838 23.9849 5.13743 23.5757 5.10831 23.1351C5.06885 22.5409 5.08482 21.9466 5.08482 21.3524C5.08388 16.4643 5.0867 11.5761 5.08764 6.68795C5.08764 6.29308 4.95423 5.95544 4.69962 5.64928C3.59851 4.32161 2.51338 2.98058 1.41039 1.65481C1.23283 1.44117 1.27323 1.21703 1.26759 0.985256C1.26477 0.874616 1.33712 0.84791 1.43107 0.850772C1.5128 0.852679 1.59548 0.850772 1.67722 0.850772C4.8988 0.850772 8.12038 0.855541 11.342 0.843141C11.636 0.842187 11.7591 0.942335 11.8765 1.20463C14.4639 6.97123 17.0626 12.7331 19.6585 18.4949C19.6923 18.5702 19.728 18.6446 19.7778 18.7534C20.2833 17.4848 20.7775 16.2468 21.2688 15.0069C23.0943 10.3944 24.9216 5.78281 26.7368 1.16552C26.8392 0.906091 26.9632 0.845049 27.2187 0.846003C30.2533 0.85554 33.287 0.849818 36.3216 0.856494C36.4823 0.856494 36.7407 0.746809 36.7923 0.931844C36.8628 1.18746 36.8656 1.46406 36.6063 1.70346C35.7673 2.48079 34.9725 3.30773 34.1307 4.0822C33.7587 4.42366 33.6271 4.78705 33.6299 5.29447C33.6487 9.68285 33.6422 14.0722 33.6403 18.4606C33.6393 20.8631 33.6375 23.2657 33.6299 25.6674C33.629 25.963 33.738 26.1853 33.9447 26.3875C34.8203 27.2468 35.68 28.1253 36.5659 28.9732C36.7989 29.1964 36.735 29.4415 36.7482 29.6914C36.7529 29.7858 36.689 29.8078 36.6091 29.8059C36.5274 29.804 36.4447 29.8059 36.363 29.8059C31.9463 29.8059 27.5297 29.8068 23.1131 29.8011C22.9543 29.8011 22.7025 29.9146 22.6461 29.7133C22.5766 29.4663 22.5794 29.2021 22.8265 28.9732C23.5265 28.3237 24.2038 27.6474 24.8765 26.9693C25.9833 25.8524 25.816 26.3331 25.8179 24.6993C25.8264 19.6328 25.8207 14.5662 25.8207 9.49972C25.8207 9.38717 25.8207 9.27367 25.8207 9.11153C25.662 9.2813 25.6338 9.46061 25.5718 9.61799C23.005 16.2134 20.4402 22.8098 17.8828 29.41C17.7823 29.6704 17.6526 29.7315 17.383 29.7591C16.8287 29.8173 16.5675 29.6246 16.3279 29.0905C13.3863 22.5266 10.4118 15.9788 7.44487 9.42628C7.39789 9.32231 7.38192 9.20023 7.24006 9.10104C7.24006 9.25078 7.24006 9.37382 7.24006 9.4959C7.24006 13.8366 7.26448 18.1782 7.22033 22.5189C7.21093 23.4565 7.47118 24.1766 8.06777 24.87C9.19894 26.1862 10.2709 27.5549 11.3673 28.9026C11.4547 29.0104 11.5477 29.1067 11.5552 29.2698C11.5787 29.741 11.5872 29.74 11.1193 29.74C7.68726 29.742 4.2543 29.7429 0.822266 29.7448C0.826024 29.5312 0.826022 29.3166 0.826022 29.1029Z" fill="#0D143B"/>
</svg>
