<?xml version="1.0" standalone="no"?>
<!DOCTYPE svg PUBLIC "-//W3C//DTD SVG 1.1//EN" "http://www.w3.org/Graphics/SVG/1.1/DTD/svg11.dtd" >
<svg xmlns="http://www.w3.org/2000/svg" xmlns:xlink="http://www.w3.org/1999/xlink" version="1.1">
<metadata>
Created by FontForge 20170731 at Tue May 10 22:09:35 2022
 By Aleksey,,,
Modern and elegant sans serif font family.
</metadata>
<defs>
<font id="Mont-SemiBold" horiz-adv-x="0" >
  <font-face 
    font-family="Mont SemiBold"
    font-weight="700"
    font-stretch="normal"
    units-per-em="2048"
    panose-1="0 0 8 0 0 0 0 0 0 0"
    ascent="1638"
    descent="-410"
    x-height="1106"
    cap-height="1434"
    bbox="-1638 -623 2332 2038"
    underline-thickness="102"
    underline-position="-307"
    unicode-range="U+0020-25CA"
  />
<missing-glyph horiz-adv-x="950" 
d="M779 1502v-1898h-602v1898h602zM632 1375h-313v-63h123v-70h-125v-62h315v62h-125v70h125v63zM507 1130h-190v-197h315v64h-125v133zM442 1066v-69h-62v69h62zM632 881h-315v-62h125v-70h-125v-63h190v133h125v62zM632 768h-62v-126h-253v-64h315v190zM632 536h-190v-106
h65v43h63v-89h-190v152h-63v-215h315v215zM632 207h-315v-214h315v214zM570 145v-90h-190v90h190zM632 -51h-315v-63h133l-133 -89v-62h315v62h-193l133 89h60v63z" />
    <glyph glyph-name="f_f.liga" unicode="ff" horiz-adv-x="1554" 
d="M1526 1095v-189h-313v-906h-227v906h-510v-906h-227v906h-207v189h208v94q0 351 353 351h184v-182h-141q-93 0 -134.5 -41t-41.5 -133v-89h516v94q0 351 353 351h185v-182h-141q-93 0 -135 -41t-42 -133v-89h320z" />
    <glyph glyph-name="f_f_t.liga" unicode="fft" horiz-adv-x="2326" 
d="M2134 210h131v-210h-159q-189 0 -299.5 111t-110.5 300v495h-483v-906h-227v906h-510v-906h-227v906h-207v189h208v94q0 351 353 351h184v-182h-141q-93 0 -134.5 -41t-41.5 -133v-89h516v94q0 351 353 351h167v-182h-123q-93 0 -135 -41t-42 -133v-89h490v325h227v-325
h339v-189h-339v-482q0 -103 54.5 -158.5t156.5 -55.5z" />
    <glyph glyph-name="f_t.liga" unicode="ft" horiz-adv-x="1628" 
d="M1437 210h131v-210h-160q-189 0 -299.5 110.5t-110.5 299.5v496h-522v-906h-227v906h-207v189h208v94q0 351 353 351h184v-182h-141q-93 0 -134.5 -41t-41.5 -133v-89h528v325h228v-325h339v-189h-339v-483q0 -103 54 -158t157 -55z" />
    <glyph glyph-name="f_t_t.liga" unicode="ftt" horiz-adv-x="2394" 
d="M2201 210h131v-210h-161q-188 0 -298 110.5t-110 299.5v496h-560v-483q0 -103 54 -158t157 -55h131v-210h-159q-189 0 -299.5 110.5t-110.5 299.5v496h-500v-906h-227v906h-207v189h208v109q0 350 353 350h184v-181h-141q-92 0 -134 -41.5t-42 -133.5v-103h506v325h227
v-325h560v325h227v-325h340v-189h-340v-483q0 -103 54 -158t157 -55z" />
    <glyph glyph-name="r_f.liga" unicode="rf" horiz-adv-x="1638" 
d="M1610 1106v-193h-313v-913h-227v913h-207v193h207v83q0 351 353 351h185v-182h-141q-93 0 -135 -41t-42 -133v-78h320zM355 952q119 156 338 156h91v-210h-113q-140 -2 -211 -80.5t-71 -227.5v-590h-227v1106h154z" />
    <glyph glyph-name="t_f.liga" unicode="tf" horiz-adv-x="1552" 
d="M1525 1095v-189h-313v-906h-227v906h-540v-494q0 -99 53.5 -152t153.5 -53h122v-207h-165q-182 0 -287 105.5t-105 288.5v512h-196v37l386 421h36v-269h542v113q0 350 353 350h185v-181h-141q-93 0 -135 -41.5t-42 -133.5v-107h320z" />
    <glyph glyph-name=".notdef" horiz-adv-x="950" 
d="M779 1502v-1898h-602v1898h602zM632 1375h-313v-63h123v-70h-125v-62h315v62h-125v70h125v63zM507 1130h-190v-197h315v64h-125v133zM442 1066v-69h-62v69h62zM632 881h-315v-62h125v-70h-125v-63h190v133h125v62zM632 768h-62v-126h-253v-64h315v190zM632 536h-190v-106
h65v43h63v-89h-190v152h-63v-215h315v215zM632 207h-315v-214h315v214zM570 145v-90h-190v90h190zM632 -51h-315v-63h133l-133 -89v-62h315v62h-193l133 89h60v63z" />
    <glyph glyph-name=".null" 
 />
    <glyph glyph-name="nonmarkingreturn" horiz-adv-x="682" 
 />
    <glyph glyph-name="space" unicode=" " horiz-adv-x="516" 
 />
    <glyph glyph-name="exclam" unicode="!" horiz-adv-x="598" 
d="M184 422v1053h230v-1053h-230zM175 0v261h249v-261h-249z" />
    <glyph glyph-name="quotedbl" unicode="&#x22;" horiz-adv-x="839" 
d="M135 918v520h212v-520h-212zM494 918v520h211v-520h-211z" />
    <glyph glyph-name="numbersign" unicode="#" horiz-adv-x="1323" 
d="M1231 864h-175l-41 -282h168v-197h-200l-57 -383h-209l56 383h-317l-62 -383h-209l61 383h-155v197h187l45 282h-185v190h216l59 380h209l-58 -380h310l58 380h209l-58 -380h148v-190zM805 582l41 282h-312l-46 -282h317z" />
    <glyph glyph-name="dollar" unicode="$" horiz-adv-x="1181" 
d="M1102 402q0 -172 -110.5 -281.5t-296.5 -133.5v-157h-186v156q-201 23 -314.5 142.5t-113.5 311.5h229q0 -114 82 -178t207 -64q114 0 193.5 56t79.5 146q0 28 -9.5 52t-22 41t-39.5 33t-46.5 25.5t-60 21t-62 17t-70.5 16.5q-85 19 -132 32t-119 44.5t-110 69
t-67.5 102.5t-29.5 149q0 164 104 266t285 123v146h190v-147q181 -24 280 -136t99 -290h-224q0 104 -72.5 162t-184.5 58q-107 0 -178.5 -46t-71.5 -126q0 -26 9 -48.5t21.5 -38.5t38.5 -31.5t45 -24.5t58 -21t60.5 -17.5t68.5 -16.5t73.5 -17.5t72 -20t73 -25t66 -31
t61.5 -39.5t49.5 -49.5t41 -62.5t24 -76t9.5 -92z" />
    <glyph glyph-name="percent" unicode="%" horiz-adv-x="1595" 
d="M380 753q-140 0 -229 88.5t-89 227.5q0 138 89 226t229 88q139 0 227.5 -88t88.5 -226q0 -139 -88.5 -227.5t-227.5 -88.5zM274 1l821 1362h205l-821 -1362h-205zM380 920q64 0 105 42t41 107q0 64 -41 105.5t-105 41.5q-63 0 -105 -41.5t-42 -105.5t42 -106.5t105 -42.5
zM1217 -18q-139 0 -227.5 87.5t-88.5 225.5t88.5 225t227.5 87t227.5 -87t88.5 -225t-88.5 -225.5t-227.5 -87.5zM1217 149q64 0 104.5 41t40.5 105t-40.5 105t-104.5 41q-63 0 -104 -41t-41 -105t41 -105t104 -41z" />
    <glyph glyph-name="ampersand" unicode="&#x26;" horiz-adv-x="1296" 
d="M1290 0h-252q-30 34 -99 109q-171 -132 -411 -132q-198 0 -319.5 108t-121.5 286q0 59 15 112.5t39 94.5t60.5 80t74 68t84.5 59q-85 117 -117 194.5t-32 154.5q0 148 104 235t276 87q168 0 272 -87.5t104 -228.5q0 -58 -19 -110.5t-46.5 -91t-74.5 -78t-86.5 -65
t-97.5 -59.5q97 -121 287 -336q65 114 68 255h192q-3 -236 -122 -410q32 -35 222 -245zM591 1284q-80 0 -128.5 -41.5t-48.5 -108.5q0 -84 117 -250q56 32 92 55.5t72 55.5t53.5 67.5t17.5 76.5q0 64 -49 104.5t-126 40.5zM549 178q143 0 255 81q-205 228 -328 377
q-84 -57 -129.5 -118t-45.5 -140q0 -90 68.5 -145t179.5 -55z" />
    <glyph glyph-name="quotesingle" unicode="'" horiz-adv-x="483" 
d="M135 918v520h212v-520h-212z" />
    <glyph glyph-name="parenleft" unicode="(" horiz-adv-x="657" 
d="M388 -286q-139 199 -215.5 441t-76.5 508q0 267 76.5 509.5t215.5 443.5h252q-136 -179 -227.5 -429.5t-91.5 -523.5q0 -274 91 -524.5t227 -424.5h-251z" />
    <glyph glyph-name="parenright" unicode=")" horiz-adv-x="657" 
d="M270 -286h-251q136 174 227 424.5t91 524.5q0 273 -91.5 523.5t-227.5 429.5h252q140 -201 216.5 -444t76.5 -509q0 -265 -77 -507.5t-216 -441.5z" />
    <glyph glyph-name="asterisk" unicode="*" horiz-adv-x="839" 
d="M763 1146l-204 -68l138 -169l-133 -110l-144 182l-143 -182l-135 110l138 168l-201 69l57 162l197 -70v210h174v-210l197 70z" />
    <glyph glyph-name="plus" unicode="+" horiz-adv-x="1093" 
d="M1024 800v-210h-365v-385h-223v385h-367v210h367v374h223v-374h365z" />
    <glyph glyph-name="comma" unicode="," horiz-adv-x="528" 
d="M147 -294v117q128 30 128 177h-140v260h258v-241q0 -132 -65 -211t-181 -102z" />
    <glyph glyph-name="hyphen" unicode="-" horiz-adv-x="925" 
d="M135 464v219h657v-219h-657z" />
    <glyph glyph-name="period" unicode="." horiz-adv-x="516" 
d="M133 0v261h250v-261h-250z" />
    <glyph glyph-name="slash" unicode="/" horiz-adv-x="946" 
d="M48 -152l610 1711h238l-608 -1711h-240z" />
    <glyph glyph-name="zero" unicode="0" horiz-adv-x="1284" 
d="M642 -25q-248 0 -393 191t-145 516q0 326 144.5 515.5t393.5 189.5q248 0 392.5 -189.5t144.5 -515.5q0 -325 -145 -516t-392 -191zM642 184q148 0 231 131t83 366t-83.5 366t-230.5 131q-149 0 -231.5 -130.5t-82.5 -365.5q0 -236 82.5 -367t231.5 -131z" />
    <glyph glyph-name="one" unicode="1" horiz-adv-x="702" 
d="M59 1362h459v-1362h-218v1163h-241v199z" />
    <glyph glyph-name="two" unicode="2" horiz-adv-x="1095" 
d="M495 209h508v-209h-932v60q306 334 442.5 499t181 250.5t44.5 169.5q0 90 -56.5 145t-148.5 55q-96 0 -154.5 -56.5t-58.5 -146.5v-30h-221v31q0 184 119 297.5t313 113.5q190 0 310 -114.5t120 -293.5q0 -95 -34 -183t-135 -227.5t-298 -360.5z" />
    <glyph glyph-name="three" unicode="3" horiz-adv-x="1110" 
d="M659 852q160 -29 257 -145t97 -280q0 -196 -133.5 -324t-334.5 -128q-195 0 -322.5 122t-135.5 314h220q6 -102 71.5 -164.5t166.5 -62.5q107 0 176 70.5t69 179.5t-74.5 177.5t-191.5 68.5h-172v42l283 439h-509v201h834v-46z" />
    <glyph glyph-name="four" unicode="4" horiz-adv-x="1120" 
d="M1061 471v-195h-131v-276h-213v276h-678v45l465 1041h226l-399 -891h390l37 380h172v-380h131z" />
    <glyph glyph-name="five" unicode="5" horiz-adv-x="1091" 
d="M533 872q207 0 341.5 -126.5t134.5 -317.5q0 -195 -132.5 -324t-330.5 -129q-197 0 -327.5 123.5t-135.5 312.5h221q4 -100 72 -163.5t170 -63.5q103 0 171.5 69.5t68.5 174.5q0 108 -74 179t-187 71h-361l-26 32l72 652h705v-201h-526l-32 -289h176z" />
    <glyph glyph-name="six" unicode="6" horiz-adv-x="1150" 
d="M633 896q191 0 325 -124.5t134 -320.5q0 -208 -139.5 -342t-357.5 -134q-221 0 -361.5 133.5t-140.5 342.5q0 189 146 444l272 476h243q-240 -423 -284 -507q81 32 163 32zM593 184q120 0 198 75t78 192q0 118 -77.5 192.5t-198.5 74.5q-120 0 -198.5 -75t-78.5 -192
q0 -116 78.5 -191.5t198.5 -75.5z" />
    <glyph glyph-name="seven" unicode="7" horiz-adv-x="1042" 
d="M55 1362h944v-34l-529 -1328h-233l466 1161h-648v201z" />
    <glyph glyph-name="eight" unicode="8" horiz-adv-x="1189" 
d="M909 727q85 -51 132.5 -136.5t47.5 -188.5q0 -187 -138.5 -307t-356.5 -120q-220 0 -356.5 118t-136.5 309q0 102 47.5 187t133.5 138q-65 50 -101.5 125t-36.5 160q0 166 125.5 271t325.5 105t324 -104.5t124 -271.5q0 -87 -35.5 -162.5t-98.5 -122.5zM595 1203
q-103 0 -168 -54.5t-65 -139.5q0 -86 65 -141t168 -55q102 0 166 55t64 141q0 85 -64 139.5t-166 54.5zM595 168q122 0 197 64.5t75 166.5q0 103 -75 168t-197 65q-121 0 -196.5 -65t-75.5 -168q0 -102 75.5 -166.5t196.5 -64.5z" />
    <glyph glyph-name="nine" unicode="9" horiz-adv-x="1146" 
d="M555 1388q219 0 359 -133.5t140 -342.5q0 -200 -143 -444l-273 -468h-243q227 395 284 499q-78 -32 -162 -32q-196 0 -327 127.5t-131 317.5q0 208 139.5 342t356.5 134zM557 645q121 0 200 75t79 192q0 116 -79 192.5t-200 76.5t-200 -76t-79 -193t78.5 -192t200.5 -75z
" />
    <glyph glyph-name="colon" unicode=":" horiz-adv-x="522" 
d="M136 764v261h250v-261h-250zM136 0v261h250v-261h-250z" />
    <glyph glyph-name="semicolon" unicode=";" horiz-adv-x="534" 
d="M143 766v261h250v-261h-250zM149 -294v117q128 30 128 177h-140v260h258v-241q0 -132 -65 -211t-181 -102z" />
    <glyph glyph-name="less" unicode="&#x3c;" horiz-adv-x="1087" 
d="M935 1277v-255l-540 -333l540 -328v-256l-880 558v45z" />
    <glyph glyph-name="equal" unicode="=" horiz-adv-x="1267" 
d="M142 809v210h983v-210h-983zM142 359v209h983v-209h-983z" />
    <glyph glyph-name="greater" unicode="&#x3e;" horiz-adv-x="1087" 
d="M152 1277l881 -569v-45l-881 -558v256l541 328l-541 333v255z" />
    <glyph glyph-name="question" unicode="?" horiz-adv-x="1077" 
d="M391 416v45q0 43 7 81.5t16 67t27.5 57.5t32.5 47t40 42t40 35.5t43 33.5q32 24 50.5 39t43.5 40.5t38 48.5t22.5 56t9.5 70q0 102 -68 164.5t-171 62.5q-101 0 -173 -60t-76 -162h-214q3 136 71 236t170 148t223 48q125 0 228.5 -50.5t167.5 -151.5t64 -235
q0 -73 -16.5 -130.5t-51.5 -103.5t-61.5 -71t-75.5 -64q-36 -29 -50 -41t-40.5 -39.5t-37.5 -48.5t-21 -53t-10 -67v-45h-228zM380 0v261h249v-261h-249z" />
    <glyph glyph-name="at" unicode="@" horiz-adv-x="2060" 
d="M1027 1373q199 0 371.5 -62t298 -173t197.5 -275t72 -359q0 -210 -107 -336.5t-266 -126.5q-88 0 -157.5 38.5t-104.5 105.5q-60 -78 -149 -121t-194 -43q-198 0 -328.5 132t-130.5 332t130.5 331.5t328.5 131.5q199 0 325 -142l28 93h113v-522q0 -73 41 -119t104 -46
q81 0 134 80t53 212q0 202 -95 360t-267 246t-392 88q-165 0 -307.5 -53t-242.5 -146t-157 -225.5t-57 -286.5q0 -308 200 -500.5t520 -192.5q201 0 351 79v-176q-185 -80 -373 -80q-152 0 -288.5 41t-244 118.5t-185.5 183.5t-120 241t-42 286q0 200 72.5 367.5t199 280.5
t299 175.5t370.5 62.5zM1003 213q118 0 195 77.5t77 196.5t-76.5 195.5t-195.5 76.5q-117 0 -194 -77.5t-77 -194.5q0 -118 77 -196t194 -78z" />
    <glyph glyph-name="A" unicode="A" horiz-adv-x="1445" 
d="M1162 0l-123 312h-640l-122 -312h-250l576 1434h222l593 -1434h-256zM717 1127l-236 -604h476z" />
    <glyph glyph-name="B" unicode="B" horiz-adv-x="1318" 
d="M1009 747q96 -45 150 -137t54 -208q0 -169 -128 -285.5t-314 -116.5h-589v1434h578q180 0 298 -105t118 -264q0 -94 -45 -181t-122 -137zM941 1031q0 80 -55 133t-140 53h-332v-373h332q85 0 140 53.5t55 133.5zM758 225q94 0 154.5 57t60.5 146q0 87 -61 144.5
t-154 57.5h-344v-405h344z" />
    <glyph glyph-name="C" unicode="C" horiz-adv-x="1585" 
d="M828 -25q-157 0 -294 56t-234 153.5t-153 235.5t-56 296t56 296.5t153 236.5t234 154t294 56q254 0 442 -146t244 -388h-238q-51 143 -170 224.5t-278 81.5q-216 0 -357 -145.5t-141 -369.5t141 -369t357 -145q164 0 284 87t169 240h239q-56 -253 -244.5 -403.5
t-447.5 -150.5z" />
    <glyph glyph-name="D" unicode="D" horiz-adv-x="1507" 
d="M688 1434q156 0 291.5 -54t231 -148.5t150 -228t54.5 -286.5q0 -205 -93.5 -369t-259.5 -256t-374 -92h-506v1434h506zM681 219q217 0 355 140.5t138 357.5t-138 357t-355 140h-263v-995h263z" />
    <glyph glyph-name="E" unicode="E" horiz-adv-x="1138" 
d="M418 222h619v-222h-855v1434h833v-221h-597v-374h544v-216h-544v-401z" />
    <glyph glyph-name="F" unicode="F" horiz-adv-x="1081" 
d="M1009 1213h-591v-406h538v-216h-538v-591h-236v1434h827v-221z" />
    <glyph glyph-name="G" unicode="G" horiz-adv-x="1634" 
d="M782 728h766q-3 -217 -95 -389t-256 -269t-372 -97q-156 0 -292.5 56t-233.5 154t-152.5 236.5t-55.5 296.5t55 296t151.5 236t232 154.5t290.5 56.5q262 0 460 -149t247 -383h-243q-46 138 -171.5 221t-287.5 83q-218 0 -356.5 -144t-138.5 -371q0 -229 137 -372
t358 -143q172 0 299.5 89t168.5 235h-511v203z" />
    <glyph glyph-name="H" unicode="H" horiz-adv-x="1490" 
d="M1073 1434h236v-1434h-236v625h-655v-625h-236v1434h236v-586h655v586z" />
    <glyph glyph-name="I" unicode="I" horiz-adv-x="600" 
d="M182 0v1434h236v-1434h-236z" />
    <glyph glyph-name="J" unicode="J" horiz-adv-x="1232" 
d="M562 -27q-221 0 -365.5 143.5t-144.5 364.5v39h233v-28q0 -130 77.5 -211.5t199.5 -81.5q118 0 194 82t76 211v942h233v-953q0 -223 -141 -365.5t-362 -142.5z" />
    <glyph glyph-name="K" unicode="K" horiz-adv-x="1320" 
d="M1035 0l-449 629h-168v-629h-236v1434h236v-586h167l408 586h289l-489 -692l534 -742h-292z" />
    <glyph glyph-name="L" unicode="L" horiz-adv-x="1056" 
d="M418 219h596v-219h-832v1434h236v-1215z" />
    <glyph glyph-name="M" unicode="M" horiz-adv-x="1974" 
d="M1890 0h-240l-166 1039l-466 -1017h-60l-467 1016l-168 -1038h-240l235 1434h231l437 -975l439 975h235z" />
    <glyph glyph-name="N" unicode="N" horiz-adv-x="1538" 
d="M1125 1434h230v-1434h-197l-745 1024v-1024h-231v1434h213l730 -1007v1007z" />
    <glyph glyph-name="O" unicode="O" horiz-adv-x="1691" 
d="M847 -27q-214 0 -387.5 97t-271.5 267t-98 380t98 380t271.5 267t387.5 97t387 -97t270.5 -267t97.5 -380t-97.5 -380t-270.5 -267t-387 -97zM847 200q222 0 369 147.5t147 369.5t-147 369.5t-369 147.5q-146 0 -264.5 -67.5t-185.5 -186t-67 -263.5t67 -263.5
t185.5 -186t264.5 -67.5z" />
    <glyph glyph-name="P" unicode="P" horiz-adv-x="1259" 
d="M712 1434q209 0 349 -135t140 -339q0 -203 -140 -338t-349 -135h-294v-487h-236v1434h530zM701 710q114 0 187.5 71t73.5 179t-73.5 179t-187.5 71h-283v-500h283z" />
    <glyph glyph-name="Q" unicode="Q" horiz-adv-x="1693" 
d="M1639 -162h-265l-181 211q-158 -76 -346 -76q-214 0 -387.5 97t-271.5 267t-98 380t98 380t271.5 267t387.5 97t387 -97t270.5 -267t97.5 -380q0 -167 -63 -310t-177 -245zM847 199q98 0 189 33l-313 366h265l221 -258q73 71 113.5 168t40.5 209q0 222 -147 369.5
t-369 147.5q-146 0 -264.5 -67.5t-185.5 -186t-67 -263.5t67 -263.5t185.5 -186.5t264.5 -68z" />
    <glyph glyph-name="R" unicode="R" horiz-adv-x="1333" 
d="M998 0l-308 531h-272v-531h-236v1434h558q208 0 345 -128t137 -326q0 -144 -79 -255.5t-212 -160.5l331 -564h-264zM418 1213v-462h309q116 0 186 64.5t70 166.5q0 101 -70.5 166t-185.5 65h-309z" />
    <glyph glyph-name="S" unicode="S" horiz-adv-x="1241" 
d="M630 -22q-244 0 -392.5 127.5t-148.5 345.5h239q0 -116 84.5 -182t215.5 -66q119 0 201 58t82 154q0 21 -4 39.5t-14 34.5t-19 28.5t-28.5 24.5t-32 20.5t-39.5 18t-42 15t-47.5 14t-48 12t-51.5 12.5q-183 44 -264 83q-182 88 -204 269q-4 28 -4 58q0 193 135.5 302
t366.5 109q232 0 363.5 -118t131.5 -322h-232q0 104 -75.5 162.5t-192.5 58.5q-112 0 -186.5 -48.5t-74.5 -133.5q0 -32 10.5 -58t35 -46.5t48 -34.5t67 -28t73 -22t83.5 -21q185 -46 267 -85q187 -91 214 -273q5 -33 5 -69q0 -139 -70.5 -240t-187.5 -150t-264 -49z" />
    <glyph glyph-name="T" unicode="T" horiz-adv-x="1163" 
d="M1119 1434l1 -220h-421v-1214h-235v1214h-420v220h1075z" />
    <glyph glyph-name="U" unicode="U" horiz-adv-x="1484" 
d="M743 -27q-163 0 -294.5 71t-206.5 200t-75 292v898h236v-883q0 -158 95 -255t245 -97q149 0 243.5 97t94.5 255v883h237v-898q0 -163 -75 -292t-206 -200t-294 -71z" />
    <glyph glyph-name="V" unicode="V" horiz-adv-x="1413" 
d="M1121 1434h257l-558 -1434h-220l-572 1434h260l421 -1097z" />
    <glyph glyph-name="W" unicode="W" horiz-adv-x="2115" 
d="M1828 1434h247l-448 -1434h-208l-363 925l-353 -925h-209l-457 1434h249l324 -1059l402 1038h87l413 -1038z" />
    <glyph glyph-name="X" unicode="X" horiz-adv-x="1251" 
d="M1239 0h-264l-348 559l-348 -559h-266l470 752l-436 682h265l315 -504l313 504h262l-432 -691z" />
    <glyph glyph-name="Y" unicode="Y" horiz-adv-x="1366" 
d="M1322 1434l-519 -860v-574h-242v575l-514 859h254l383 -642l384 642h254z" />
    <glyph glyph-name="Z" unicode="Z" horiz-adv-x="1171" 
d="M419 219h697v-219h-1063v37l679 1177h-645v220h1007v-44z" />
    <glyph glyph-name="bracketleft" unicode="[" horiz-adv-x="698" 
d="M183 -295v1922h452v-192h-239v-1533h243v-197h-456z" />
    <glyph glyph-name="backslash" unicode="\" horiz-adv-x="946" 
d="M898 -152h-239l-609 1711h238z" />
    <glyph glyph-name="bracketright" unicode="]" horiz-adv-x="698" 
d="M516 -295h-455v197h243v1533h-239v192h451v-1922z" />
    <glyph glyph-name="asciicircum" unicode="^" horiz-adv-x="1122" 
d="M64 694l480 744h37l477 -744h-257l-241 388l-240 -388h-256z" />
    <glyph glyph-name="underscore" unicode="_" horiz-adv-x="1056" 
d="M0 -305v217h1057v-217h-1057z" />
    <glyph glyph-name="grave" unicode="`" horiz-adv-x="1228" 
d="M599 1233h-175l-194 311h242z" />
    <glyph glyph-name="a" unicode="a" horiz-adv-x="1425" 
d="M1088 1107l175 -1v-1105h-183l-22 134q-76 -77 -179 -119.5t-222 -42.5q-162 0 -294 75.5t-207 209t-75 296.5q0 164 75 296.5t207 207.5t294 75q120 0 224 -43t180 -122zM674 191q156 0 258.5 103.5t102.5 259.5t-102.5 259t-258.5 103t-259 -103.5t-103 -258.5
q0 -156 103 -259.5t259 -103.5z" />
    <glyph glyph-name="b" unicode="b" horiz-adv-x="1409" 
d="M754 1133q250 0 412.5 -164.5t162.5 -415.5q0 -249 -162.5 -414.5t-412.5 -165.5q-233 0 -391 153l-29 -126h-172v1502h227v-498q154 129 365 129zM736 191q156 0 258.5 103t102.5 259t-102.5 259.5t-258.5 103.5t-259.5 -104t-103.5 -259q0 -154 103.5 -258t259.5 -104z
" />
    <glyph glyph-name="c" unicode="c" horiz-adv-x="1273" 
d="M660 -27q-162 0 -295 76t-208.5 209t-75.5 296t75.5 295.5t208.5 208t296 75.5q204 0 353 -115t195 -306h-225q-44 95 -130 149.5t-194 54.5q-149 0 -248.5 -104t-99.5 -258t100 -259t248 -105q109 0 193.5 56t129.5 157h229q-46 -194 -197 -312t-355 -118z" />
    <glyph glyph-name="d" unicode="d" horiz-adv-x="1409" 
d="M1020 1502h227v-1502h-172l-29 125q-159 -153 -390 -153q-249 0 -412 166t-163 415q0 250 162.5 415t412.5 165q210 0 364 -129v498zM673 190q156 0 259.5 104t103.5 259t-103.5 259t-259.5 104t-258 -103.5t-102 -259.5t102 -259.5t258 -103.5z" />
    <glyph glyph-name="e" unicode="e" horiz-adv-x="1292" 
d="M1213 550q0 -32 -5 -74h-898q21 -134 112 -212t227 -78q98 0 175.5 43t121.5 119h240q-66 -175 -209 -275t-328 -100q-242 0 -405 166.5t-163 413.5q0 163 74 296t204 208.5t290 75.5q165 0 295 -78.5t199.5 -211t69.5 -293.5zM649 928q-127 0 -216 -72t-117 -196h669
q-31 126 -120.5 197t-215.5 71z" />
    <glyph glyph-name="f" unicode="f" horiz-adv-x="817" 
d="M789 1095v-189h-313v-906h-227v906h-207v189h208v94q0 351 353 351h184v-182h-141q-93 0 -134.5 -41t-41.5 -133v-89h319z" />
    <glyph glyph-name="g" unicode="g" horiz-adv-x="1378" 
d="M1067 1106h149v-961q0 -265 -147.5 -416.5t-404.5 -151.5q-212 0 -355.5 103.5t-185.5 285.5h227q31 -88 117.5 -138t194.5 -50q146 0 238.5 90.5t92.5 245.5v51q-154 -133 -366 -133q-152 0 -277 72.5t-197 198.5t-72 279q0 152 71.5 278.5t197 199.5t277.5 73
q119 0 223.5 -45t180.5 -125zM653 243q147 0 243 96t96 243t-95.5 243t-243.5 96q-147 0 -244 -96.5t-97 -242.5t97 -242.5t244 -96.5z" />
    <glyph glyph-name="h" unicode="h" horiz-adv-x="1314" 
d="M749 1131q193 0 305.5 -125.5t112.5 -339.5v-666h-227v620q0 151 -64 229t-190 78q-129 0 -213 -94t-84 -241v-592h-227v1502h227v-522q65 72 158 111.5t202 39.5z" />
    <glyph glyph-name="i" unicode="i" horiz-adv-x="550" 
d="M158 1277v235h235v-235h-235zM162 0v1106h227v-1106h-227z" />
    <glyph glyph-name="j" unicode="j" horiz-adv-x="575" 
d="M184 1277v235h235v-235h-235zM-88 -396v208h79q95 0 145.5 50.5t50.5 145.5v1098h227v-1115q0 -173 -107.5 -280t-281.5 -107h-113z" />
    <glyph glyph-name="k" unicode="k" horiz-adv-x="1163" 
d="M881 0l-331 472h-138v-472h-227v1502h227v-824h140l298 428h270l-375 -531l414 -575h-278z" />
    <glyph glyph-name="l" unicode="l" horiz-adv-x="550" 
d="M162 0v1502h227v-1502h-227z" />
    <glyph glyph-name="m" unicode="m" horiz-adv-x="1935" 
d="M1398 1131q174 0 282.5 -120t108.5 -308v-703h-227v647q0 134 -56 207t-159 73q-111 0 -185.5 -91t-74.5 -231v-605h-222v647q0 134 -55.5 207t-159.5 73q-111 0 -186 -91t-75 -231v-605h-227v1106h161l39 -143q63 79 153.5 123.5t190.5 44.5q111 0 197.5 -51.5
t134.5 -142.5q61 90 156 142t204 52z" />
    <glyph glyph-name="n" unicode="n" horiz-adv-x="1314" 
d="M747 1131q192 0 306 -129t114 -336v-666h-227v620q0 151 -64.5 229t-189.5 78q-130 0 -213.5 -94.5t-83.5 -240.5v-592h-227v1106h158l45 -154q64 85 163 132t219 47z" />
    <glyph glyph-name="o" unicode="o" horiz-adv-x="1343" 
d="M672 -27q-167 0 -302 75.5t-212 208t-77 296.5q0 165 77 297.5t212 207.5t302 75t302 -75t212 -208t77 -297t-77 -296.5t-212 -208t-302 -75.5zM672 190q157 0 258.5 102t101.5 261t-101.5 261t-258.5 102t-258.5 -102t-101.5 -261t101.5 -261t258.5 -102z" />
    <glyph glyph-name="p" unicode="p" horiz-adv-x="1411" 
d="M757 1133q163 0 294 -75t204.5 -208t73.5 -297q0 -249 -162.5 -415t-409.5 -166q-213 0 -368 134v-502h-227v1502h153l43 -136q76 78 178.5 120.5t220.5 42.5zM739 190q156 0 258 103.5t102 259.5t-102 259.5t-258 103.5t-259.5 -104t-103.5 -259t103.5 -259t259.5 -104z
" />
    <glyph glyph-name="q" unicode="q" horiz-adv-x="1411" 
d="M1095 1106h153v-1502h-227v502q-155 -134 -367 -134q-122 0 -229 44.5t-182 121.5t-118.5 184.5t-43.5 230.5t43.5 231t119 184.5t182 120.5t228.5 44q238 0 398 -163zM671 190q156 0 259.5 104t103.5 259t-103.5 259t-259.5 104t-258 -103.5t-102 -259.5t102 -259.5
t258 -103.5z" />
    <glyph glyph-name="r" unicode="r" horiz-adv-x="806" 
d="M693 1112h98v-215h-120q-140 0 -211 -78t-71 -229v-590h-227v1106h154l38 -151q118 157 339 157z" />
    <glyph glyph-name="s" unicode="s" horiz-adv-x="1060" 
d="M530 -27q-202 0 -324.5 103t-127.5 275h222q4 -85 69.5 -131.5t168.5 -46.5q94 0 155 38.5t61 105.5q0 30 -14.5 54t-35 38.5t-58 26.5t-67 18t-79.5 15q-51 9 -81 15t-78 19.5t-77.5 28.5t-64.5 40t-54.5 55.5t-33 74.5t-13.5 97q0 149 118.5 241.5t310.5 92.5
t308.5 -96.5t119.5 -257.5h-215q-3 78 -60 119.5t-158 41.5q-94 0 -149 -36.5t-55 -97.5q0 -24 8 -42.5t27.5 -32.5t37 -23t52 -17t56.5 -12.5t65 -11.5q162 -27 233 -57q170 -73 180 -257q1 -12 1 -26q0 -161 -123 -257.5t-325 -96.5z" />
    <glyph glyph-name="t" unicode="t" horiz-adv-x="839" 
d="M655 206h126v-206h-169q-182 0 -287 105.5t-105 288.5v517h-198v44l385 409h39v-258h329v-195h-327v-499q0 -99 53.5 -152.5t153.5 -53.5z" />
    <glyph glyph-name="u" unicode="u" horiz-adv-x="1294" 
d="M648 -27q-228 0 -365.5 135t-137.5 359v639h227v-607q0 -144 74 -226.5t202 -82.5t201.5 83t73.5 226v607h227v-639q0 -224 -137 -359t-365 -135z" />
    <glyph glyph-name="v" unicode="v" horiz-adv-x="1181" 
d="M919 1106h234l-455 -1106h-208l-467 1106h240l331 -820z" />
    <glyph glyph-name="w" unicode="w" horiz-adv-x="1740" 
d="M1482 1106h228l-371 -1106h-184l-285 673l-284 -673h-184l-370 1106h234l250 -745l317 733h74l321 -739z" />
    <glyph glyph-name="x" unicode="x" horiz-adv-x="1079" 
d="M1070 0h-256l-275 421l-279 -421h-250l393 572l-363 534h256l244 -372l252 372h250l-367 -523z" />
    <glyph glyph-name="y" unicode="y" horiz-adv-x="1214" 
d="M951 1106h242l-508 -1126q-95 -211 -194 -293.5t-266 -82.5h-113v204h95q108 0 159 42.5t113 177.5l25 52l-481 1026h247l351 -771z" />
    <glyph glyph-name="z" unicode="z" horiz-adv-x="1003" 
d="M403 211h532v-211h-887v29l536 869h-494v208h844v-34z" />
    <glyph glyph-name="braceleft" unicode="{" horiz-adv-x="729" 
d="M565 -92h100v-200h-182q-111 0 -189.5 78.5t-78.5 190.5v476q0 46 -33 78.5t-80 32.5h-34v189h34q47 0 80 32.5t33 79.5v482q0 110 79 188t189 78h180v-199h-98q-54 0 -89.5 -35.5t-35.5 -89.5v-411q0 -74 -38.5 -133.5t-97.5 -85.5q59 -25 97.5 -85t38.5 -134v-407
q0 -53 35.5 -89t89.5 -36z" />
    <glyph glyph-name="bar" unicode="|" horiz-adv-x="577" 
d="M183 -389v2109h212v-2109h-212z" />
    <glyph glyph-name="braceright" unicode="}" horiz-adv-x="729" 
d="M628 753h34v-189h-34q-47 0 -80 -32.5t-33 -78.5v-476q0 -112 -78.5 -190.5t-189.5 -78.5h-182v200h100q54 0 89.5 36t35.5 89v407q0 74 38.5 134t97.5 85q-59 26 -97.5 85.5t-38.5 133.5v411q0 54 -35.5 89.5t-89.5 35.5h-98v199h180q110 0 189 -78t79 -188v-482
q0 -47 33 -79.5t80 -32.5z" />
    <glyph glyph-name="asciitilde" unicode="~" horiz-adv-x="1196" 
d="M798 474q-71 0 -130 26t-128 85q-44 38 -70.5 52.5t-53.5 14.5q-51 0 -84 -40.5t-33 -103.5v-28h-162v35q0 154 74.5 244.5t202.5 90.5q73 0 129.5 -26.5t119.5 -84.5q46 -40 73.5 -55.5t57.5 -15.5q52 0 84 39t32 103v32h161v-34q0 -154 -73.5 -244t-199.5 -90z" />
    <glyph glyph-name="uni00A0" unicode="&#xa0;" horiz-adv-x="516" 
 />
    <glyph glyph-name="exclamdown" unicode="&#xa1;" horiz-adv-x="565" 
d="M407 1106v-261h-250v261h250zM398 684v-1053h-230v1053h230z" />
    <glyph glyph-name="cent" unicode="&#xa2;" horiz-adv-x="1224" 
d="M1161 383q-39 -160 -154 -266.5t-276 -131.5v-155h-181v155q-201 30 -331 182t-130 362q0 211 129 361.5t332 180.5v169h181v-169q161 -25 275 -130t152 -263h-216q-41 90 -122 140.5t-182 50.5q-141 0 -235 -97.5t-94 -243.5q0 -145 94.5 -243t234.5 -98q102 0 182 52.5
t123 146.5z" />
    <glyph glyph-name="sterling" unicode="&#xa3;" horiz-adv-x="1228" 
d="M935 359h202v-359h-1042v156l136 30v376h-111v185h111v241q0 182 122 297.5t313 115.5q186 0 300.5 -112.5t114.5 -294.5v-24h-202v12q0 94 -60 154.5t-153 60.5q-95 0 -155.5 -61.5t-60.5 -159.5v-229h331v-185h-331v-370h485v167z" />
    <glyph glyph-name="currency" unicode="&#xa4;" horiz-adv-x="1232" 
d="M1139 219l-130 -130l-156 158q-110 -70 -239 -70q-130 0 -238 69l-149 -155l-131 130l150 155q-72 110 -72 239q0 139 77 251l-150 151l131 131l156 -155q105 62 226 62q122 0 229 -64l156 157l130 -131l-152 -153q77 -114 77 -249q0 -129 -70 -237zM361 617
q0 -103 75.5 -178t179.5 -75q103 0 176 74.5t73 178.5q0 103 -72.5 177t-176.5 74q-103 0 -179 -73.5t-76 -177.5z" />
    <glyph glyph-name="yen" unicode="&#xa5;" horiz-adv-x="1331" 
d="M776 609v-47h367v-138h-367v-113h367v-135h-367v-176h-224v176h-366v135h366v113h-366v138h366v44l-491 756h232l370 -579l374 579h234z" />
    <glyph glyph-name="brokenbar" unicode="&#xa6;" horiz-adv-x="577" 
d="M183 819v901h212v-901h-212zM183 -389v921h212v-921h-212z" />
    <glyph glyph-name="section" unicode="&#xa7;" horiz-adv-x="1073" 
d="M829 377q97 -77 97 -208q0 -147 -104 -227.5t-275 -80.5q-184 0 -294.5 94t-110.5 249h189q0 -78 62.5 -123.5t156.5 -45.5q81 0 132.5 35t51.5 96q0 29 -14 52.5t-33.5 39t-57 30.5t-65.5 23.5t-78 21.5q-48 12 -77.5 19.5t-75.5 23.5t-74.5 32.5t-62.5 43t-53.5 57.5
t-32.5 74.5t-13 94.5q0 177 153 268q-97 75 -97 205q0 148 101 229t268 81q182 0 291.5 -94.5t109.5 -249.5h-188q0 78 -61.5 123.5t-153.5 45.5q-76 0 -126.5 -36t-50.5 -97q0 -29 14 -53t33 -39.5t55.5 -31t64 -24t76.5 -21.5q43 -10 68 -17t66.5 -20t67 -26t58.5 -32
t53 -42.5t39.5 -53.5t28 -68t8.5 -83q0 -164 -146 -265zM290 693q0 -27 8.5 -49.5t19.5 -39t34.5 -32.5t41 -25.5t52.5 -21.5t54.5 -18t60.5 -17q56 -16 91 -28q130 52 130 164q0 28 -9 52t-20.5 41t-36 33.5t-42 26.5t-54 23t-55.5 19t-62 18q-10 3 -22 7l-27 9t-23 8
q-67 -24 -104 -68.5t-37 -101.5z" />
    <glyph glyph-name="dieresis" unicode="&#xa8;" horiz-adv-x="1228" 
d="M202 1275v237h250v-237h-250zM635 1275v237h250v-237h-250z" />
    <glyph glyph-name="copyright" unicode="&#xa9;" horiz-adv-x="1710" 
d="M853 -23q-219 0 -392 94t-269.5 262.5t-96.5 381.5t96.5 381.5t269.5 262t392 93.5t393 -94t271 -262t97 -381q0 -159 -57 -296.5t-157 -234.5t-241.5 -152t-305.5 -55zM853 116q177 0 316.5 75.5t218 212.5t78.5 311t-78.5 311t-218 212.5t-316.5 75.5
q-268 0 -439.5 -167.5t-171.5 -431.5t171.5 -431.5t439.5 -167.5zM855 341q-162 0 -272 108.5t-110 267.5q0 163 109 270.5t273 107.5q131 0 226.5 -74.5t125.5 -198.5h-149q-28 61 -81 94.5t-122 33.5q-99 0 -164.5 -67t-65.5 -166q0 -97 65.5 -163t164.5 -66q69 0 121 34
t81 97h153q-30 -126 -127 -202t-228 -76z" />
    <glyph glyph-name="ordfeminine" unicode="&#xaa;" horiz-adv-x="942" 
d="M680 1450h125v-682h-130l-18 85q-97 -95 -236 -95q-143 0 -241.5 102t-98.5 250q0 146 99 248t241 102q141 0 238 -97zM441 909q83 0 138 57t55 144q0 86 -55 143.5t-138 57.5t-138.5 -58t-55.5 -143q0 -86 55.5 -143.5t138.5 -57.5z" />
    <glyph glyph-name="guillemotleft" unicode="&#xab;" horiz-adv-x="1290" 
d="M407 116l-337 415v31l337 416h268l-344 -431l344 -431h-268zM930 116l-336 415v31l336 416h269l-344 -431l344 -431h-269z" />
    <glyph glyph-name="logicalnot" unicode="&#xac;" horiz-adv-x="1220" 
d="M109 843h959v-589h-224v377h-735v212z" />
    <glyph glyph-name="registered" unicode="&#xae;" horiz-adv-x="991" 
d="M497 1454q169 0 287 -118t118 -287q0 -170 -118 -288.5t-287 -118.5t-288.5 119.5t-119.5 287.5q0 169 119 287t289 118zM497 734q132 0 223 91t91 224q0 131 -91.5 222t-222.5 91q-133 0 -225 -91t-92 -222q0 -132 92.5 -223.5t224.5 -91.5zM668 1117q0 -88 -76 -121
l87 -148h-96l-78 136h-60v-136h-93v410h175q61 0 101 -40t40 -101zM445 1173v-106h74q28 0 43.5 14t15.5 38t-16 39t-43 15h-74z" />
    <glyph glyph-name="macron" unicode="&#xaf;" horiz-adv-x="1038" 
d="M199 1301v179h641v-179h-641z" />
    <glyph glyph-name="degree" unicode="&#xb0;" horiz-adv-x="768" 
d="M382 1114q-130 0 -220 88.5t-90 215.5q0 125 90.5 214t219.5 89t222 -89t93 -214q0 -126 -92.5 -215t-222.5 -89zM384 1260q68 0 114.5 45.5t46.5 112.5q0 66 -46.5 111.5t-114.5 45.5q-69 0 -114.5 -45.5t-45.5 -111.5q0 -67 45.5 -112.5t114.5 -45.5z" />
    <glyph glyph-name="plusminus" unicode="&#xb1;" horiz-adv-x="1234" 
d="M507 414v353h-380v209h380v351h222v-351h379v-209h-379v-353h-222zM127 223h983v-206h-983v206z" />
    <glyph glyph-name="acute" unicode="&#xb4;" horiz-adv-x="1028" 
d="M205 1233l127 311h242l-194 -311h-175z" />
    <glyph glyph-name="paragraph" unicode="&#xb6;" horiz-adv-x="1310" 
d="M1228 1434v-210h-186v-1354h-205v1354h-209v-1354h-204v715q-162 27 -262 140t-100 276q0 187 130.5 310t338.5 123h697z" />
    <glyph glyph-name="periodcentered" unicode="&#xb7;" horiz-adv-x="522" 
d="M136 559v261h250v-261h-250z" />
    <glyph glyph-name="cedilla" unicode="&#xb8;" horiz-adv-x="794" 
d="M406 -76q86 -11 137.5 -63t51.5 -130q0 -90 -67.5 -146t-174.5 -56h-147v124h128q45 0 72.5 23t27.5 61t-27.5 61t-72.5 23h-65l-18 20l63 237h135z" />
    <glyph glyph-name="ordmasculine" unicode="&#xba;" horiz-adv-x="882" 
d="M444 759q-156 0 -259.5 99.5t-103.5 250.5t103.5 250.5t259.5 99.5q155 0 257.5 -99.5t102.5 -250.5t-102.5 -250.5t-257.5 -99.5zM444 914q86 0 140 54.5t54 140.5t-54.5 140.5t-139.5 54.5q-86 0 -141 -54.5t-55 -140.5t55 -140.5t141 -54.5z" />
    <glyph glyph-name="guillemotright" unicode="&#xbb;" horiz-adv-x="1290" 
d="M360 116h-269l344 431l-344 431h269l336 -416v-31zM883 116h-268l344 431l-344 431h268l337 -416v-31z" />
    <glyph glyph-name="onequarter" unicode="&#xbc;" horiz-adv-x="1435" 
d="M953 1495h178l-827 -1556h-178zM175 644v642h-128v148h300v-790h-172zM1384 296v-144h-72v-152h-159v152h-383v30l261 607h166l-213 -493h174l30 193h124v-193h72z" />
    <glyph glyph-name="onehalf" unicode="&#xbd;" horiz-adv-x="1478" 
d="M953 1495h178l-827 -1556h-178zM175 644v642h-128v148h300v-790h-172zM1159 158h251v-157h-560v38q171 197 245 289t100 140.5t26 90.5q0 44 -25.5 70.5t-66.5 26.5q-44 0 -71 -27t-27 -73v-17h-166v16q0 115 71 183.5t191 68.5q117 0 191 -68.5t74 -177.5
q0 -75 -46.5 -156.5t-186.5 -246.5z" />
    <glyph glyph-name="threequarters" unicode="&#xbe;" horiz-adv-x="1658" 
d="M1178 1495h178l-827 -1556h-178zM618 896q0 -116 -79.5 -191t-201.5 -75q-117 0 -193.5 73t-79.5 188h160q3 -49 34 -79.5t79 -30.5q53 0 86 33.5t33 87.5q0 53 -35.5 84.5t-93.5 31.5h-114v31l145 238h-275v147h507v-33l-166 -259q88 -20 141 -86.5t53 -159.5zM1609 296
v-144h-72v-152h-159v152h-383v30l261 607h166l-213 -493h174l30 193h124v-193h72z" />
    <glyph glyph-name="questiondown" unicode="&#xbf;" horiz-adv-x="1052" 
d="M680 1106v-261h-250v261h250zM669 690v-45q0 -59 -13.5 -110t-30 -84.5t-49.5 -69t-53.5 -53t-60.5 -48.5q-41 -31 -63 -50t-49 -51t-39 -69t-12 -83q0 -102 67.5 -164.5t170.5 -62.5q101 0 173.5 59.5t76.5 161.5h214q-3 -102 -42.5 -185.5t-104.5 -136.5t-146.5 -81
t-170.5 -28q-125 0 -228.5 50.5t-167.5 151.5t-64 235q0 59 13 110t30 85.5t48 70t53 54.5t60 49q37 30 50 41.5t40.5 39.5t38.5 48.5t21 52.5t10 67v45h228z" />
    <glyph glyph-name="Agrave" unicode="&#xc0;" horiz-adv-x="1445" 
d="M636 1586l-201 290h242l134 -290h-175zM1162 0l-123 312h-640l-122 -312h-250l576 1434h222l593 -1434h-256zM717 1127l-236 -604h476z" />
    <glyph glyph-name="Aacute" unicode="&#xc1;" horiz-adv-x="1445" 
d="M991 1876l-201 -290h-175l134 290h242zM1162 0l-123 312h-640l-122 -312h-250l576 1434h222l593 -1434h-256zM717 1127l-236 -604h476z" />
    <glyph glyph-name="Acircumflex" unicode="&#xc2;" horiz-adv-x="1445" 
d="M716 1754l-171 -168h-197l239 290h259l240 -290h-198zM1162 0l-123 312h-640l-122 -312h-250l576 1434h222l593 -1434h-256zM717 1127l-236 -604h476z" />
    <glyph glyph-name="Atilde" unicode="&#xc3;" horiz-adv-x="1445" 
d="M865 1582q-45 0 -86 15.5t-63 30.5t-54 42q-24 19 -34 27t-29 17t-35 9q-37 0 -61.5 -30.5t-24.5 -81.5v-20h-133v26q0 121 57.5 192t159.5 71q41 0 78.5 -14t55.5 -27t49 -39q23 -21 36.5 -32t35.5 -20.5t45 -9.5q39 0 61.5 29.5t22.5 82.5v19h135v-23q0 -122 -58 -193
t-158 -71zM1163 0l-124 312h-640l-122 -312h-250l576 1434h222l593 -1434h-255zM717 1127l-236 -604h476z" />
    <glyph glyph-name="Adieresis" unicode="&#xc4;" horiz-adv-x="1445" 
d="M363 1594v234h249v-234h-249zM822 1594v234h249v-234h-249zM1162 0l-123 312h-640l-122 -312h-250l576 1434h222l593 -1434h-256zM717 1127l-236 -604h476z" />
    <glyph glyph-name="Aring" unicode="&#xc5;" horiz-adv-x="1445" 
d="M717 1547q-116 0 -188.5 69t-72.5 177q0 109 72.5 177t188.5 68q115 0 187.5 -68t72.5 -177q0 -108 -72.5 -177t-187.5 -69zM717 1671q55 0 90.5 34.5t35.5 87.5q0 54 -35.5 87.5t-90.5 33.5q-57 0 -92 -33.5t-35 -87.5q0 -53 35.5 -87.5t91.5 -34.5zM1162 0l-123 312
h-640l-122 -312h-250l576 1434h222l593 -1434h-256zM717 1127l-236 -604h476z" />
    <glyph glyph-name="AE" unicode="&#xc6;" horiz-adv-x="1863" 
d="M1146 222h617v-222h-854v296h-492l-174 -296h-276l851 1434h922v-220h-594v-375h541v-216h-541v-401zM541 507h368v624z" />
    <glyph glyph-name="Ccedilla" unicode="&#xc7;" horiz-adv-x="1585" 
d="M1520 529q-52 -238 -223.5 -386.5t-410.5 -165.5l-14 -52q83 -15 132 -66t49 -125q0 -90 -73.5 -147.5t-187.5 -57.5h-143v127h141q42 0 68.5 22t26.5 58q0 35 -27 57.5t-70 22.5h-67l-18 24l34 139q-187 21 -334 120.5t-229.5 260.5t-82.5 356q0 158 56 296.5t153 236.5
t234 154t294 56q254 0 442 -146t244 -388h-238q-51 143 -170 224.5t-278 81.5q-216 0 -357 -145.5t-141 -369.5t141 -369t357 -145q164 0 284 87t169 240h239z" />
    <glyph glyph-name="Egrave" unicode="&#xc8;" horiz-adv-x="1138" 
d="M515 1586l-201 290h242l134 -290h-175zM418 222h619v-222h-855v1434h833v-221h-597v-374h544v-216h-544v-401z" />
    <glyph glyph-name="Eacute" unicode="&#xc9;" horiz-adv-x="1138" 
d="M870 1876l-201 -290h-175l134 290h242zM418 222h619v-222h-855v1434h833v-221h-597v-374h544v-216h-544v-401z" />
    <glyph glyph-name="Ecircumflex" unicode="&#xca;" horiz-adv-x="1138" 
d="M595 1754l-170 -168h-198l239 290h259l240 -290h-198zM418 222h619v-222h-855v1434h833v-221h-597v-374h544v-216h-544v-401z" />
    <glyph glyph-name="Edieresis" unicode="&#xcb;" horiz-adv-x="1138" 
d="M242 1594v234h250v-234h-250zM701 1594v234h250v-234h-250zM418 222h619v-222h-855v1434h833v-221h-597v-374h544v-216h-544v-401z" />
    <glyph glyph-name="Igrave" unicode="&#xcc;" horiz-adv-x="600" 
d="M381 1586h-178l-151 290h237zM182 0v1434h236v-1434h-236z" />
    <glyph glyph-name="Iacute" unicode="&#xcd;" horiz-adv-x="600" 
d="M201 1586l92 290h232l-153 -290h-171zM182 0v1434h236v-1434h-236z" />
    <glyph glyph-name="Icircumflex" unicode="&#xce;" horiz-adv-x="600" 
d="M414 1876l213 -290h-189l-140 166l-140 -166h-186l212 290h230zM182 0v1434h236v-1434h-236z" />
    <glyph glyph-name="Idieresis" unicode="&#xcf;" horiz-adv-x="600" 
d="M26 1594v234h225v-234h-225zM351 1594v234h225v-234h-225zM182 0v1434h236v-1434h-236z" />
    <glyph glyph-name="Eth" unicode="&#xd0;" horiz-adv-x="1566" 
d="M748 1434q156 0 291.5 -54t231 -148.5t150 -228t54.5 -286.5q0 -205 -93.5 -369t-259.5 -256t-374 -92h-506v619h-202v199h202v616h506zM741 219q217 0 355 140.5t138 357.5t-138 357t-355 140h-264v-396h362v-199h-362v-400h264z" />
    <glyph glyph-name="Ntilde" unicode="&#xd1;" horiz-adv-x="1538" 
d="M537 1611v-20h-134v26q0 121 58 192t160 71q41 0 78 -14t55 -26.5t49 -39.5q23 -21 36.5 -32t35.5 -20.5t45 -9.5q39 0 62 29.5t23 82.5v19h135v-23q0 -121 -58.5 -192.5t-158.5 -71.5q-45 0 -86 15.5t-62 30.5t-54 42q-24 19 -34 27t-29 17t-35 9q-37 0 -61.5 -30.5
t-24.5 -81.5zM1125 1434h230v-1434h-197l-745 1024v-1024h-231v1434h213l730 -1007v1007z" />
    <glyph glyph-name="Ograve" unicode="&#xd2;" horiz-adv-x="1691" 
d="M765 1586l-201 290h242l134 -290h-175zM847 -27q-214 0 -387.5 97t-271.5 267t-98 380t98 380t271.5 267t387.5 97t387 -97t270.5 -267t97.5 -380t-97.5 -380t-270.5 -267t-387 -97zM847 200q222 0 369 147.5t147 369.5t-147 369.5t-369 147.5q-146 0 -264.5 -67.5
t-185.5 -186t-67 -263.5t67 -263.5t185.5 -186t264.5 -67.5z" />
    <glyph glyph-name="Oacute" unicode="&#xd3;" horiz-adv-x="1691" 
d="M744 1586l134 290h242l-201 -290h-175zM847 -27q-214 0 -387.5 97t-271.5 267t-98 380t98 380t271.5 267t387.5 97t387 -97t270.5 -267t97.5 -380t-97.5 -380t-270.5 -267t-387 -97zM847 200q222 0 369 147.5t147 369.5t-147 369.5t-369 147.5q-146 0 -264.5 -67.5
t-185.5 -186t-67 -263.5t67 -263.5t185.5 -186t264.5 -67.5z" />
    <glyph glyph-name="Ocircumflex" unicode="&#xd4;" horiz-adv-x="1691" 
d="M1215 1586h-198l-172 168l-170 -168h-198l239 290h259zM847 -27q-214 0 -387.5 97t-271.5 267t-98 380t98 380t271.5 267t387.5 97t387 -97t270.5 -267t97.5 -380t-97.5 -380t-270.5 -267t-387 -97zM847 200q222 0 369 147.5t147 369.5t-147 369.5t-369 147.5
q-146 0 -264.5 -67.5t-185.5 -186t-67 -263.5t67 -263.5t185.5 -186t264.5 -67.5z" />
    <glyph glyph-name="Otilde" unicode="&#xd5;" horiz-adv-x="1691" 
d="M994 1582q-45 0 -86 15.5t-62 30.5t-54 42q-23 18 -34 26.5t-30 17.5t-35 9q-37 0 -61 -30.5t-24 -81.5v-20h-134v26q0 121 57.5 192t159.5 71q41 0 78.5 -14t55.5 -27t49 -39q23 -21 36.5 -32t35.5 -20.5t45 -9.5q39 0 61.5 29.5t22.5 82.5v19h136v-23
q0 -121 -58.5 -192.5t-158.5 -71.5zM847 -27q-214 0 -387.5 97t-271.5 267t-98 380t98 380t271.5 267t387.5 97t387 -97t270.5 -267t97.5 -380t-97.5 -380t-270.5 -267t-387 -97zM847 200q222 0 369 147.5t147 369.5t-147 369.5t-369 147.5q-146 0 -264.5 -67.5t-185.5 -186
t-67 -263.5t67 -263.5t185.5 -186t264.5 -67.5z" />
    <glyph glyph-name="Odieresis" unicode="&#xd6;" horiz-adv-x="1691" 
d="M492 1594v234h249v-234h-249zM951 1594v234h250v-234h-250zM847 -27q-214 0 -387.5 97t-271.5 267t-98 380t98 380t271.5 267t387.5 97t387 -97t270.5 -267t97.5 -380t-97.5 -380t-270.5 -267t-387 -97zM847 200q222 0 369 147.5t147 369.5t-147 369.5t-369 147.5
q-146 0 -264.5 -67.5t-185.5 -186t-67 -263.5t67 -263.5t185.5 -186t264.5 -67.5z" />
    <glyph glyph-name="multiply" unicode="&#xd7;" horiz-adv-x="1083" 
d="M981 984l-290 -294l290 -296l-151 -147l-289 292l-288 -292l-152 147l291 296l-291 294l155 148l285 -290l287 290z" />
    <glyph glyph-name="Oslash" unicode="&#xd8;" horiz-adv-x="1712" 
d="M1333 1298q135 -101 211 -253.5t76 -333.5q0 -207 -97.5 -375t-270 -263.5t-385.5 -95.5q-157 0 -294 54l-95 -158h-255l160 257q-138 100 -216 253t-78 334q0 156 58 293.5t158 235.5t240.5 155t299.5 57q156 0 299 -58l95 161h254zM845 1231q-220 0 -368 -147
t-148 -365q0 -118 48 -220t133 -172l521 874q-87 30 -186 30zM861 203q146 0 264 66t185.5 182.5t67.5 260.5q0 117 -45 217.5t-125 170.5l-519 -869q86 -28 172 -28z" />
    <glyph glyph-name="Ugrave" unicode="&#xd9;" horiz-adv-x="1484" 
d="M661 1586l-201 290h242l134 -290h-175zM743 -27q-163 0 -294.5 71t-206.5 200t-75 292v898h236v-883q0 -158 95 -255t245 -97q149 0 243.5 97t94.5 255v883h237v-898q0 -163 -75 -292t-206 -200t-294 -71z" />
    <glyph glyph-name="Uacute" unicode="&#xda;" horiz-adv-x="1484" 
d="M640 1586l134 290h242l-201 -290h-175zM743 -27q-163 0 -294.5 71t-206.5 200t-75 292v898h236v-883q0 -158 95 -255t245 -97q149 0 243.5 97t94.5 255v883h237v-898q0 -163 -75 -292t-206 -200t-294 -71z" />
    <glyph glyph-name="Ucircumflex" unicode="&#xdb;" horiz-adv-x="1484" 
d="M1111 1586h-198l-172 168l-170 -168h-198l239 290h259zM743 -27q-163 0 -294.5 71t-206.5 200t-75 292v898h236v-883q0 -158 95 -255t245 -97q149 0 243.5 97t94.5 255v883h237v-898q0 -163 -75 -292t-206 -200t-294 -71z" />
    <glyph glyph-name="Udieresis" unicode="&#xdc;" horiz-adv-x="1484" 
d="M388 1594v234h250v-234h-250zM847 1594v234h250v-234h-250zM743 -27q-163 0 -294.5 71t-206.5 200t-75 292v898h236v-883q0 -158 95 -254.5t245 -96.5q149 0 243.5 96.5t94.5 254.5v883h237v-898q0 -163 -75 -292t-206 -200t-294 -71z" />
    <glyph glyph-name="Yacute" unicode="&#xdd;" horiz-adv-x="1366" 
d="M958 1876l-201 -290h-175l134 290h242zM1322 1434l-519 -860v-574h-242v575l-514 859h254l383 -642l384 642h254z" />
    <glyph glyph-name="Thorn" unicode="&#xde;" horiz-adv-x="1282" 
d="M712 1192q214 0 351.5 -134t137.5 -341q0 -209 -137 -342.5t-352 -133.5h-294v-241h-236v1434h236v-242h294zM701 462q115 0 188 71t73 184t-73 183.5t-188 70.5h-283v-509h283z" />
    <glyph glyph-name="germandbls" unicode="&#xdf;" horiz-adv-x="1259" 
d="M958 793q105 -48 161 -141t56 -221q0 -194 -137 -312.5t-360 -118.5h-137v214h136q124 0 199.5 64t75.5 170q0 104 -75.5 168t-201.5 64h-116v203h95q113 0 184 62t71 160q0 95 -70 155.5t-180 60.5q-126 0 -198 -80t-72 -219v-1022h-227v1012q0 242 131 378t363 136
q200 0 330 -116t130 -294q0 -102 -41.5 -187t-116.5 -136z" />
    <glyph glyph-name="agrave" unicode="&#xe0;" horiz-adv-x="1425" 
d="M800 1233h-175l-194 311h242zM1088 1107l175 -1v-1105h-183l-22 134q-76 -77 -179 -119.5t-222 -42.5q-162 0 -294 75.5t-207 209t-75 296.5q0 164 75 296.5t207 207.5t294 75q120 0 224 -43t180 -122zM674 191q156 0 258.5 103.5t102.5 259.5t-102.5 259t-258.5 103
t-259 -103.5t-103 -258.5q0 -156 103 -259.5t259 -103.5z" />
    <glyph glyph-name="aacute" unicode="&#xe1;" horiz-adv-x="1425" 
d="M949 1544l-194 -311h-175l127 311h242zM1088 1107l175 -1v-1105h-183l-22 134q-76 -77 -179 -119.5t-222 -42.5q-162 0 -294 75.5t-207 209t-75 296.5q0 164 75 296.5t207 207.5t294 75q120 0 224 -43t180 -122zM674 191q156 0 258.5 103.5t102.5 259.5t-102.5 259
t-258.5 103t-259 -103.5t-103 -258.5q0 -156 103 -259.5t259 -103.5z" />
    <glyph glyph-name="acircumflex" unicode="&#xe2;" horiz-adv-x="1425" 
d="M697 1413l-171 -180h-198l240 311h258l242 -311h-198zM1088 1106h175v-1105h-183l-22 134q-76 -77 -179 -119.5t-222 -42.5q-162 0 -294 75.5t-207 209t-75 296.5q0 164 75 296.5t207 207.5t294 75q120 0 224 -43t180 -122zM674 191q156 0 258.5 103.5t102.5 259.5
t-102.5 259t-258.5 103t-259 -103.5t-103 -258.5q0 -156 103 -259.5t259 -103.5z" />
    <glyph glyph-name="atilde" unicode="&#xe3;" horiz-adv-x="1425" 
d="M461 1269v-20h-132v25q0 120 57 190t157 70q41 0 78 -14t56.5 -28t48.5 -40q21 -19 35 -30t35 -20t43 -9q37 0 59.5 30.5t22.5 80.5v19h134v-23q0 -119 -57.5 -189.5t-156.5 -70.5q-43 0 -84 16t-59 29t-53 41q-2 2 -10 8t-10.5 8t-9.5 7t-10 7t-9.5 6t-10 5.5t-9.5 4
t-10.5 3.5t-10 2t-10.5 1q-36 0 -60 -30.5t-24 -78.5zM1088 1106h175v-1105h-183l-22 134q-76 -77 -179 -119.5t-222 -42.5q-162 0 -294 75.5t-207 208.5t-75 296q0 164 75 297t207 208t294 75q120 0 224 -43t180 -122zM674 191q156 0 258.5 103t102.5 259t-102.5 259.5
t-258.5 103.5t-259 -103.5t-103 -259.5q0 -155 103 -258.5t259 -103.5z" />
    <glyph glyph-name="adieresis" unicode="&#xe4;" horiz-adv-x="1425" 
d="M603 1512v-237h-250v237h250zM1036 1512v-237h-250v237h250zM1088 1107l175 -1v-1105h-183l-22 134q-76 -77 -179 -119.5t-222 -42.5q-162 0 -294 75.5t-207 209t-75 296.5q0 164 75 296.5t207 207.5t294 75q120 0 224 -43t180 -122zM674 191q156 0 258.5 103.5
t102.5 259.5t-102.5 259t-258.5 103t-259 -103.5t-103 -258.5q0 -156 103 -259.5t259 -103.5z" />
    <glyph glyph-name="aring" unicode="&#xe5;" horiz-adv-x="1425" 
d="M695 1203q-109 0 -177 65t-68 167q0 103 68 167t177 64t177.5 -64t68.5 -167q0 -102 -68.5 -167t-177.5 -65zM695 1550q-52 0 -85.5 -32t-33.5 -83q0 -50 33.5 -82t85.5 -32t86 32t34 82q0 51 -34 83t-86 32zM1088 1106h175v-1105h-183l-22 134q-76 -77 -179 -119.5
t-222 -42.5q-162 0 -294 75.5t-207 209t-75 296.5q0 164 75 296.5t207 207.5t294 75q120 0 224 -43t180 -122zM674 191q156 0 258.5 103.5t102.5 259.5t-102.5 259t-258.5 103t-259 -103.5t-103 -258.5q0 -156 103 -259.5t259 -103.5z" />
    <glyph glyph-name="ae" unicode="&#xe6;" horiz-adv-x="2228" 
d="M2150 552q0 -42 -4 -77h-902q22 -132 113 -208.5t229 -76.5q99 0 177 41t121 117h239q-65 -174 -207 -274t-325 -100q-113 0 -211.5 42.5t-170.5 120.5l-10 -140h-154l-10 130q-154 -152 -378 -152q-162 0 -294 76t-207 208.5t-75 293.5q0 163 75 295.5t207 207.5t294 75
q226 0 380 -154l11 132h150l11 -141q153 163 382 163q159 0 287.5 -76t200 -208.5t71.5 -294.5zM1586 928q-130 0 -219 -72t-117 -196h673q-29 125 -119 196.5t-218 71.5zM669 192q155 0 255.5 102t100.5 259t-100.5 259t-255.5 102q-154 0 -255 -102.5t-101 -258.5
t101 -258.5t255 -102.5z" />
    <glyph glyph-name="ccedilla" unicode="&#xe7;" horiz-adv-x="1273" 
d="M1212 403q-43 -184 -182 -300.5t-330 -128.5l-14 -50q86 -11 137.5 -63t51.5 -130q0 -90 -67.5 -146t-174.5 -56h-147v124h128q45 0 72.5 23t27.5 61t-27.5 61t-72.5 23h-65l-18 20l37 139q-214 32 -350.5 191.5t-136.5 382.5q0 163 75.5 295.5t208.5 208t296 75.5
q204 0 353 -115t195 -306h-225q-44 95 -130 149.5t-194 54.5q-149 0 -248.5 -104t-99.5 -258t100 -259t248 -105q109 0 193.5 56t129.5 157h229z" />
    <glyph glyph-name="egrave" unicode="&#xe8;" horiz-adv-x="1292" 
d="M751 1233h-175l-194 311h242zM1213 550q0 -32 -5 -74h-898q21 -134 112 -212t227 -78q98 0 175.5 43t121.5 119h240q-66 -175 -209 -275t-328 -100q-242 0 -405 166.5t-163 413.5q0 163 74 296t204 208.5t290 75.5q165 0 295 -78.5t199.5 -211t69.5 -293.5zM649 928
q-127 0 -216 -72t-117 -196h669q-31 126 -120.5 197t-215.5 71z" />
    <glyph glyph-name="eacute" unicode="&#xe9;" horiz-adv-x="1292" 
d="M899 1544l-193 -311h-176l127 311h242zM1213 550q0 -32 -5 -74h-898q21 -134 112 -212t227 -78q98 0 175.5 43t121.5 119h240q-66 -175 -209 -275t-328 -100q-242 0 -405 166.5t-163 413.5q0 163 74 296t204 208.5t290 75.5q165 0 295 -78.5t199.5 -211t69.5 -293.5z
M649 928q-127 0 -216 -72t-117 -196h669q-31 126 -120.5 197t-215.5 71z" />
    <glyph glyph-name="ecircumflex" unicode="&#xea;" horiz-adv-x="1292" 
d="M648 1413l-171 -180h-198l239 311h259l241 -311h-197zM1213 550q0 -32 -5 -74h-898q21 -134 112 -212t227 -78q98 0 175.5 43t121.5 119h240q-66 -175 -209 -275t-328 -100q-242 0 -405 166.5t-163 413.5q0 163 74 296t204 208.5t290 75.5q165 0 295 -78.5t199.5 -211
t69.5 -293.5zM649 928q-127 0 -216 -72t-117 -196h669q-31 126 -120.5 197t-215.5 71z" />
    <glyph glyph-name="edieresis" unicode="&#xeb;" horiz-adv-x="1292" 
d="M553 1512v-237h-249v237h249zM986 1512v-237h-249v237h249zM1213 550q0 -32 -5 -74h-898q21 -134 112 -212t227 -78q98 0 175.5 43t121.5 119h240q-66 -175 -209 -275t-328 -100q-242 0 -405 166.5t-163 413.5q0 163 74 296t204 208.5t290 75.5q165 0 295 -78.5
t199.5 -211t69.5 -293.5zM649 928q-127 0 -216 -72t-117 -196h669q-31 126 -120.5 197t-215.5 71z" />
    <glyph glyph-name="igrave" unicode="&#xec;" horiz-adv-x="550" 
d="M360 1233h-177l-152 311h237zM162 0v1106h227v-1106h-227z" />
    <glyph glyph-name="iacute" unicode="&#xed;" horiz-adv-x="550" 
d="M177 1233l92 311h237l-151 -311h-178zM162 0v1106h227v-1106h-227z" />
    <glyph glyph-name="icircumflex" unicode="&#xee;" horiz-adv-x="550" 
d="M391 1544l212 -311h-188l-140 178l-140 -178h-187l212 311h231zM162 0v1106h227v-1106h-227z" />
    <glyph glyph-name="idieresis" unicode="&#xef;" horiz-adv-x="550" 
d="M-1 1275v237h217v-237h-217zM349 1274v236h217v-236h-217zM162 0v1106h227v-1106h-227z" />
    <glyph glyph-name="eth" unicode="&#xf0;" horiz-adv-x="1323" 
d="M819 1459q194 -122 295 -340t102 -513q0 -288 -155 -459.5t-416 -171.5q-251 0 -407 152t-156 396q0 234 152.5 383.5t383.5 149.5q204 0 347 -126q-27 128 -102.5 226t-191.5 159l-212 -207l-94 90l174 170q-125 37 -265 37v194q240 0 423 -77l142 138l92 -92zM645 184
q147 0 245 97.5t98 243.5q-1 147 -99 243.5t-244 96.5q-148 0 -245.5 -97t-97.5 -243t97.5 -243.5t245.5 -97.5z" />
    <glyph glyph-name="ntilde" unicode="&#xf1;" horiz-adv-x="1314" 
d="M441 1269v-20h-132v25q0 120 57 190t157 70q41 0 78 -14t56.5 -28t48.5 -40q21 -19 35 -30t35 -20t43 -9q37 0 59.5 30.5t22.5 80.5v19h134v-23q0 -119 -57.5 -189.5t-156.5 -70.5q-43 0 -84 16t-59 29t-53 41q-2 2 -10 8t-10.5 8t-9.5 7t-10 7t-9.5 6t-10 5.5t-9.5 4
t-10.5 3.5t-10 2t-10.5 1q-36 0 -60 -30.5t-24 -78.5zM747 1131q192 0 306 -129t114 -336v-666h-227v620q0 151 -64.5 229t-189.5 78q-130 0 -213.5 -94.5t-83.5 -240.5v-592h-227v1106h158l45 -154q64 85 163 132t219 47z" />
    <glyph glyph-name="ograve" unicode="&#xf2;" horiz-adv-x="1343" 
d="M776 1233h-175l-194 311h242zM672 -27q-167 0 -302 75.5t-212 208t-77 296.5q0 165 77 297.5t212 207.5t302 75t302 -75t212 -208t77 -297t-77 -296.5t-212 -208t-302 -75.5zM672 190q157 0 258.5 102t101.5 261t-101.5 261t-258.5 102t-258.5 -102t-101.5 -261
t101.5 -261t258.5 -102z" />
    <glyph glyph-name="oacute" unicode="&#xf3;" horiz-adv-x="1343" 
d="M556 1233l127 311h242l-194 -311h-175zM672 -27q-167 0 -302 75.5t-212 208t-77 296.5q0 165 77 297.5t212 207.5t302 75t302 -75t212 -208t77 -297t-77 -296.5t-212 -208t-302 -75.5zM672 190q157 0 258.5 102t101.5 261t-101.5 261t-258.5 102t-258.5 -102t-101.5 -261
t101.5 -261t258.5 -102z" />
    <glyph glyph-name="ocircumflex" unicode="&#xf4;" horiz-adv-x="1343" 
d="M1044 1233h-198l-173 180l-171 -180h-198l240 311h258zM672 -27q-167 0 -302 75.5t-212 208t-77 296.5q0 165 77 297.5t212 207.5t302 75t302 -75t212 -208t77 -297t-77 -296.5t-212 -208t-302 -75.5zM672 190q157 0 258.5 102t101.5 261t-101.5 261t-258.5 102
t-258.5 -102t-101.5 -261t101.5 -261t258.5 -102z" />
    <glyph glyph-name="otilde" unicode="&#xf5;" horiz-adv-x="1343" 
d="M817 1240q-43 0 -83.5 15.5t-59.5 29t-53 40.5q-2 2 -14 11.5t-15 11.5t-13 9t-15 9t-13 6t-15 5t-15 1q-36 0 -60 -30.5t-24 -78.5v-20h-133v25q0 119 57.5 189.5t157.5 70.5q41 0 78 -14t56.5 -28t48.5 -40q22 -20 35 -30t34 -19.5t43 -9.5q38 0 60.5 30.5t22.5 80.5
v19h134v-23q0 -119 -57.5 -189.5t-156.5 -70.5zM672 -27q-167 0 -302 75.5t-212 208t-77 296.5q0 165 77 297.5t212 207.5t302 75t302 -75t212 -208t77 -297t-77 -296.5t-212 -208t-302 -75.5zM672 190q157 0 258.5 102t101.5 261t-101.5 261t-258.5 102t-258.5 -102
t-101.5 -261t101.5 -261t258.5 -102z" />
    <glyph glyph-name="odieresis" unicode="&#xf6;" horiz-adv-x="1343" 
d="M329 1275v237h250v-237h-250zM762 1275v237h250v-237h-250zM672 -27q-167 0 -302 75.5t-212 208t-77 296.5q0 165 77 297.5t212 207.5t302 75t302 -75t212 -208t77 -297t-77 -296.5t-212 -208t-302 -75.5zM672 190q157 0 258.5 102t101.5 261t-101.5 261t-258.5 102
t-258.5 -102t-101.5 -261t101.5 -261t258.5 -102z" />
    <glyph glyph-name="divide" unicode="&#xf7;" horiz-adv-x="1187" 
d="M594 949q-52 0 -87.5 35.5t-35.5 87.5q0 50 35.5 85.5t87.5 35.5t87.5 -35.5t35.5 -85.5q0 -52 -35.5 -87.5t-87.5 -35.5zM102 586v205h983v-205h-983zM594 185q-52 0 -87.5 35.5t-35.5 87.5q0 51 35.5 86t87.5 35q51 0 87 -35t36 -86q0 -52 -35.5 -87.5t-87.5 -35.5z
" />
    <glyph glyph-name="oslash" unicode="&#xf8;" horiz-adv-x="1357" 
d="M1033 1021q114 -78 178.5 -200t64.5 -270q0 -121 -44.5 -227.5t-121 -182.5t-184 -120t-230.5 -44q-113 0 -216 39l-78 -141h-209l122 217q-110 77 -172.5 197.5t-62.5 265.5q0 162 76 293.5t210 206.5t298 75q104 0 200 -34l72 135h209zM664 925q-160 0 -262 -104.5
t-102 -265.5q0 -180 121 -282l349 637q-50 15 -106 15zM696 182q157 0 259 104t102 265q0 181 -129 285l-350 -635q57 -19 118 -19z" />
    <glyph glyph-name="ugrave" unicode="&#xf9;" horiz-adv-x="1294" 
d="M753 1233h-176l-193 311h242zM648 -27q-228 0 -365.5 135t-137.5 359v639h227v-607q0 -144 74 -226.5t202 -82.5t201.5 83t73.5 226v607h227v-639q0 -224 -137 -359t-365 -135z" />
    <glyph glyph-name="uacute" unicode="&#xfa;" horiz-adv-x="1294" 
d="M532 1233l127 311h242l-194 -311h-175zM648 -27q-228 0 -365.5 135t-137.5 359v639h227v-607q0 -144 74 -226.5t202 -82.5t201.5 83t73.5 226v607h227v-639q0 -224 -137 -359t-365 -135z" />
    <glyph glyph-name="ucircumflex" unicode="&#xfb;" horiz-adv-x="1294" 
d="M1020 1233h-198l-172 180l-172 -180h-197l239 311h259zM648 -27q-228 0 -365.5 135t-137.5 359v639h227v-607q0 -144 74 -226.5t202 -82.5t201.5 83t73.5 226v607h227v-639q0 -224 -137 -359t-365 -135z" />
    <glyph glyph-name="udieresis" unicode="&#xfc;" horiz-adv-x="1294" 
d="M306 1275v237h249v-237h-249zM738 1275v237h250v-237h-250zM648 -27q-228 0 -365.5 135t-137.5 359v639h227v-607q0 -144 74 -226.5t202 -82.5t201.5 83t73.5 226v607h227v-639q0 -224 -137 -359t-365 -135z" />
    <glyph glyph-name="yacute" unicode="&#xfd;" horiz-adv-x="1214" 
d="M865 1544l-193 -311h-176l127 311h242zM951 1106h242l-508 -1126q-95 -211 -194 -293.5t-266 -82.5h-113v204h95q108 0 159 42.5t113 177.5l25 52l-481 1026h247l351 -771z" />
    <glyph glyph-name="thorn" unicode="&#xfe;" horiz-adv-x="1413" 
d="M758 1131q163 0 294.5 -75t205 -207.5t73.5 -295.5q0 -123 -43.5 -230.5t-118.5 -184.5t-182 -121.5t-229 -44.5q-214 0 -369 136v-504h-227v1895h227v-502q153 134 369 134zM740 190q156 0 258.5 103.5t102.5 259.5q0 155 -102.5 258t-258.5 103t-259 -103t-103 -258
q0 -156 103 -259.5t259 -103.5z" />
    <glyph glyph-name="ydieresis" unicode="&#xff;" horiz-adv-x="1214" 
d="M270 1275v237h249v-237h-249zM703 1275v237h249v-237h-249zM951 1106h242l-508 -1126q-95 -211 -194 -293.5t-266 -82.5h-113v204h95q108 0 159 42.5t113 177.5l25 52l-481 1026h247l351 -771z" />
    <glyph glyph-name="Amacron" unicode="&#x100;" horiz-adv-x="1445" 
d="M397 1635v194h641v-194h-641zM1162 0l-123 312h-640l-122 -312h-250l576 1434h222l593 -1434h-256zM717 1127l-236 -604h476z" />
    <glyph glyph-name="amacron" unicode="&#x101;" horiz-adv-x="1425" 
d="M1015 1480v-179h-641v179h641zM1088 1107l175 -1v-1105h-183l-22 134q-76 -77 -179 -119.5t-222 -42.5q-162 0 -294 75.5t-207 209t-75 296.5q0 164 75 296.5t207 207.5t294 75q120 0 224 -43t180 -122zM674 191q156 0 258.5 103.5t102.5 259.5t-102.5 259t-258.5 103
t-259 -103.5t-103 -258.5q0 -156 103 -259.5t259 -103.5z" />
    <glyph glyph-name="Abreve" unicode="&#x102;" horiz-adv-x="1445" 
d="M717 1572q-149 0 -239.5 83t-90.5 222h176v-8q0 -69 41.5 -107.5t112.5 -38.5q70 0 110 38.5t40 107.5v8h181q0 -139 -91 -222t-240 -83zM1162 0l-123 312h-640l-122 -312h-250l576 1434h222l593 -1434h-256zM717 1127l-236 -604h476z" />
    <glyph glyph-name="abreve" unicode="&#x103;" horiz-adv-x="1425" 
d="M695 1219q-155 0 -249 88t-94 237h177v-7q0 -79 45 -123t121 -44t119 44t43 123v7h181q0 -149 -94 -237t-249 -88zM1088 1107l175 -1v-1105h-183l-22 134q-76 -77 -179.5 -119.5t-222.5 -42.5q-121 0 -228 44.5t-183 121.5t-120 185t-44 230q0 164 74.5 296.5
t206.5 207.5t294 75q120 0 224.5 -43t180.5 -122zM674 191q156 0 258.5 103.5t102.5 259.5t-102.5 259t-258.5 103t-259 -103.5t-103 -258.5q0 -156 103 -259.5t259 -103.5z" />
    <glyph glyph-name="Aogonek" unicode="&#x104;" horiz-adv-x="1443" 
d="M1135 -204q0 -51 38.5 -81.5t105.5 -30.5q62 0 107 22v-130q-78 -46 -171 -46q-113 0 -183.5 59.5t-70.5 153.5q0 83 50.5 158.5t138.5 127.5l-112 283h-639l-122 -312h-250l576 1434h221l587 -1420l10 -14q-142 -23 -214 -76t-72 -128zM716 1127l-236 -604h476z" />
    <glyph glyph-name="aogonek" unicode="&#x105;" horiz-adv-x="1425" 
d="M1183 -316q56 0 112 22v-127q-79 -48 -176 -48q-106 0 -177.5 57t-71.5 155q0 93 53 171.5t149 135.5l-14 85q-76 -77 -179 -119.5t-222 -42.5q-162 0 -294 75.5t-207 208.5t-75 297t75 296.5t207 207.5t294 75q120 0 224 -43t180 -122l27 139h175v-1106v-1
q-102 -28 -160.5 -82t-58.5 -119q0 -55 38.5 -85t100.5 -30zM674 191q156 0 258.5 103.5t102.5 259.5t-102.5 259t-258.5 103t-259 -103.5t-103 -258.5q0 -156 103 -259.5t259 -103.5z" />
    <glyph glyph-name="Cacute" unicode="&#x106;" horiz-adv-x="1585" 
d="M716 1586l134 290h242l-201 -290h-175zM828 -25q-157 0 -294 56t-234 153.5t-153 235.5t-56 296t56 296.5t153 236.5t234 154t294 56q254 0 442 -146t244 -388h-238q-51 143 -170 224.5t-278 81.5q-216 0 -357 -145.5t-141 -369.5t141 -369t357 -145q164 0 284 87
t169 240h239q-56 -253 -244.5 -403.5t-447.5 -150.5z" />
    <glyph glyph-name="cacute" unicode="&#x107;" horiz-adv-x="1273" 
d="M543 1233l127 311h242l-194 -311h-175zM660 -27q-162 0 -295 76t-208.5 209t-75.5 296t75.5 295.5t208.5 208t296 75.5q204 0 353 -115t195 -306h-225q-44 95 -130 149.5t-194 54.5q-149 0 -248.5 -104t-99.5 -258t100 -259t248 -105q109 0 193.5 56t129.5 157h229
q-46 -194 -197 -312t-355 -118z" />
    <glyph glyph-name="Ccircumflex" unicode="&#x108;" horiz-adv-x="1585" 
d="M1187 1586h-198l-172 168l-170 -168h-198l240 290h258zM828 -25q-157 0 -294 56t-234 153.5t-153 235.5t-56 296t56 296.5t153 236.5t234 154t294 56q254 0 442 -146t244 -388h-238q-51 143 -170 224.5t-278 81.5q-216 0 -357 -145.5t-141 -369.5t141 -369t357 -145
q164 0 284 87t169 240h239q-56 -253 -244.5 -403.5t-447.5 -150.5z" />
    <glyph glyph-name="ccircumflex" unicode="&#x109;" horiz-adv-x="1273" 
d="M1031 1233h-198l-172 180l-171 -180h-198l239 311h259zM660 -27q-162 0 -295 76t-208.5 209t-75.5 296t75.5 295.5t208.5 208t296 75.5q204 0 353 -115t195 -306h-225q-44 95 -130 149.5t-194 54.5q-149 0 -248.5 -104t-99.5 -258t100 -259t248 -105q109 0 193.5 56
t129.5 157h229q-46 -194 -197 -312t-355 -118z" />
    <glyph glyph-name="Cdotaccent" unicode="&#x10a;" horiz-adv-x="1585" 
d="M695 1595v233h247v-233h-247zM828 -25q-157 0 -294 56t-234 153.5t-153 235.5t-56 296t56 296.5t153 236.5t234 154t294 56q254 0 442 -146t244 -388h-238q-51 143 -170 224.5t-278 81.5q-216 0 -357 -145.5t-141 -369.5t141 -369t357 -145q164 0 284 87t169 240h239
q-56 -253 -244.5 -403.5t-447.5 -150.5z" />
    <glyph glyph-name="cdotaccent" unicode="&#x10b;" horiz-adv-x="1273" 
d="M541 1275v237h235v-237h-235zM660 -27q-162 0 -295 76t-208.5 209t-75.5 296t75.5 295.5t208.5 208t296 75.5q204 0 353 -115t195 -306h-225q-44 95 -130 149.5t-194 54.5q-149 0 -248.5 -104t-99.5 -258t100 -259t248 -105q109 0 193.5 56t129.5 157h229
q-46 -194 -197 -312t-355 -118z" />
    <glyph glyph-name="Ccaron" unicode="&#x10c;" horiz-adv-x="1585" 
d="M989 1876h198l-240 -290h-258l-240 290h198l170 -168zM828 -25q-157 0 -294 56t-234 153.5t-153 235.5t-56 296t56 296.5t153 236.5t234 154t294 56q254 0 442 -146t244 -388h-238q-51 143 -170 224.5t-278 81.5q-216 0 -357 -145.5t-141 -369.5t141 -369t357 -145
q164 0 284 87t169 240h239q-56 -253 -244.5 -403.5t-447.5 -150.5z" />
    <glyph glyph-name="ccaron" unicode="&#x10d;" horiz-adv-x="1273" 
d="M831 1544h198l-242 -311h-258l-240 311h198l171 -181zM660 -27q-162 0 -295 76t-208.5 209t-75.5 296t75.5 295.5t208.5 208t296 75.5q204 0 353 -115t195 -306h-225q-44 95 -130 149.5t-194 54.5q-149 0 -248.5 -104t-99.5 -258t100 -259t248 -105q109 0 193.5 56
t129.5 157h229q-46 -194 -197 -312t-355 -118z" />
    <glyph glyph-name="Dcaron" unicode="&#x10e;" horiz-adv-x="1507" 
d="M733 1586h-259l-239 290h197l171 -168l172 168h198zM688 1434q156 0 291.5 -54t231 -148.5t150 -228t54.5 -286.5q0 -205 -93.5 -369t-259.5 -256t-374 -92h-506v1434h506zM681 219q217 0 355 140.5t138 357.5t-138 357t-355 140h-263v-995h263z" />
    <glyph glyph-name="dcaron" unicode="&#x10f;" horiz-adv-x="1449" 
d="M1020 1004v498h227v-1502h-172l-29 125q-159 -153 -390 -153q-249 0 -412 166t-163 415q0 250 162.5 415t412.5 165q210 0 364 -129zM1351 1502h218v-179q0 -92 -58 -158t-151 -77v99q48 7 74.5 39t26.5 81h-110v195zM673 190q156 0 259.5 104t103.5 259t-103.5 259
t-259.5 104t-258 -103.5t-102 -259.5t102 -259.5t258 -103.5z" />
    <glyph glyph-name="Dcroat" unicode="&#x110;" horiz-adv-x="1566" 
d="M748 1434q156 0 291.5 -54t231 -148.5t150 -228t54.5 -286.5q0 -205 -93.5 -369t-259.5 -256t-374 -92h-506v619h-202v199h202v616h506zM741 219q217 0 355 140.5t138 357.5t-138 357t-355 140h-264v-396h362v-199h-362v-400h264z" />
    <glyph glyph-name="dcroat" unicode="&#x111;" horiz-adv-x="1409" 
d="M1403 1383v-172h-156v-1211h-172l-29 125q-159 -153 -390 -153q-249 0 -412 166t-163 415q0 250 162.5 415t412.5 165q210 0 364 -129v207h-390v172h390v119h227v-119h156zM673 190q156 0 259.5 104t103.5 259t-103.5 259t-259.5 104t-258 -103.5t-102 -259.5t102 -259.5
t258 -103.5z" />
    <glyph glyph-name="Emacron" unicode="&#x112;" horiz-adv-x="1138" 
d="M277 1635v194h641v-194h-641zM418 222h619v-222h-855v1434h833v-221h-597v-374h544v-216h-544v-401z" />
    <glyph glyph-name="emacron" unicode="&#x113;" horiz-adv-x="1292" 
d="M965 1480v-179h-641v179h641zM1213 550q0 -32 -5 -74h-898q21 -134 112 -212t227 -78q98 0 175.5 43t121.5 119h240q-66 -175 -209 -275t-328 -100q-242 0 -405 166.5t-163 413.5q0 163 74 296t204 208.5t290 75.5q165 0 295 -78.5t199.5 -211t69.5 -293.5zM649 928
q-127 0 -216 -72t-117 -196h669q-31 126 -120.5 197t-215.5 71z" />
    <glyph glyph-name="Ebreve" unicode="&#x114;" horiz-adv-x="1138" 
d="M597 1572q-149 0 -240 83t-91 222h177v-8q0 -69 41 -107.5t112 -38.5q70 0 110.5 38.5t40.5 107.5v8h181q0 -139 -91 -222t-240 -83zM418 222h619v-222h-855v1434h833v-221h-597v-374h544v-216h-544v-401z" />
    <glyph glyph-name="ebreve" unicode="&#x115;" horiz-adv-x="1292" 
d="M646 1219q-155 0 -249 88t-94 237h176v-7q0 -78 45.5 -122.5t121.5 -44.5t119 44t43 123v7h181q0 -149 -94 -237t-249 -88zM1213 550q0 -32 -5 -74h-898q21 -134 112 -212t227 -78q98 0 175.5 43t121.5 119h240q-66 -175 -209 -275t-328 -100q-242 0 -405 166.5
t-163 413.5q0 163 74 296t204 208.5t290 75.5q165 0 295 -78.5t199.5 -211t69.5 -293.5zM649 928q-127 0 -216 -72t-117 -196h669q-31 126 -120.5 197t-215.5 71z" />
    <glyph glyph-name="Edotaccent" unicode="&#x116;" horiz-adv-x="1138" 
d="M473 1595v233h247v-233h-247zM418 222h619v-222h-855v1434h833v-221h-597v-374h544v-216h-544v-401z" />
    <glyph glyph-name="edotaccent" unicode="&#x117;" horiz-adv-x="1292" 
d="M763 1512v-237h-234v237h234zM1213 550q0 -32 -5 -74h-898q21 -134 112 -212t227 -78q98 0 175.5 43t121.5 119h240q-66 -175 -209 -275t-328 -100q-242 0 -405 166.5t-163 413.5q0 163 74 296t204 208.5t290 75.5q165 0 295 -78.5t199.5 -211t69.5 -293.5zM649 928
q-127 0 -216 -72t-117 -196h669q-31 126 -120.5 197t-215.5 71z" />
    <glyph glyph-name="Eogonek" unicode="&#x118;" horiz-adv-x="1138" 
d="M939 -316q60 0 113 22v-127q-79 -48 -176 -48q-110 0 -179.5 59t-69.5 153q0 75 38.5 141.5t107.5 115.5h-591v1434h833v-221h-597v-374h544v-216h-544v-401h619v-222q-106 -19 -171.5 -75.5t-65.5 -125.5q0 -53 37.5 -84t101.5 -31z" />
    <glyph glyph-name="eogonek" unicode="&#x119;" horiz-adv-x="1294" 
d="M1216 562q0 -36 -7 -87h-900q22 -132 114.5 -208.5t229.5 -76.5q98 0 174 41.5t121 116.5h239q-70 -194 -282 -318q-83 -49 -128.5 -108t-45.5 -119q0 -57 37 -88t101 -31q61 0 114 23v-126q-76 -50 -175 -50q-113 0 -181 58.5t-68 150.5q0 59 30.5 122.5t83.5 114.5h-20
q-160 0 -291 75.5t-205.5 208t-74.5 294.5q0 120 43.5 226.5t119 183t182 120.5t226.5 44q162 0 292 -77.5t200.5 -206.5t70.5 -283zM653 924q-130 0 -222 -71.5t-116 -190.5h671q-30 122 -118.5 192t-214.5 70z" />
    <glyph glyph-name="Ecaron" unicode="&#x11a;" horiz-adv-x="1138" 
d="M725 1586h-259l-239 290h198l170 -168l172 168h198zM418 222h619v-222h-855v1434h833v-221h-597v-374h544v-216h-544v-401z" />
    <glyph glyph-name="ecaron" unicode="&#x11b;" horiz-adv-x="1292" 
d="M774 1233h-258l-240 311h198l171 -181l173 181h198zM1213 550q0 -32 -5 -74h-898q21 -134 112 -212t227 -78q98 0 176 43t122 119h239q-66 -175 -209 -275t-328 -100q-242 0 -405 166.5t-163 413.5q0 163 74 296t204 208.5t290 75.5q165 0 295 -78.5t199.5 -211
t69.5 -293.5zM649 928q-127 0 -216 -72t-117 -196h669q-31 126 -120.5 197t-215.5 71z" />
    <glyph glyph-name="Gcircumflex" unicode="&#x11c;" horiz-adv-x="1634" 
d="M821 1754l-170 -168h-198l240 290h258l240 -290h-198zM782 728h766q-3 -217 -95 -389t-256 -269t-372 -97q-156 0 -292.5 56t-233.5 154t-152.5 236.5t-55.5 296.5t55 296t151.5 236t232 154.5t290.5 56.5q262 0 460 -149t247 -383h-243q-46 138 -171.5 221t-287.5 83
q-218 0 -356.5 -144t-138.5 -371q0 -229 137 -372t358 -143q172 0 299.5 89t168.5 235h-511v203z" />
    <glyph glyph-name="gcircumflex" unicode="&#x11d;" horiz-adv-x="1378" 
d="M658 1413l-171 -180h-198l240 311h258l242 -311h-198zM1067 1106h149v-961q0 -265 -147.5 -416.5t-404.5 -151.5q-212 0 -355.5 103.5t-185.5 285.5h227q31 -88 117.5 -138t194.5 -50q146 0 238.5 90.5t92.5 245.5v51q-154 -133 -366 -133q-152 0 -277 72.5t-197 198.5
t-72 279q0 152 71.5 278.5t197 199.5t277.5 73q119 0 223.5 -45t180.5 -125zM653 243q147 0 243.5 96.5t96.5 242.5q0 147 -96 243t-244 96q-147 0 -244 -96.5t-97 -242.5t97 -242.5t244 -96.5z" />
    <glyph glyph-name="Gbreve" unicode="&#x11e;" horiz-adv-x="1634" 
d="M823 1572q-149 0 -239.5 83t-90.5 222h176v-8q0 -69 41 -107.5t112 -38.5q70 0 110.5 38.5t40.5 107.5v8h181q0 -139 -91 -222t-240 -83zM782 728h766q-3 -217 -95 -389t-256 -269t-372 -97q-156 0 -292.5 56t-233.5 154t-152.5 236.5t-55.5 296.5t55 296t151.5 236
t232 154.5t290.5 56.5q262 0 460 -149t247 -383h-243q-46 138 -171.5 221t-287.5 83q-218 0 -356.5 -144t-138.5 -371q0 -229 137 -372t358 -143q172 0 299.5 89t168.5 235h-511v203z" />
    <glyph glyph-name="gbreve" unicode="&#x11f;" horiz-adv-x="1378" 
d="M656 1219q-155 0 -249 88t-94 237h177v-7q0 -79 45 -123t121 -44t119 44t43 123v7h181q0 -149 -94 -237t-249 -88zM1067 1106h149v-961q0 -265 -147.5 -416.5t-404.5 -151.5q-212 0 -355.5 103.5t-185.5 285.5h227q31 -88 117.5 -138t194.5 -50q146 0 238.5 90.5
t92.5 245.5v51q-154 -133 -366 -133q-152 0 -277 72.5t-197 198.5t-72 279q0 152 71.5 278.5t197 199.5t277.5 73q119 0 223.5 -45t180.5 -125zM653 243q147 0 243 96t96 243t-95.5 243t-243.5 96q-147 0 -244 -96.5t-97 -242.5t97 -242.5t244 -96.5z" />
    <glyph glyph-name="Gdotaccent" unicode="&#x120;" horiz-adv-x="1634" 
d="M947 1828v-233h-248v233h248zM782 728h766q-3 -217 -95 -389t-256 -269t-372 -97q-156 0 -292.5 56t-233.5 154t-152.5 236.5t-55.5 296.5t55 296t151.5 236t232 154.5t290.5 56.5q262 0 460 -149t247 -383h-243q-46 138 -171.5 221t-287.5 83q-218 0 -356.5 -144
t-138.5 -371q0 -229 137 -372t358 -143q172 0 299.5 89t168.5 235h-511v203z" />
    <glyph glyph-name="gdotaccent" unicode="&#x121;" horiz-adv-x="1378" 
d="M774 1512v-237h-235v237h235zM1067 1106h149v-961q0 -265 -147.5 -416.5t-404.5 -151.5q-212 0 -355.5 103.5t-185.5 285.5h227q31 -88 117.5 -138t194.5 -50q146 0 238.5 90.5t92.5 245.5v51q-154 -133 -366 -133q-152 0 -277 72.5t-197 198.5t-72 279q0 152 71.5 278.5
t197 199.5t277.5 73q119 0 223.5 -45t180.5 -125zM653 243q147 0 243 96t96 243t-95.5 243t-243.5 96q-147 0 -244 -96.5t-97 -242.5t97 -242.5t244 -96.5z" />
    <glyph glyph-name="uni0122" unicode="&#x122;" horiz-adv-x="1634" 
d="M782 728h766q-3 -217 -95 -389t-256 -269t-372 -97q-156 0 -292.5 56t-233.5 154t-152.5 236.5t-55.5 296.5t55 296t151.5 236t232 154.5t290.5 56.5q262 0 460 -149t247 -383h-243q-46 138 -171.5 221t-287.5 83q-218 0 -356.5 -144t-138.5 -371q0 -229 137 -372
t358 -143q172 0 299.5 89t168.5 235h-511v203zM721 -296v195h219v-178q0 -92 -58.5 -158.5t-151.5 -77.5v99q48 7 75 39t27 81h-111z" />
    <glyph glyph-name="uni0123" unicode="&#x123;" horiz-adv-x="1378" 
d="M765 1465v-195h-219v179q0 92 58 158t151 77v-99q-48 -7 -74.5 -39t-27.5 -81h112zM1067 1106h149v-961q0 -265 -147.5 -416.5t-404.5 -151.5q-212 0 -355.5 103.5t-185.5 285.5h227q31 -88 117.5 -138t194.5 -50q146 0 238.5 90.5t92.5 245.5v51q-154 -133 -366 -133
q-152 0 -277 72.5t-197 198.5t-72 279q0 152 71.5 278.5t197 199.5t277.5 73q119 0 223.5 -45t180.5 -125zM653 243q147 0 243 96t96 243t-95.5 243t-243.5 96q-147 0 -244 -96.5t-97 -242.5t97 -242.5t244 -96.5z" />
    <glyph glyph-name="Hcircumflex" unicode="&#x124;" horiz-adv-x="1490" 
d="M749 1754l-170 -168h-198l239 290h259l240 -290h-198zM1073 1434h236v-1434h-236v625h-655v-625h-236v1434h236v-586h655v586z" />
    <glyph glyph-name="hcircumflex" unicode="&#x125;" horiz-adv-x="1314" 
d="M446 1634l-172 168l-170 -168h-198l239 291h259l240 -291h-198zM749 1131q193 0 305.5 -125.5t112.5 -339.5v-666h-227v620q0 151 -64 229t-190 78q-129 0 -213 -94t-84 -241v-592h-227v1502h227v-522q65 72 158 111.5t202 39.5z" />
    <glyph glyph-name="Hbar" unicode="&#x126;" horiz-adv-x="1538" 
d="M1487 1267v-182h-156v-1085h-235v627h-656v-627h-235v1085h-152v182h152v167h235v-167h656v167h235v-167h156zM1096 846v239h-656v-239h656z" />
    <glyph glyph-name="hbar" unicode="&#x127;" horiz-adv-x="1314" 
d="M749 1131q193 0 305.5 -125t112.5 -339v-667h-227v620q0 151 -64 229t-190 78q-129 0 -213 -94t-84 -241v-592h-227v1211h-188v171h188v120h227v-120h357v-171h-357v-231q65 72 158 111.5t202 39.5z" />
    <glyph glyph-name="Itilde" unicode="&#x128;" horiz-adv-x="600" 
d="M451 1582q-40 0 -79.5 15t-60 29.5t-53.5 41.5q-64 55 -102 55q-32 0 -53 -31.5t-21 -80.5v-20h-128v26q0 121 52.5 192t147.5 71q42 0 78 -13.5t56 -28t48 -40.5q24 -22 35 -31t33 -19t44 -10q34 0 53.5 30.5t19.5 81.5v19h129v-23q0 -122 -53 -193t-146 -71zM182 0
v1434h236v-1434h-236z" />
    <glyph glyph-name="itilde" unicode="&#x129;" horiz-adv-x="550" 
d="M417 1236q-38 0 -74.5 15.5t-54.5 30t-50 42.5q-48 42 -69 50q-13 5 -25 5q-31 0 -48.5 -22.5t-17.5 -61.5v-42h-139v37q0 118 49.5 185t146.5 67q40 0 76 -15.5t53.5 -29.5t46.5 -42q20 -20 31.5 -30t29.5 -19.5t35 -9.5q30 0 47.5 23.5t17.5 64.5v39h138v-35
q0 -120 -50 -186t-143 -66zM162 0v1106h227v-1106h-227z" />
    <glyph glyph-name="Imacron" unicode="&#x12a;" horiz-adv-x="600" 
d="M47 1635v197h508v-197h-508zM182 0v1434h236v-1434h-236z" />
    <glyph glyph-name="imacron" unicode="&#x12b;" horiz-adv-x="550" 
d="M17 1301v179h518v-179h-518zM162 0v1106h227v-1106h-227z" />
    <glyph glyph-name="Ibreve" unicode="&#x12c;" horiz-adv-x="600" 
d="M301 1572q-140 0 -224.5 83t-84.5 222h176v-8q0 -69 36 -107.5t97 -38.5t95.5 38.5t34.5 107.5v8h181q0 -139 -85.5 -222t-225.5 -83zM182 0v1434h236v-1434h-236z" />
    <glyph glyph-name="ibreve" unicode="&#x12d;" horiz-adv-x="550" 
d="M278 1219q-146 0 -234.5 88.5t-88.5 236.5h177v-7q0 -79 39.5 -123t106.5 -44q66 0 103.5 44t37.5 123v7h181q0 -148 -88 -236.5t-234 -88.5zM162 0v1106h227v-1106h-227z" />
    <glyph glyph-name="Iogonek" unicode="&#x12e;" horiz-adv-x="600" 
d="M384 -316q58 0 111 22v-127q-79 -48 -176 -48q-110 0 -179 59t-69 153q0 72 35 138.5t98 118.5h-22v1434h236v-1434q-174 -79 -174 -201q0 -53 37.5 -84t102.5 -31z" />
    <glyph glyph-name="iogonek" unicode="&#x12f;" horiz-adv-x="550" 
d="M393 1512v-237h-235v237h235zM310 -316q57 0 113 22v-127q-79 -48 -176 -48q-106 0 -177.5 57t-71.5 155q0 149 164 264v1099h227v-1070l2 -36q-102 -28 -160.5 -82t-58.5 -119q0 -55 38 -85t100 -30z" />
    <glyph glyph-name="Idotaccent" unicode="&#x130;" horiz-adv-x="600" 
d="M176 1595v233h247v-233h-247zM182 0v1434h236v-1434h-236z" />
    <glyph glyph-name="dotlessi" unicode="&#x131;" horiz-adv-x="550" 
d="M162 0v1106h227v-1106h-227z" />
    <glyph glyph-name="IJ" unicode="&#x132;" horiz-adv-x="1748" 
d="M182 0v1434h236v-1434h-236zM1078 -27q-221 0 -365.5 143.5t-144.5 364.5v39h233v-28q0 -130 77.5 -211.5t199.5 -81.5q118 0 194.5 82t76.5 211v942h232v-953q0 -223 -141 -365.5t-362 -142.5z" />
    <glyph glyph-name="ij" unicode="&#x133;" horiz-adv-x="1204" 
d="M158 1277v235h235v-235h-235zM812 1277v235h235v-235h-235zM162 0v1106h227v-1106h-227zM540 -396v208h79q95 0 145.5 50.5t50.5 145.5v1098h227v-1115q0 -173 -107.5 -280t-281.5 -107h-113z" />
    <glyph glyph-name="Jcircumflex" unicode="&#x134;" horiz-adv-x="1232" 
d="M1056 1876l212 -290h-188l-140 166l-140 -166h-186l211 290h231zM832 492v942h233v-953q0 -223 -141 -365.5t-362 -142.5t-365.5 143.5t-144.5 364.5v39h233v-28q0 -130 77.5 -211.5t199.5 -81.5q118 0 194 82t76 211z" />
    <glyph glyph-name="jcircumflex" unicode="&#x135;" horiz-adv-x="575" 
d="M411 1544l212 -311h-188l-140 178l-140 -178h-186l211 311h231zM187 21v1085h227v-1099q0 -174 -108 -281.5t-281 -107.5h-111v208h76q95 0 146 50.5t51 144.5z" />
    <glyph glyph-name="uni0136" unicode="&#x136;" horiz-adv-x="1320" 
d="M793 742l534 -742h-292l-449 629h-168v-629h-236v1434h236v-586h167l408 586h289zM589 -296v195h218v-178q0 -92 -58.5 -158.5t-150.5 -77.5v99q48 7 74.5 39t26.5 81h-110z" />
    <glyph glyph-name="uni0137" unicode="&#x137;" horiz-adv-x="1163" 
d="M745 575l414 -575h-278l-331 472h-138v-472h-227v1502h227v-824h140l298 428h270zM501 -296v195h218v-178q0 -92 -58.5 -158.5t-150.5 -77.5v99q48 7 74.5 39t26.5 81h-110z" />
    <glyph glyph-name="kgreenlandic" unicode="&#x138;" horiz-adv-x="1134" 
d="M859 0l-332 472h-138v-472h-227v1106h227v-428h140l299 428h269l-374 -530l415 -576h-279z" />
    <glyph glyph-name="Lacute" unicode="&#x139;" horiz-adv-x="1056" 
d="M592 1876l-201 -290h-175l134 290h242zM418 219h596v-219h-832v1434h236v-1215z" />
    <glyph glyph-name="lacute" unicode="&#x13a;" horiz-adv-x="550" 
d="M176 1654l134 291h242l-201 -291h-175zM162 0v1502h227v-1502h-227z" />
    <glyph glyph-name="uni013B" unicode="&#x13b;" horiz-adv-x="1056" 
d="M418 219h596v-219h-832v1434h236v-1215zM485 -296v195h219v-178q0 -92 -58.5 -158.5t-151.5 -77.5v99q48 7 75 39t27 81h-111z" />
    <glyph glyph-name="uni013C" unicode="&#x13c;" horiz-adv-x="550" 
d="M162 0v1502h227v-1502h-227zM175 -515v99q48 7 74.5 39t26.5 81h-111v195h219v-178q0 -92 -58.5 -158.5t-150.5 -77.5z" />
    <glyph glyph-name="Lcaron" unicode="&#x13d;" horiz-adv-x="1056" 
d="M736 1187q48 7 74.5 39t26.5 81h-111v195h219v-179q0 -92 -58 -158t-151 -77v99zM418 219h596v-219h-832v1434h236v-1215z" />
    <glyph glyph-name="lcaron" unicode="&#x13e;" horiz-adv-x="550" 
d="M162 0v1502h227v-1502h-227zM513 1088v99q48 7 74.5 39t26.5 81h-111v195h219v-179q0 -92 -58 -158t-151 -77z" />
    <glyph glyph-name="Ldot" unicode="&#x13f;" horiz-adv-x="1067" 
d="M418 219h596v-219h-832v1434h236v-1215zM919 825v-261h-250v261h250z" />
    <glyph glyph-name="ldot" unicode="&#x140;" horiz-adv-x="780" 
d="M162 0v1502h227v-1502h-227zM544 606v261h250v-261h-250z" />
    <glyph glyph-name="Lslash" unicode="&#x141;" horiz-adv-x="1056" 
d="M418 219h596v-219h-832v490l-165 -84v202l165 85v741h236v-619l389 201v-208l-389 -198v-391z" />
    <glyph glyph-name="lslash" unicode="&#x142;" horiz-adv-x="550" 
d="M578 1121v-209l-189 -107v-805h-227v677l-189 -107v209l189 107v616h227v-487z" />
    <glyph glyph-name="Nacute" unicode="&#x143;" horiz-adv-x="1538" 
d="M1049 1876l-201 -290h-175l134 290h242zM1125 1434h230v-1434h-197l-745 1024v-1024h-231v1434h213l730 -1007v1007z" />
    <glyph glyph-name="nacute" unicode="&#x144;" horiz-adv-x="1314" 
d="M929 1544l-194 -311h-175l127 311h242zM747 1131q192 0 306 -129t114 -336v-666h-227v620q0 151 -64.5 229t-189.5 78q-130 0 -213.5 -94.5t-83.5 -240.5v-592h-227v1106h158l45 -154q64 85 163 132t219 47z" />
    <glyph glyph-name="uni0145" unicode="&#x145;" horiz-adv-x="1538" 
d="M1125 1434h230v-1434h-197l-745 1024v-1024h-231v1434h213l730 -1007v1007zM668 -296v195h219v-178q0 -92 -58.5 -158.5t-150.5 -77.5v99q48 7 74.5 39t26.5 81h-111z" />
    <glyph glyph-name="uni0146" unicode="&#x146;" horiz-adv-x="1314" 
d="M747 1131q192 0 306 -129t114 -336v-666h-227v620q0 151 -64.5 229t-189.5 78q-130 0 -213.5 -94.5t-83.5 -240.5v-592h-227v1106h158l45 -154q64 85 163 132t219 47zM547 -296v195h219v-179q0 -92 -58 -158t-151 -77v99q48 7 74.5 39t26.5 81h-111z" />
    <glyph glyph-name="Ncaron" unicode="&#x147;" horiz-adv-x="1538" 
d="M904 1586h-258l-240 290h198l170 -168l172 168h198zM1125 1434h230v-1434h-197l-745 1024v-1024h-231v1434h213l730 -1007v1007z" />
    <glyph glyph-name="ncaron" unicode="&#x148;" horiz-adv-x="1314" 
d="M804 1233h-259l-239 311h198l171 -181l173 181h197zM747 1131q192 0 306 -129t114 -336v-666h-227v620q0 151 -64.5 229t-189.5 78q-130 0 -213.5 -94.5t-83.5 -240.5v-592h-227v1106h158l45 -154q64 85 163 132t219 47z" />
    <glyph glyph-name="Eng" unicode="&#x14a;" horiz-adv-x="1538" 
d="M866 -389v216h71q90 0 147 56t57 144l-728 997v-1024h-231v1434h213l730 -1008v1008h230v-1380q0 -209 -116 -326t-323 -117h-50z" />
    <glyph glyph-name="eng" unicode="&#x14b;" horiz-adv-x="1314" 
d="M747 1129q194 0 307 -125t113 -340v-660q0 -183 -107.5 -291.5t-290.5 -108.5h-78v205h45q96 0 150 55t54 151v603q0 151 -64.5 230t-189.5 79q-130 0 -213.5 -94.5t-83.5 -241.5v-591h-227v1106h158l45 -156q64 85 163 132t219 47z" />
    <glyph glyph-name="Omacron" unicode="&#x14c;" horiz-adv-x="1691" 
d="M527 1635v194h641v-194h-641zM847 -27q-214 0 -387.5 97t-271.5 267t-98 380t98 380t271.5 267t387.5 97t387 -97t270.5 -267t97.5 -380t-97.5 -380t-270.5 -267t-387 -97zM847 200q222 0 369 147.5t147 369.5t-147 369.5t-369 147.5q-146 0 -264.5 -67.5t-185.5 -186
t-67 -263.5t67 -263.5t185.5 -186t264.5 -67.5z" />
    <glyph glyph-name="omacron" unicode="&#x14d;" horiz-adv-x="1343" 
d="M350 1301v179h641v-179h-641zM672 -27q-167 0 -302 75.5t-212 208t-77 296.5q0 165 77 297.5t212 207.5t302 75t302 -75t212 -208t77 -297t-77 -296.5t-212 -208t-302 -75.5zM672 190q157 0 258.5 102t101.5 261t-101.5 261t-258.5 102t-258.5 -102t-101.5 -261
t101.5 -261t258.5 -102z" />
    <glyph glyph-name="Obreve" unicode="&#x14e;" horiz-adv-x="1691" 
d="M847 1572q-149 0 -240 83t-91 222h177v-8q0 -69 41 -107.5t112 -38.5q70 0 110.5 38.5t40.5 107.5v8h181q0 -139 -91 -222t-240 -83zM847 -27q-214 0 -387.5 97t-271.5 267t-98 380t98 380t271.5 267t387.5 97t387 -97t270.5 -267t97.5 -380t-97.5 -380t-270.5 -267
t-387 -97zM847 200q222 0 369 147.5t147 369.5t-147 369.5t-369 147.5q-146 0 -264.5 -67.5t-185.5 -186t-67 -263.5t67 -263.5t185.5 -186t264.5 -67.5z" />
    <glyph glyph-name="obreve" unicode="&#x14f;" horiz-adv-x="1343" 
d="M671 1219q-155 0 -249 88t-94 237h177v-7q0 -79 45 -123t121 -44t119 44t43 123v7h181q0 -149 -94 -237t-249 -88zM672 -27q-167 0 -302 75.5t-212 208t-77 296.5q0 165 77 297.5t212 207.5t302 75t302 -75t212 -208t77 -297t-77 -296.5t-212 -208t-302 -75.5zM672 190
q157 0 258.5 102t101.5 261t-101.5 261t-258.5 102t-258.5 -102t-101.5 -261t101.5 -261t258.5 -102z" />
    <glyph glyph-name="Ohungarumlaut" unicode="&#x150;" horiz-adv-x="1691" 
d="M564 1586l114 290h213l-167 -290h-160zM924 1586l160 290h224l-222 -290h-162zM847 -27q-214 0 -387.5 97t-271.5 267t-98 380t98 380t271.5 267t387.5 97t387 -97t270.5 -267t97.5 -380t-97.5 -380t-270.5 -267t-387 -97zM847 200q222 0 369 147.5t147 369.5t-147 369.5
t-369 147.5q-146 0 -264.5 -67.5t-185.5 -186t-67 -263.5t67 -263.5t185.5 -186t264.5 -67.5z" />
    <glyph glyph-name="ohungarumlaut" unicode="&#x151;" horiz-adv-x="1343" 
d="M383 1233l114 311h228l-174 -311h-168zM761 1233l155 311h221l-209 -311h-167zM672 -27q-167 0 -302 75.5t-212 208t-77 296.5q0 165 77 297.5t212 207.5t302 75t302 -75t212 -208t77 -297t-77 -296.5t-212 -208t-302 -75.5zM672 190q157 0 258.5 102t101.5 261
t-101.5 261t-258.5 102t-258.5 -102t-101.5 -261t101.5 -261t258.5 -102z" />
    <glyph glyph-name="OE" unicode="&#x152;" horiz-adv-x="1966" 
d="M1865 219v-219h-852q-107 -27 -212 -27q-144 0 -275 56.5t-227 154.5t-152.5 237t-56.5 296q0 155 55 292.5t150 236.5t226.5 156.5t279.5 57.5q115 0 216 -26h826v-218h-600v-379h546v-212h-546v-406h622zM330 717q0 -235 140 -374.5t362 -139.5q86 0 174 15v996
q-102 21 -183 21q-209 0 -351 -149t-142 -369z" />
    <glyph glyph-name="oe" unicode="&#x153;" horiz-adv-x="2234" 
d="M2156 552q0 -41 -4 -76h-900q21 -134 112 -211t229 -77q99 0 176.5 41.5t120.5 118.5h239q-66 -176 -208.5 -275.5t-327.5 -99.5q-141 0 -260 63t-195 173q-78 -110 -199.5 -172t-267.5 -62q-166 0 -301.5 75t-212 207.5t-76.5 295.5q0 165 77 297.5t212 207.5t301 75
q146 0 267.5 -62.5t199.5 -172.5q76 110 195 172.5t260 62.5q160 0 289.5 -76t201.5 -208.5t72 -296.5zM1593 929q-129 0 -218.5 -72.5t-117.5 -197.5h673q-29 126 -119 198t-218 72zM671 190q155 0 256 102t101 261t-101 261t-256 102q-156 0 -257.5 -102t-101.5 -261
t101.5 -261t257.5 -102z" />
    <glyph glyph-name="Racute" unicode="&#x154;" horiz-adv-x="1333" 
d="M890 1876l-201 -290h-176l135 290h242zM998 0l-308 531h-272v-531h-236v1434h558q208 0 345 -128t137 -326q0 -144 -79 -255.5t-212 -160.5l331 -564h-264zM418 1213v-462h309q116 0 186 64.5t70 166.5q0 101 -70.5 166t-185.5 65h-309z" />
    <glyph glyph-name="racute" unicode="&#x155;" horiz-adv-x="806" 
d="M727 1546l-194 -311h-175l127 311h242zM693 1112h98v-215h-120q-140 0 -211 -78t-71 -229v-590h-227v1106h154l38 -151q118 157 339 157z" />
    <glyph glyph-name="uni0156" unicode="&#x156;" horiz-adv-x="1333" 
d="M931 564l331 -564h-264l-308 531h-272v-531h-236v1434h558q208 0 345 -128t137 -326q0 -144 -79 -255.5t-212 -160.5zM418 1213v-462h309q116 0 186 64.5t70 166.5q0 101 -70.5 166t-185.5 65h-309zM580 -296v195h219v-178q0 -92 -58.5 -158.5t-150.5 -77.5v99
q48 7 74.5 39t26.5 81h-111z" />
    <glyph glyph-name="uni0157" unicode="&#x157;" horiz-adv-x="806" 
d="M693 1112h98v-215h-120q-140 0 -211 -78t-71 -229v-590h-227v1106h154l38 -151q118 157 339 157zM167 -296v195h219v-178q0 -92 -58.5 -158.5t-150.5 -77.5v99q48 7 74.5 39t26.5 81h-111z" />
    <glyph glyph-name="Rcaron" unicode="&#x158;" horiz-adv-x="1333" 
d="M744 1586h-258l-240 290h198l170 -168l173 168h197zM998 0l-308 531h-272v-531h-236v1434h558q208 0 345 -128t137 -326q0 -144 -79 -255.5t-212 -160.5l331 -564h-264zM418 1213v-462h309q116 0 186 64.5t70 166.5q0 101 -70.5 166t-185.5 65h-309z" />
    <glyph glyph-name="rcaron" unicode="&#x159;" horiz-adv-x="806" 
d="M602 1235h-259l-239 311h198l171 -181l173 181h197zM354 955q118 157 339 157h98v-215h-120q-140 0 -211 -78t-71 -229v-590h-227v1106h154z" />
    <glyph glyph-name="Sacute" unicode="&#x15a;" horiz-adv-x="1241" 
d="M497 1586l134 290h242l-201 -290h-175zM630 -22q-244 0 -392.5 127.5t-148.5 345.5h239q0 -116 84.5 -182t215.5 -66q119 0 201 58t82 154q0 21 -4 39.5t-14 34.5t-19 28.5t-28.5 24.5t-32 20.5t-39.5 18t-42 15t-47.5 14t-48 12t-51.5 12.5q-183 44 -264 83
q-182 88 -204 269q-4 28 -4 58q0 193 135.5 302t366.5 109q232 0 363.5 -118t131.5 -322h-232q0 104 -75.5 162.5t-192.5 58.5q-112 0 -186.5 -48.5t-74.5 -133.5q0 -32 10.5 -58t35 -46.5t48 -34.5t67 -28t73 -22t83.5 -21q185 -46 267 -85q187 -91 214 -273q5 -33 5 -69
q0 -139 -70.5 -240t-187.5 -150t-264 -49z" />
    <glyph glyph-name="sacute" unicode="&#x15b;" horiz-adv-x="1060" 
d="M413 1233l127 311h242l-194 -311h-175zM530 -27q-202 0 -324.5 103t-127.5 275h222q4 -85 69.5 -131.5t168.5 -46.5q94 0 155 38.5t61 105.5q0 30 -14.5 54t-35 38.5t-58 26.5t-67 18t-79.5 15q-51 9 -81 15t-78 19.5t-77.5 28.5t-64.5 40t-54.5 55.5t-33 74.5t-13.5 97
q0 149 118.5 241.5t310.5 92.5t308.5 -96.5t119.5 -257.5h-215q-3 78 -60 119.5t-158 41.5q-94 0 -149 -36.5t-55 -97.5q0 -24 8 -42.5t27.5 -32.5t37 -23t52 -17t56.5 -12.5t65 -11.5q162 -27 233 -57q170 -73 180 -257q1 -12 1 -26q0 -161 -123 -257.5t-325 -96.5z" />
    <glyph glyph-name="Scircumflex" unicode="&#x15c;" horiz-adv-x="1241" 
d="M968 1586h-198l-172 168l-170 -168h-198l239 290h259zM630 -22q-244 0 -392.5 127.5t-148.5 345.5h239q0 -116 84.5 -182t215.5 -66q119 0 201 58t82 154q0 21 -4 39.5t-14 34.5t-19 28.5t-28.5 24.5t-32 20.5t-39.5 18t-42 15t-47.5 14t-48 12t-51.5 12.5
q-183 44 -264 83q-182 88 -204 269q-4 28 -4 58q0 193 135.5 302t366.5 109q232 0 363.5 -118t131.5 -322h-232q0 104 -75.5 162.5t-192.5 58.5q-112 0 -186.5 -48.5t-74.5 -133.5q0 -32 10.5 -58t35 -46.5t48 -34.5t67 -28t73 -22t83.5 -21q185 -46 267 -85
q187 -91 214 -273q5 -33 5 -69q0 -139 -70.5 -240t-187.5 -150t-264 -49z" />
    <glyph glyph-name="scircumflex" unicode="&#x15d;" horiz-adv-x="1060" 
d="M901 1233h-198l-173 180l-171 -180h-198l240 311h258zM530 -27q-202 0 -324.5 103t-127.5 275h222q4 -85 69.5 -131.5t168.5 -46.5q94 0 155 38.5t61 105.5q0 30 -14.5 54t-35 38.5t-58 26.5t-67 18t-79.5 15q-51 9 -81 15t-78 19.5t-77.5 28.5t-64.5 40t-54.5 55.5
t-33 74.5t-13.5 97q0 149 118.5 241.5t310.5 92.5t308.5 -96.5t119.5 -257.5h-215q-3 78 -60 119.5t-158 41.5q-94 0 -149 -36.5t-55 -97.5q0 -24 8 -42.5t27.5 -32.5t37 -23t52 -17t56.5 -12.5t65 -11.5q162 -27 233 -57q170 -73 180 -257q1 -12 1 -26q0 -161 -123 -257.5
t-325 -96.5z" />
    <glyph glyph-name="Scedilla" unicode="&#x15e;" horiz-adv-x="1241" 
d="M1152 417q0 -191 -125 -304.5t-325 -131.5l-18 -69q83 -15 132 -66t49 -125q0 -90 -74 -148t-188 -58h-142v128h140q42 0 69 22t27 58q0 35 -27 57.5t-70 22.5h-68l-17 24l37 155q-212 21 -337.5 145.5t-125.5 323.5h239q0 -116 84.5 -182t215.5 -66q119 0 201 58t82 154
q0 21 -4 39.5t-14 34.5t-19 28.5t-28.5 24.5t-32 20.5t-39.5 18t-42 15t-47.5 14t-48 12t-51.5 12.5q-183 44 -264 83q-182 88 -204 269q-4 28 -4 58q0 193 135.5 302t366.5 109q232 0 363.5 -118t131.5 -322h-232q0 104 -75.5 162.5t-192.5 58.5q-112 0 -186.5 -48.5
t-74.5 -133.5q0 -32 10.5 -58t35 -46.5t48 -34.5t67 -28t73 -22t83.5 -21q185 -46 267 -85q187 -91 214 -273q5 -33 5 -69z" />
    <glyph glyph-name="scedilla" unicode="&#x15f;" horiz-adv-x="1060" 
d="M978 327q0 -145 -101 -239t-273 -111l-20 -71q86 -11 138 -63t52 -130q0 -90 -67.5 -146t-174.5 -56h-147v124h128q45 0 72.5 23.5t27.5 61.5q0 37 -27.5 60t-72.5 23h-65l-19 20l41 153q-177 15 -282.5 115.5t-109.5 259.5h222q4 -85 69.5 -131.5t168.5 -46.5
q94 0 155 38.5t61 105.5q0 30 -14.5 54t-35 38.5t-58 26.5t-67 18t-79.5 15q-51 9 -81 15t-78 19.5t-77.5 28.5t-64.5 40t-54.5 55.5t-33 74.5t-13.5 97q0 149 118.5 241.5t310.5 92.5t308.5 -97t119.5 -258h-215q-3 78 -60 120t-158 42q-94 0 -149 -36.5t-55 -97.5
q0 -24 8 -42.5t27.5 -32.5t37 -23t52 -17t56.5 -12.5t65 -11.5q162 -27 233 -57q170 -73 180 -257q1 -12 1 -26z" />
    <glyph glyph-name="Scaron" unicode="&#x160;" horiz-adv-x="1241" 
d="M770 1876h198l-240 -290h-259l-239 290h198l170 -168zM630 -22q-244 0 -392.5 127.5t-148.5 345.5h239q0 -116 84.5 -182t215.5 -66q119 0 201 58t82 154q0 21 -4 39.5t-14 34.5t-19 28.5t-28.5 24.5t-32 20.5t-39.5 18t-42 15t-47.5 14t-48 12t-51.5 12.5
q-183 44 -264 83q-182 88 -204 269q-4 28 -4 58q0 193 135.5 302t366.5 109q232 0 363.5 -118t131.5 -322h-232q0 104 -75.5 162.5t-192.5 58.5q-112 0 -186.5 -48.5t-74.5 -133.5q0 -32 10.5 -58t35 -46.5t48 -34.5t67 -28t73 -22t83.5 -21q185 -46 267 -85
q187 -91 214 -273q5 -33 5 -69q0 -139 -70.5 -240t-187.5 -150t-264 -49z" />
    <glyph glyph-name="scaron" unicode="&#x161;" horiz-adv-x="1060" 
d="M700 1544h198l-241 -311h-259l-239 311h197l172 -181zM530 -27q-202 0 -324.5 103t-127.5 275h222q4 -85 69.5 -131.5t168.5 -46.5q94 0 155 38.5t61 105.5q0 30 -14.5 54t-35 38.5t-58 26.5t-67 18t-79.5 15q-51 9 -81 15t-78 19.5t-77.5 28.5t-64.5 40t-54.5 55.5
t-33 74.5t-13.5 97q0 149 118.5 241.5t310.5 92.5t308.5 -96.5t119.5 -257.5h-215q-3 78 -60 119.5t-158 41.5q-94 0 -149 -36.5t-55 -97.5q0 -24 8 -42.5t27.5 -32.5t37 -23t52 -17t56.5 -12.5t65 -11.5q162 -27 233 -57q170 -73 180 -257q1 -12 1 -26q0 -161 -123 -257.5
t-325 -96.5z" />
    <glyph glyph-name="uni0162" unicode="&#x162;" horiz-adv-x="1163" 
d="M699 0h-48l-19 -75q83 -15 132 -66t49 -125q0 -90 -74 -147.5t-188 -57.5h-142v127h140q42 0 69 22t27 58q0 35 -27 57.5t-70 22.5h-67l-21 24l40 160h-36v1214h-420v220h1075v-220h-420v-1214z" />
    <glyph glyph-name="uni0163" unicode="&#x163;" horiz-adv-x="841" 
d="M612 0h-11l-21 -76q86 -11 137.5 -63t51.5 -130q0 -90 -67.5 -146t-174.5 -56h-147v124h128q45 0 73 23.5t28 60.5t-28 60.5t-73 23.5h-64l-19 20l48 178q-120 35 -186.5 133t-66.5 242v517h-198v41l388 412h36v-258h330v-195h-328v-499q0 -99 53.5 -152.5t153.5 -53.5
h127v-206h-170z" />
    <glyph glyph-name="Tcaron" unicode="&#x164;" horiz-adv-x="1163" 
d="M711 1586h-259l-239 290h197l170 -168l173 168h197zM1119 1434l1 -220h-421v-1214h-235v1214h-420v220h1075z" />
    <glyph glyph-name="tcaron" unicode="&#x165;" horiz-adv-x="876" 
d="M792 1502h219v-179q0 -92 -58.5 -158t-151.5 -77v99q48 7 75 39t27 81h-111v195zM448 412q0 -99 53.5 -152.5t153.5 -53.5h126v-206h-169q-182 0 -287 105.5t-105 288.5v517h-198v41l388 412h36v-258h300v-195h-298v-499z" />
    <glyph glyph-name="Tbar" unicode="&#x166;" horiz-adv-x="1163" 
d="M1119 1214h-420v-399h286v-205h-286v-610h-235v610h-278v205h278v399h-420v220h1075v-220z" />
    <glyph glyph-name="tbar" unicode="&#x167;" horiz-adv-x="878" 
d="M689 210h121v-210h-152q-190 0 -300 110.5t-110 300.5v65h-200v188h200v247h-198v44l385 409h39v-258h329v-195h-328v-247h328v-188h-328v-57q0 -102 55 -155.5t159 -53.5z" />
    <glyph glyph-name="Utilde" unicode="&#x168;" horiz-adv-x="1484" 
d="M890 1582q-45 0 -86 15.5t-62 30.5t-54 42q-24 19 -34 27t-29 17t-35 9q-37 0 -61.5 -30.5t-24.5 -81.5v-20h-134v26q0 121 58 192t160 71q41 0 78 -14t55 -26.5t49 -39.5q23 -21 36.5 -32t35.5 -20.5t45 -9.5q39 0 62 29.5t23 82.5v19h135v-23q0 -121 -58.5 -192.5
t-158.5 -71.5zM743 -27q-163 0 -294.5 71t-206.5 200t-75 292v898h236v-883q0 -158 95 -254.5t245 -96.5q149 0 243.5 96.5t94.5 254.5v883h237v-898q0 -163 -75 -292t-206 -200t-294 -71z" />
    <glyph glyph-name="utilde" unicode="&#x169;" horiz-adv-x="1294" 
d="M793 1240q-43 0 -84 16t-59 29t-53 41q-2 2 -10 8t-10.5 8t-9.5 7t-10 7t-9.5 6t-10 5.5t-9.5 4t-10.5 3.5t-10 2t-10.5 1q-36 0 -60 -30.5t-24 -78.5v-20h-132v25q0 120 57 190t157 70q41 0 78 -14t56.5 -28t48.5 -40q21 -19 35 -30t35 -20t43 -9q38 0 60.5 30.5
t22.5 80.5v19h133v-23q0 -119 -57.5 -189.5t-156.5 -70.5zM648 -27q-228 0 -365.5 135t-137.5 359v639h227v-607q0 -144 74 -226.5t202 -82.5t201.5 83t73.5 226v607h227v-639q0 -224 -137 -359t-365 -135z" />
    <glyph glyph-name="Umacron" unicode="&#x16a;" horiz-adv-x="1484" 
d="M423 1635v194h641v-194h-641zM743 -27q-163 0 -294.5 71t-206.5 200t-75 292v898h236v-883q0 -158 95 -255t245 -97q149 0 243.5 97t94.5 255v883h237v-898q0 -163 -75 -292t-206 -200t-294 -71z" />
    <glyph glyph-name="umacron" unicode="&#x16b;" horiz-adv-x="1294" 
d="M326 1301v179h641v-179h-641zM648 -27q-228 0 -365.5 135t-137.5 359v639h227v-607q0 -144 74 -226.5t202 -82.5t201.5 83t73.5 226v607h227v-639q0 -224 -137 -359t-365 -135z" />
    <glyph glyph-name="Ubreve" unicode="&#x16c;" horiz-adv-x="1484" 
d="M743 1572q-149 0 -240 83t-91 222h177v-8q0 -69 41 -107.5t112 -38.5q70 0 110.5 38.5t40.5 107.5v8h181q0 -139 -91 -222t-240 -83zM743 -27q-163 0 -294.5 71t-206.5 200t-75 292v898h236v-883q0 -158 95 -255t245 -97q149 0 243.5 97t94.5 255v883h237v-898
q0 -163 -75 -292t-206 -200t-294 -71z" />
    <glyph glyph-name="ubreve" unicode="&#x16d;" horiz-adv-x="1294" 
d="M648 1219q-155 0 -249 88t-94 237h176v-7q0 -78 45.5 -122.5t121.5 -44.5t119 44t43 123v7h181q0 -149 -94 -237t-249 -88zM648 -27q-228 0 -365.5 135t-137.5 359v639h227v-607q0 -144 74 -226.5t202 -82.5t201.5 83t73.5 226v607h227v-639q0 -224 -137 -359t-365 -135z
" />
    <glyph glyph-name="Uring" unicode="&#x16e;" horiz-adv-x="1484" 
d="M743 1547q-116 0 -189 69t-73 177q0 109 73 177t189 68q115 0 187 -68t72 -177q0 -108 -72 -177t-187 -69zM743 1671q55 0 90 34.5t35 87.5q0 54 -35 87.5t-90 33.5q-57 0 -92.5 -33.5t-35.5 -87.5q0 -53 36 -87.5t92 -34.5zM743 -27q-163 0 -294.5 71t-206.5 200
t-75 292v898h236v-883q0 -158 95 -255t245 -97q149 0 243.5 97t94.5 255v883h237v-898q0 -163 -75 -292t-206 -200t-294 -71z" />
    <glyph glyph-name="uring" unicode="&#x16f;" horiz-adv-x="1294" 
d="M648 1203q-109 0 -177 65t-68 167q0 103 68 167t177 64t177 -64t68 -167q0 -102 -68 -167t-177 -65zM648 1321q52 0 85.5 32t33.5 82q0 51 -33.5 83t-85.5 32t-86 -32t-34 -83q0 -50 34 -82t86 -32zM648 -27q-228 0 -365.5 135t-137.5 359v639h227v-607q0 -144 74 -226.5
t202 -82.5t201.5 83t73.5 226v607h227v-639q0 -224 -137 -359t-365 -135z" />
    <glyph glyph-name="Uhungarumlaut" unicode="&#x170;" horiz-adv-x="1484" 
d="M460 1586l114 290h214l-168 -290h-160zM820 1586l160 290h224l-222 -290h-162zM743 -27q-163 0 -294.5 71t-206.5 200t-75 292v898h236v-883q0 -158 95 -255t245 -97q149 0 243.5 97t94.5 255v883h237v-898q0 -163 -75 -292t-206 -200t-294 -71z" />
    <glyph glyph-name="uhungarumlaut" unicode="&#x171;" horiz-adv-x="1294" 
d="M359 1233l114 311h228l-173 -311h-169zM738 1233l155 311h220l-209 -311h-166zM648 -27q-228 0 -365.5 135t-137.5 359v639h227v-607q0 -144 74 -226.5t202 -82.5t201.5 83t73.5 226v607h227v-639q0 -224 -137 -359t-365 -135z" />
    <glyph glyph-name="Uogonek" unicode="&#x172;" horiz-adv-x="1482" 
d="M1081 1434h235v-892q0 -86 -20.5 -160t-53 -127.5t-81 -99.5t-96 -76.5t-105.5 -58.5q-85 -41 -137.5 -97.5t-52.5 -121.5q0 -57 41 -88t105 -31q52 0 105 24v-130q-83 -46 -183 -46q-111 0 -186.5 58.5t-75.5 159.5q0 58 29.5 121.5t80.5 110.5q-228 18 -373.5 174
t-145.5 388v892h235v-882q0 -156 94.5 -251t244.5 -95t245 95t95 251v882z" />
    <glyph glyph-name="uogonek" unicode="&#x173;" horiz-adv-x="1292" 
d="M920 1106h228v-638q0 -144 -63.5 -249t-200.5 -189q-165 -100 -165 -214q0 -57 38.5 -88t101.5 -31q46 0 112 22v-130q-80 -46 -172 -46q-106 0 -177.5 59.5t-71.5 160.5q0 113 80 213h-4q-208 1 -344.5 141t-136.5 357v632h227v-609q0 -142 72.5 -223t200.5 -81
t201.5 81t73.5 223v609z" />
    <glyph glyph-name="Wcircumflex" unicode="&#x174;" horiz-adv-x="2115" 
d="M1053 1754l-170 -168h-198l239 290h259l240 -290h-198zM1828 1434h247l-448 -1434h-208l-363 925l-353 -925h-209l-457 1434h249l324 -1059l402 1038h87l413 -1038z" />
    <glyph glyph-name="wcircumflex" unicode="&#x175;" horiz-adv-x="1740" 
d="M868 1413l-171 -180h-197l239 311h259l241 -311h-198zM1482 1106h228l-371 -1106h-184l-285 673l-284 -673h-184l-370 1106h234l250 -745l317 733h74l321 -739z" />
    <glyph glyph-name="Ycircumflex" unicode="&#x176;" horiz-adv-x="1366" 
d="M682 1754l-170 -168h-197l239 290h259l240 -290h-198zM1322 1434l-519 -860v-574h-242v575l-514 859h254l383 -642l384 642h254z" />
    <glyph glyph-name="ycircumflex" unicode="&#x177;" horiz-adv-x="1214" 
d="M614 1413l-171 -180h-198l239 311h259l241 -311h-197zM951 1106h242l-508 -1126q-95 -211 -194 -293.5t-266 -82.5h-113v204h95q108 0 159 42.5t113 177.5l25 52l-481 1026h247l351 -771z" />
    <glyph glyph-name="Ydieresis" unicode="&#x178;" horiz-adv-x="1366" 
d="M330 1594v234h249v-234h-249zM789 1594v234h249v-234h-249zM1322 1434l-519 -860v-574h-242v575l-514 859h254l383 -642l384 642h254z" />
    <glyph glyph-name="Zacute" unicode="&#x179;" horiz-adv-x="1171" 
d="M889 1876l-201 -290h-175l134 290h242zM419 219h697v-219h-1063v37l679 1177h-645v220h1007v-44z" />
    <glyph glyph-name="zacute" unicode="&#x17a;" horiz-adv-x="1003" 
d="M769 1544l-194 -311h-175l127 311h242zM403 211h532v-211h-887v29l536 869h-494v208h844v-34z" />
    <glyph glyph-name="Zdotaccent" unicode="&#x17b;" horiz-adv-x="1171" 
d="M740 1828v-233h-248v233h248zM419 219h697v-219h-1063v37l679 1177h-645v220h1007v-44z" />
    <glyph glyph-name="zdotaccent" unicode="&#x17c;" horiz-adv-x="1003" 
d="M633 1512v-237h-235v237h235zM403 211h532v-211h-887v29l536 869h-494v208h844v-34z" />
    <glyph glyph-name="Zcaron" unicode="&#x17d;" horiz-adv-x="1171" 
d="M744 1586h-258l-240 290h198l170 -168l172 168h198zM419 219h697v-219h-1063v37l679 1177h-645v220h1007v-44z" />
    <glyph glyph-name="zcaron" unicode="&#x17e;" horiz-adv-x="1003" 
d="M644 1233h-259l-239 311h198l171 -181l172 181h198zM403 211h532v-211h-887v29l536 869h-494v208h844v-34z" />
    <glyph glyph-name="longs" unicode="&#x17f;" horiz-adv-x="591" 
d="M162 0v1192q0 145 82 226t229 81h216v-207h-147q-78 0 -115.5 -37t-37.5 -113v-1142h-227z" />
    <glyph glyph-name="florin" unicode="&#x192;" horiz-adv-x="909" 
d="M706 1206q-67 0 -113 -38t-53 -101l-20 -149h291l-24 -173h-285l-126 -881q-19 -140 -117 -224.5t-241 -84.5h-136l27 197h76q73 0 121.5 42.5t59.5 116.5l117 834h-190l25 173h189l24 173q17 127 108.5 204t225.5 77h207l-21 -166h-145z" />
    <glyph glyph-name="AEacute" unicode="&#x1fc;" horiz-adv-x="1863" 
d="M1334 1876l-201 -290h-175l134 290h242zM1146 222h617v-222h-854v296h-492l-174 -296h-276l851 1434h922v-220h-594v-375h541v-216h-541v-401zM541 507h368v624z" />
    <glyph glyph-name="aeacute" unicode="&#x1fd;" horiz-adv-x="2228" 
d="M1388 1544l-194 -311h-175l127 311h242zM2150 552q0 -42 -4 -77h-902q22 -132 113 -208.5t229 -76.5q99 0 177 41t121 117h239q-65 -174 -207 -274t-325 -100q-113 0 -211.5 42.5t-170.5 120.5l-10 -140h-154l-10 130q-154 -152 -378 -152q-162 0 -294 76t-207 208.5
t-75 293.5q0 163 75 295.5t207 207.5t294 75q226 0 380 -154l11 132h150l11 -141q153 163 382 163q159 0 287.5 -76t200 -208.5t71.5 -294.5zM1586 928q-130 0 -219 -72t-117 -196h673q-29 125 -119 196.5t-218 71.5zM669 192q155 0 255.5 102t100.5 259t-100.5 259
t-255.5 102q-154 0 -255 -102.5t-101 -258.5t101 -258.5t255 -102.5z" />
    <glyph glyph-name="Oslashacute" unicode="&#x1fe;" horiz-adv-x="1712" 
d="M1127 1876l-201 -290h-176l135 290h242zM1333 1298q135 -101 211 -253.5t76 -333.5q0 -207 -97.5 -375t-270 -263.5t-385.5 -95.5q-157 0 -294 54l-95 -158h-255l160 257q-138 100 -216 253t-78 334q0 156 58 293.5t158 235.5t240.5 155t299.5 57q156 0 299 -58l95 161
h254zM845 1231q-220 0 -368 -147t-148 -365q0 -118 48 -220t133 -172l521 874q-87 30 -186 30zM861 203q146 0 264 66t185.5 182.5t67.5 260.5q0 117 -45 217.5t-125 170.5l-519 -869q86 -28 172 -28z" />
    <glyph glyph-name="oslashacute" unicode="&#x1ff;" horiz-adv-x="1357" 
d="M932 1544l-194 -311h-175l127 311h242zM1033 1021q114 -78 178.5 -200t64.5 -270q0 -121 -44.5 -227.5t-121 -182.5t-184 -120t-230.5 -44q-113 0 -216 39l-78 -141h-209l122 217q-110 77 -172.5 197.5t-62.5 265.5q0 162 76 293.5t210 206.5t298 75q104 0 200 -34
l72 135h209zM664 925q-160 0 -262 -104.5t-102 -265.5q0 -180 121 -282l349 637q-50 15 -106 15zM696 182q157 0 259 104t102 265q0 181 -129 285l-350 -635q57 -19 118 -19z" />
    <glyph glyph-name="uni0218" unicode="&#x218;" horiz-adv-x="1241" 
d="M630 -22q-244 0 -392.5 127.5t-148.5 345.5h239q0 -116 84.5 -182t215.5 -66q119 0 201 58t82 154q0 21 -4 39.5t-14 34.5t-19 28.5t-28.5 24.5t-32 20.5t-39.5 18t-42 15t-47.5 14t-48 12t-51.5 12.5q-183 44 -264 83q-182 88 -204 269q-4 28 -4 58q0 193 135.5 302
t366.5 109q232 0 363.5 -118t131.5 -322h-232q0 104 -75.5 162.5t-192.5 58.5q-112 0 -186.5 -48.5t-74.5 -133.5q0 -32 10.5 -58t35 -46.5t48 -34.5t67 -28t73 -22t83.5 -21q185 -46 267 -85q187 -91 214 -273q5 -33 5 -69q0 -139 -70.5 -240t-187.5 -150t-264 -49z
M555 -528v99q48 7 74.5 39t26.5 81h-111v195h219v-179q0 -92 -58 -158t-151 -77z" />
    <glyph glyph-name="uni0219" unicode="&#x219;" horiz-adv-x="1060" 
d="M530 -27q-202 0 -324.5 103t-127.5 275h222q4 -85 69.5 -131.5t168.5 -46.5q94 0 155 38.5t61 105.5q0 30 -14.5 54t-35 38.5t-58 26.5t-67 18t-79.5 15q-51 9 -81 15t-78 19.5t-77.5 28.5t-64.5 40t-54.5 55.5t-33 74.5t-13.5 97q0 149 118.5 241.5t310.5 92.5
t308.5 -96.5t119.5 -257.5h-215q-3 78 -60 119.5t-158 41.5q-94 0 -149 -36.5t-55 -97.5q0 -24 8 -42.5t27.5 -32.5t37 -23t52 -17t56.5 -12.5t65 -11.5q162 -27 233 -57q170 -73 180 -257q1 -12 1 -26q0 -161 -123 -257.5t-325 -96.5zM463 -532l-1 99q48 7 75 39t27 81
h-111v195h219v-179q0 -92 -58 -158t-151 -77z" />
    <glyph glyph-name="uni021A" unicode="&#x21a;" horiz-adv-x="1163" 
d="M1119 1434l1 -220h-421v-1214h-235v1214h-420v220h1075zM472 -296v195h219v-178q0 -92 -58.5 -158.5t-151.5 -77.5v99q48 7 75 39t27 81h-111z" />
    <glyph glyph-name="uni021B" unicode="&#x21b;" horiz-adv-x="839" 
d="M655 206h126v-206h-169q-182 0 -287 105.5t-105 288.5v517h-198v44l385 409h39v-258h329v-195h-327v-499q0 -99 53.5 -152.5t153.5 -53.5zM393 -296v195h219v-178q0 -92 -58.5 -158.5t-150.5 -77.5v99q48 7 74.5 39t26.5 81h-111z" />
    <glyph glyph-name="circumflex" unicode="&#x2c6;" horiz-adv-x="1228" 
d="M1017 1233h-198l-173 180l-171 -180h-197l239 311h258z" />
    <glyph glyph-name="caron" unicode="&#x2c7;" horiz-adv-x="1228" 
d="M758 1544h197l-241 -311h-259l-239 311h198l171 -181z" />
    <glyph glyph-name="breve" unicode="&#x2d8;" horiz-adv-x="1228" 
d="M555 1219q-155 0 -249 88t-94 237h176v-7q0 -78 45.5 -122.5t121.5 -44.5t119 44t43 123v7h181q0 -149 -94 -237t-249 -88z" />
    <glyph glyph-name="dotaccent" unicode="&#x2d9;" horiz-adv-x="651" 
d="M209 1275v237h235v-237h-235z" />
    <glyph glyph-name="ring" unicode="&#x2da;" horiz-adv-x="839" 
d="M420 1203q-109 0 -177 65t-68 167q0 103 68 167t177 64t177 -64t68 -167q0 -102 -68 -167t-177 -65zM420 1321q52 0 85.5 32t33.5 82q0 51 -33.5 83t-85.5 32t-86 -32t-34 -83q0 -50 34 -82t86 -32z" />
    <glyph glyph-name="ogonek" unicode="&#x2db;" horiz-adv-x="886" 
d="M468 -469q-110 0 -179.5 61t-69.5 156q0 123 111.5 234.5t287.5 165.5l3 -120q-105 -25 -170.5 -88.5t-65.5 -138.5q0 -53 39.5 -86t104.5 -33q52 0 106 24v-130q-79 -45 -167 -45z" />
    <glyph glyph-name="tilde" unicode="&#x2dc;" horiz-adv-x="1228" 
d="M756 1240q-43 0 -84 16t-59 29t-53 41q-2 2 -10 8t-10.5 8t-9.5 7t-10 7t-9.5 6t-10 5.5t-9.5 4t-10.5 3.5t-10 2t-10.5 1q-36 0 -60 -30.5t-24 -78.5v-20h-132v25q0 120 57 190t157 70q41 0 78 -14t56.5 -28t48.5 -40q21 -19 35 -30t35 -20t43 -9q37 0 59.5 30.5
t22.5 80.5v19h134v-23q0 -119 -57.5 -189.5t-156.5 -70.5z" />
    <glyph glyph-name="hungarumlaut" unicode="&#x2dd;" horiz-adv-x="1153" 
d="M190 1233l114 311h229l-174 -311h-169zM569 1233l155 311h220l-208 -311h-167z" />
    <glyph glyph-name="gravecomb" unicode="&#x300;" 
d="M-180 1233h-175l-193 311h241z" />
    <glyph glyph-name="acutecomb" unicode="&#x301;" 
d="M-574 1233l127 311h242l-194 -311h-175z" />
    <glyph glyph-name="uni0302" unicode="&#x302;" 
d="M-278 1233h-197l-173 180l-171 -180h-198l239 311h259z" />
    <glyph glyph-name="tildecomb" unicode="&#x303;" 
d="M-473 1240q-43 0 -84 16t-59 29t-53 41q-2 2 -10 8t-10.5 8t-9.5 7t-10 7t-9.5 6t-10 5.5t-9.5 4t-10.5 3.5t-10 2t-10.5 1q-36 0 -60 -30.5t-24 -78.5v-20h-132v25q0 120 57 190t157 70q41 0 78 -14t56.5 -28t48.5 -40q21 -19 35 -30t35 -20t43 -9q38 0 60.5 30.5
t22.5 80.5v19h133v-23q0 -119 -57.5 -189.5t-156.5 -70.5z" />
    <glyph glyph-name="uni0304" unicode="&#x304;" 
d="M-840 1301v179h641v-179h-641z" />
    <glyph glyph-name="uni0306" unicode="&#x306;" 
d="M-549 1219q-155 0 -249 88t-94 237h176v-7q0 -78 45.5 -122.5t121.5 -44.5t119 44t43 123v7h181q0 -149 -94 -237t-249 -88z" />
    <glyph glyph-name="uni0307" unicode="&#x307;" 
d="M-442 1275v237h235v-237h-235z" />
    <glyph glyph-name="uni0308" unicode="&#x308;" 
d="M-878 1275v237h250v-237h-250zM-445 1275v237h250v-237h-250z" />
    <glyph glyph-name="uni030A" unicode="&#x30a;" 
d="M-420 1203q-109 0 -177 65t-68 167q0 103 68 167t177 64t177 -64t68 -167q0 -102 -68 -167t-177 -65zM-420 1321q52 0 85.5 32t33.5 82q0 51 -33.5 83t-85.5 32t-85.5 -32t-33.5 -83q0 -50 33.5 -82t85.5 -32z" />
    <glyph glyph-name="uni030B" unicode="&#x30b;" 
d="M-1029 1233l114 311h228l-173 -311h-169zM-650 1233l155 311h220l-208 -311h-167z" />
    <glyph glyph-name="uni030C" unicode="&#x30c;" 
d="M-471 1544h198l-242 -311h-258l-240 311h198l171 -181z" />
    <glyph glyph-name="uni0312" unicode="&#x312;" 
d="M-663 1465h111v-195h-219v179q0 92 58.5 158t151.5 77v-99q-48 -7 -74.5 -39t-27.5 -81z" />
    <glyph glyph-name="uni0326" unicode="&#x326;" 
d="M-281 -515v99q48 7 75 39t27 81h-111v195h219v-178q0 -92 -58.5 -158.5t-151.5 -77.5z" />
    <glyph glyph-name="uni0327" unicode="&#x327;" 
d="M-389 -76q86 -11 137.5 -63t51.5 -130q0 -90 -67.5 -146t-174.5 -56h-147v124h128q45 0 73 23.5t28 60.5t-28 60.5t-73 23.5h-64l-19 20l64 237h134z" />
    <glyph glyph-name="uni0328" unicode="&#x328;" 
d="M-419 -469q-110 0 -179 60.5t-69 156.5q0 123 111 234.5t287 165.5l3 -120q-105 -25 -170.5 -88.5t-65.5 -138.5q0 -53 39.5 -86t104.5 -33q52 0 106 24v-130q-79 -45 -167 -45z" />
    <glyph glyph-name="uni0335" unicode="&#x335;" 
d="M-1023 1240v172h772v-172h-772z" />
    <glyph glyph-name="uni0337" unicode="&#x337;" 
d="M-831 465v209l605 342v-209z" />
    <glyph glyph-name="tonos" unicode="&#x384;" horiz-adv-x="778" 
d="M205 1233l127 311h242l-194 -311h-175z" />
    <glyph glyph-name="dieresistonos" unicode="&#x385;" horiz-adv-x="956" 
d="M318 1232l89 311h214l-132 -311h-171zM70 1300v189h188v-189h-188zM676 1300v189h189v-189h-189z" />
    <glyph glyph-name="Alphatonos" unicode="&#x386;" horiz-adv-x="1445" 
d="M1162 0l-123 312h-640l-122 -312h-250l576 1434h222l593 -1434h-256zM92 1137l132 297h244l-201 -297h-175zM717 1127l-236 -604h476z" />
    <glyph glyph-name="Epsilontonos" unicode="&#x388;" horiz-adv-x="1138" 
d="M-249 1137l132 297h244l-201 -297h-175zM418 222h619v-222h-855v1434h833v-221h-597v-374h544v-216h-544v-401z" />
    <glyph glyph-name="Etatonos" unicode="&#x389;" horiz-adv-x="1490" 
d="M-249 1137l132 297h244l-201 -297h-175zM1073 1434h236v-1434h-236v625h-655v-625h-236v1434h236v-586h655v586z" />
    <glyph glyph-name="Iotatonos" unicode="&#x38a;" horiz-adv-x="600" 
d="M-252 1137l132 297h244l-201 -297h-175zM182 0v1434h236v-1434h-236z" />
    <glyph glyph-name="Omicrontonos" unicode="&#x38c;" horiz-adv-x="1691" 
d="M847 -27q-214 0 -387.5 97t-271.5 267t-98 380t98 380t271.5 267t387.5 97t387 -97t270.5 -267t97.5 -380t-97.5 -380t-270.5 -267t-387 -97zM-98 1137l133 297h243l-201 -297h-175zM847 200q222 0 369 147.5t147 369.5t-147 369.5t-369 147.5q-146 0 -264.5 -67.5
t-185.5 -186t-67 -263.5t67 -263.5t185.5 -186t264.5 -67.5z" />
    <glyph glyph-name="Upsilontonos" unicode="&#x38e;" horiz-adv-x="1366" 
d="M1068 1434h254l-519 -860v-574h-242v575l-512 855l-199 -293h-175l133 297h493l383 -642z" />
    <glyph glyph-name="Omegatonos" unicode="&#x38f;" horiz-adv-x="1771" 
d="M1395 219h257v-219h-649v214q181 62 287.5 205t106.5 324q0 207 -148.5 349t-363.5 142q-105 0 -199.5 -38t-162.5 -103.5t-108 -156.5t-40 -193q0 -181 105.5 -324t286.5 -205v-214h-648v219h257q-116 106 -179 244t-63 298q0 194 99.5 355t272 253t379.5 92t380 -92
t273 -253t100 -355q0 -321 -243 -542zM66 1434h244l-201 -297h-176z" />
    <glyph glyph-name="iotadieresistonos" unicode="&#x390;" horiz-adv-x="716" 
d="M184 1232l71 311h200l-125 -311h-146zM-62 1300v189h188v-189h-188zM504 1300v189h188v-189h-188zM547 -6q-186 0 -292 103.5t-106 284.5v724h227v-705q0 -95 54 -147t152 -52h107v-208h-142z" />
    <glyph glyph-name="Alpha" unicode="&#x391;" horiz-adv-x="1445" 
d="M1162 0l-123 312h-640l-122 -312h-250l576 1434h222l593 -1434h-256zM717 1127l-236 -604h476z" />
    <glyph glyph-name="Beta" unicode="&#x392;" horiz-adv-x="1318" 
d="M1009 747q96 -45 150 -137t54 -208q0 -169 -128 -285.5t-314 -116.5h-589v1434h578q180 0 298 -105t118 -264q0 -94 -45 -181t-122 -137zM941 1031q0 80 -55 133t-140 53h-332v-373h332q85 0 140 53.5t55 133.5zM758 225q94 0 154.5 57t60.5 146q0 87 -61 144.5
t-154 57.5h-344v-405h344z" />
    <glyph glyph-name="Gamma" unicode="&#x393;" horiz-adv-x="1013" 
d="M971 1434v-220h-553v-1214h-236v1434h789z" />
    <glyph glyph-name="uni0394" unicode="&#x394;" horiz-adv-x="1447" 
d="M819 1434l607 -1434h-1395l584 1434h204zM718 1100l-340 -881h686z" />
    <glyph glyph-name="Epsilon" unicode="&#x395;" horiz-adv-x="1138" 
d="M418 222h619v-222h-855v1434h833v-221h-597v-374h544v-216h-544v-401z" />
    <glyph glyph-name="Zeta" unicode="&#x396;" horiz-adv-x="1171" 
d="M419 219h697v-219h-1063v37l679 1177h-645v220h1007v-44z" />
    <glyph glyph-name="Eta" unicode="&#x397;" horiz-adv-x="1490" 
d="M1073 1434h236v-1434h-236v625h-655v-625h-236v1434h236v-586h655v586z" />
    <glyph glyph-name="Theta" unicode="&#x398;" horiz-adv-x="1693" 
d="M847 -27q-213 0 -386 96.5t-271.5 266.5t-98.5 379q0 157 58 295.5t158 237.5t240 156t300 57q213 0 386 -97t271 -267.5t98 -381.5q0 -210 -98 -380t-270.5 -266t-386.5 -96zM847 199q220 0 368 148t148 370t-148 369.5t-368 147.5t-368.5 -148t-148.5 -369
q0 -224 144.5 -371t372.5 -147zM498 610v219h694v-219h-694z" />
    <glyph glyph-name="Iota" unicode="&#x399;" horiz-adv-x="600" 
d="M182 0v1434h236v-1434h-236z" />
    <glyph glyph-name="Kappa" unicode="&#x39a;" horiz-adv-x="1320" 
d="M1035 0l-449 629h-168v-629h-236v1434h236v-586h167l408 586h289l-489 -692l534 -742h-292z" />
    <glyph glyph-name="Lambda" unicode="&#x39b;" horiz-adv-x="1392" 
d="M1359 0h-255l-407 1107l-417 -1107h-247l553 1434h221z" />
    <glyph glyph-name="Mu" unicode="&#x39c;" horiz-adv-x="1974" 
d="M1890 0h-240l-166 1039l-466 -1017h-60l-467 1016l-168 -1038h-240l235 1434h231l437 -975l439 975h235z" />
    <glyph glyph-name="Nu" unicode="&#x39d;" horiz-adv-x="1538" 
d="M1125 1434h230v-1434h-197l-745 1024v-1024h-231v1434h213l730 -1007v1007z" />
    <glyph glyph-name="Xi" unicode="&#x39e;" horiz-adv-x="1157" 
d="M116 1204v230h926v-230h-926zM195 623v222h768v-222h-768zM99 0v233h958v-233h-958z" />
    <glyph glyph-name="Omicron" unicode="&#x39f;" horiz-adv-x="1691" 
d="M847 -27q-214 0 -387.5 97t-271.5 267t-98 380t98 380t271.5 267t387.5 97t387 -97t270.5 -267t97.5 -380t-97.5 -380t-270.5 -267t-387 -97zM847 200q222 0 369 147.5t147 369.5t-147 369.5t-369 147.5q-146 0 -264.5 -67.5t-185.5 -186t-67 -263.5t67 -263.5
t185.5 -186t264.5 -67.5z" />
    <glyph glyph-name="Pi" unicode="&#x3a0;" horiz-adv-x="1439" 
d="M182 1434h1076v-1434h-237v1214h-603v-1214h-236v1434z" />
    <glyph glyph-name="Rho" unicode="&#x3a1;" horiz-adv-x="1259" 
d="M712 1434q209 0 349 -135t140 -339q0 -203 -140 -338t-349 -135h-294v-487h-236v1434h530zM701 710q114 0 187.5 71t73.5 179t-73.5 179t-187.5 71h-283v-500h283z" />
    <glyph glyph-name="Sigma" unicode="&#x3a3;" horiz-adv-x="1159" 
d="M446 219h634v-219h-1041v47l497 680l-484 659v48h1009v-220h-601l346 -471v-33z" />
    <glyph glyph-name="Tau" unicode="&#x3a4;" horiz-adv-x="1163" 
d="M1119 1434l1 -220h-421v-1214h-235v1214h-420v220h1075z" />
    <glyph glyph-name="Upsilon" unicode="&#x3a5;" horiz-adv-x="1366" 
d="M1322 1434l-519 -860v-574h-242v575l-514 859h254l383 -642l384 642h254z" />
    <glyph glyph-name="Phi" unicode="&#x3a6;" horiz-adv-x="1806" 
d="M1713 719q0 -142 -47 -271.5t-133.5 -231.5t-220 -166.5t-295.5 -73.5v-219h-229v219q-161 9 -294.5 74t-220 166.5t-134 230t-47.5 268.5q0 141 47.5 270t134 231t220 167t294.5 74v193h229v-192q162 -9 295.5 -73t220 -165.5t133.5 -230.5t47 -270zM1016 199
q105 9 192.5 55t145 116.5t89 160t31.5 186.5q0 130 -53.5 241.5t-159.5 186.5t-245 87v-1033zM331 717q0 -201 125 -350t333 -168v1033q-139 -13 -244.5 -87.5t-159.5 -186t-54 -241.5z" />
    <glyph glyph-name="Chi" unicode="&#x3a7;" horiz-adv-x="1251" 
d="M1239 0h-264l-348 559l-348 -559h-266l470 752l-436 682h265l315 -504l313 504h262l-432 -691z" />
    <glyph glyph-name="Psi" unicode="&#x3a8;" horiz-adv-x="1650" 
d="M1314 1434h236v-511q0 -255 -165 -415.5t-426 -160.5h-14v-347h-237v347h-14q-261 0 -425.5 160.5t-164.5 415.5v511h235v-490q0 -167 96.5 -264.5t261.5 -97.5h16v852h227v-852h16q165 0 261.5 97.5t96.5 264.5v490z" />
    <glyph glyph-name="uni03A9" unicode="&#x3a9;" horiz-adv-x="1771" 
d="M1395 219h257v-219h-649v214q181 62 287.5 205t106.5 324q0 207 -148.5 349t-363.5 142q-105 0 -199.5 -38t-162.5 -103.5t-108 -156.5t-40 -193q0 -181 105.5 -324t286.5 -205v-214h-648v219h257q-116 106 -179 244t-63 298q0 194 99.5 355t272 253t379.5 92t380 -92
t273 -253t100 -355q0 -321 -243 -542z" />
    <glyph glyph-name="Iotadieresis" unicode="&#x3aa;" horiz-adv-x="600" 
d="M26 1594v234h225v-234h-225zM351 1594v234h225v-234h-225zM182 0v1434h236v-1434h-236z" />
    <glyph glyph-name="Upsilondieresis" unicode="&#x3ab;" horiz-adv-x="1366" 
d="M330 1594v234h249v-234h-249zM789 1594v234h249v-234h-249zM1322 1434l-519 -860v-574h-242v575l-514 859h254l383 -642l384 642h254z" />
    <glyph glyph-name="alphatonos" unicode="&#x3ac;" horiz-adv-x="1425" 
d="M960 1543l-194 -311h-175l127 311h242zM1088 1107l175 -1v-1105h-183l-22 134q-76 -77 -179 -119.5t-222 -42.5q-162 0 -294 75.5t-207 209t-75 296.5q0 164 75 296.5t207 207.5t294 75q120 0 224 -43t180 -122zM674 191q156 0 258.5 103.5t102.5 259.5t-102.5 259
t-258.5 103t-259 -103.5t-103 -258.5q0 -156 103 -259.5t259 -103.5z" />
    <glyph glyph-name="epsilontonos" unicode="&#x3ad;" horiz-adv-x="1011" 
d="M784 1543l-193 -311h-176l127 311h242zM744 337h211q-10 -165 -128 -264t-303 -99q-193 0 -315.5 100t-122.5 258q0 179 148 261q-118 80 -118 223q0 138 114.5 227t289.5 89q174 0 287 -89t122 -234h-208q-10 67 -62 105.5t-133 38.5q-88 0 -140.5 -40.5t-52.5 -107.5
q0 -63 45.5 -101t121.5 -38h144v-167h-144q-86 0 -138 -43.5t-52 -113.5q0 -74 59 -119t155 -45q95 0 154 43t66 116z" />
    <glyph glyph-name="etatonos" unicode="&#x3ae;" horiz-adv-x="1314" 
d="M973 1543l-194 -311h-175l127 311h242zM749 1133q193 0 305.5 -125t112.5 -340v-1064h-227v1012q0 151 -65 229.5t-189 78.5q-130 0 -213.5 -94.5t-83.5 -240.5v-589h-227v1106h158l44 -154q64 85 164 133t221 48z" />
    <glyph glyph-name="iotatonos" unicode="&#x3af;" horiz-adv-x="716" 
d="M163 1232l127 311h242l-194 -311h-175zM547 -6q-186 0 -292 103.5t-106 284.5v724h227v-705q0 -95 54 -147t152 -52h107v-208h-142z" />
    <glyph glyph-name="upsilondieresistonos" unicode="&#x3b0;" horiz-adv-x="1294" 
d="M508 1232l90 311h214l-133 -311h-171zM260 1300v189h189v-189h-189zM867 1300v189h188v-189h-188zM648 -27q-228 0 -365.5 135t-137.5 359v639h227v-607q0 -144 74 -226.5t202 -82.5t201.5 83t73.5 226v607h227v-639q0 -224 -137 -359t-365 -135z" />
    <glyph glyph-name="alpha" unicode="&#x3b1;" horiz-adv-x="1425" 
d="M1088 1107l175 -1v-1105h-183l-22 134q-76 -77 -179 -119.5t-222 -42.5q-162 0 -294 75.5t-207 209t-75 296.5q0 164 75 296.5t207 207.5t294 75q120 0 224 -43t180 -122zM674 191q156 0 258.5 103.5t102.5 259.5t-102.5 259t-258.5 103t-259 -103.5t-103 -258.5
q0 -156 103 -259.5t259 -103.5z" />
    <glyph glyph-name="beta" unicode="&#x3b2;" horiz-adv-x="1273" 
d="M971 791q106 -48 162.5 -142.5t56.5 -223.5q0 -193 -146.5 -319t-370.5 -126q-151 0 -284 58v-417h-227v1340q0 267 132 416.5t370 149.5q204 0 338 -115t134 -296q0 -107 -42.5 -190.5t-122.5 -134.5zM659 193q143 0 226.5 67.5t83.5 181.5q0 105 -74.5 170t-193.5 65
h-174v201h166q105 0 172 60t67 155q0 105 -74 169.5t-188 64.5q-137 0 -209 -94.5t-72 -271.5v-699q124 -69 270 -69z" />
    <glyph glyph-name="gamma" unicode="&#x3b3;" horiz-adv-x="1177" 
d="M1150 1106l-442 -1049v-449h-223v447l-460 1051h241l329 -782l314 782h241z" />
    <glyph glyph-name="delta" unicode="&#x3b4;" horiz-adv-x="1263" 
d="M567 1254q178 -82 315 -194t220 -256t83 -296q0 -109 -40.5 -207t-112.5 -170.5t-176 -115t-224 -42.5q-239 0 -396 152.5t-157 383.5q0 139 69 256t184 183.5t248 66.5q44 0 84 -8q-231 161 -533 253v198h966v-204h-530zM633 182q144 0 237.5 93t93.5 234
q0 142 -94 235.5t-237 93.5q-144 0 -237 -93t-93 -236q0 -141 93 -234t237 -93z" />
    <glyph glyph-name="epsilon" unicode="&#x3b5;" horiz-adv-x="1011" 
d="M744 337h211q-10 -165 -128 -264t-303 -99q-193 0 -315.5 100t-122.5 258q0 179 148 261q-118 80 -118 223q0 138 114.5 227t289.5 89q174 0 287 -89t122 -234h-208q-10 67 -62 105.5t-133 38.5q-88 0 -140.5 -40.5t-52.5 -107.5q0 -63 45.5 -101t121.5 -38h144v-167
h-144q-86 0 -138 -43.5t-52 -113.5q0 -74 59 -119t155 -45q95 0 154 43t66 116z" />
    <glyph glyph-name="zeta" unicode="&#x3b6;" horiz-adv-x="1048" 
d="M1041 1388q-365 -281 -546.5 -504t-181.5 -396q0 -65 23.5 -114t64 -80.5t92.5 -55t109.5 -42.5t115 -38.5t109.5 -47.5t92.5 -64.5t64 -94t23.5 -132.5q0 -103 -31 -215h-219q26 87 26 163q0 52 -24 91t-64.5 64t-93.5 45t-111 39t-116 41t-111 56.5t-93.5 79.5
t-64.5 115t-24 159q0 203 133 398.5t410 427.5h-486v219h903v-114z" />
    <glyph glyph-name="eta" unicode="&#x3b7;" horiz-adv-x="1314" 
d="M749 1133q193 0 305.5 -125t112.5 -340v-1064h-227v1012q0 151 -65 229.5t-189 78.5q-130 0 -213.5 -94.5t-83.5 -240.5v-589h-227v1106h158l44 -154q64 85 164 133t221 48z" />
    <glyph glyph-name="theta" unicode="&#x3b8;" horiz-adv-x="1431" 
d="M715 1498q191 0 332.5 -99.5t214 -271t72.5 -391.5t-72.5 -391.5t-214 -271.5t-332.5 -100q-192 0 -333.5 100.5t-213 272t-71.5 390.5t71.5 390t213 271.5t333.5 100.5zM715 1281q-164 0 -264.5 -116.5t-120.5 -325.5h772q-20 208 -122 325t-265 117zM715 190
q162 0 264.5 119t122.5 327h-773q20 -208 122 -327t264 -119z" />
    <glyph glyph-name="iota" unicode="&#x3b9;" horiz-adv-x="716" 
d="M547 -6q-186 0 -292 103.5t-106 284.5v724h227v-705q0 -95 54 -147t152 -52h107v-208h-142z" />
    <glyph glyph-name="kappa" unicode="&#x3ba;" horiz-adv-x="1134" 
d="M859 0l-332 472h-138v-472h-227v1106h227v-428h140l299 428h269l-374 -530l415 -576h-279z" />
    <glyph glyph-name="lambda" unicode="&#x3bb;" horiz-adv-x="1173" 
d="M1139 0h-244l-301 750l-331 -750h-246l463 1024l-15 36q-47 117 -93.5 160.5t-131.5 43.5h-70v208h90q152 0 243 -79.5t172 -279.5z" />
    <glyph glyph-name="uni03BC" unicode="&#x3bc;" horiz-adv-x="1339" 
d="M950 1106h228v-1106h-151l-47 170q-65 -87 -165.5 -138.5t-207.5 -51.5q-145 0 -222 54v-430h-223v1502h227v-601q0 -303 246 -303q133 0 224 93.5t91 231.5v579z" />
    <glyph glyph-name="nu" unicode="&#x3bd;" horiz-adv-x="1181" 
d="M919 1106h234l-455 -1106h-208l-467 1106h240l331 -820z" />
    <glyph glyph-name="xi" unicode="&#x3be;" horiz-adv-x="1081" 
d="M653 165q38 -13 60 -21t57.5 -22t57 -25t50.5 -28.5t46.5 -34.5t37.5 -41t30.5 -49t17.5 -57t7 -68q0 -99 -33 -215h-231q27 78 27 164q0 77 -62 124.5t-215 99.5q-108 36 -182 74t-129 89t-80.5 117.5t-25.5 152.5q0 125 62 222t170 148q-90 47 -140.5 129.5
t-50.5 184.5q0 175 136 290t343 115q199 0 330 -112t140 -290h-226q-10 92 -77 148.5t-167 56.5q-107 0 -174 -59.5t-67 -155.5q0 -92 62.5 -152t159.5 -60h170v-196h-173q-113 0 -183 -69.5t-70 -176.5q0 -28 6.5 -53.5t15 -45t26.5 -39t32 -32.5t41 -28.5t44 -24t51 -21.5
t51.5 -19.5t54.5 -19.5z" />
    <glyph glyph-name="omicron" unicode="&#x3bf;" horiz-adv-x="1343" 
d="M672 -27q-167 0 -302 75.5t-212 208t-77 296.5q0 165 77 297.5t212 207.5t302 75t302 -75t212 -208t77 -297t-77 -296.5t-212 -208t-302 -75.5zM672 190q157 0 258.5 102t101.5 261t-101.5 261t-258.5 102t-258.5 -102t-101.5 -261t101.5 -261t258.5 -102z" />
    <glyph glyph-name="pi" unicode="&#x3c0;" horiz-adv-x="1288" 
d="M162 1106h965v-1106h-225v899h-513v-899h-227v1106z" />
    <glyph glyph-name="rho" unicode="&#x3c1;" horiz-adv-x="1374" 
d="M715 1131q163 0 295.5 -75.5t207.5 -208t75 -294.5t-75 -295t-206 -208.5t-289 -75.5q-95 0 -193.5 35t-163.5 92v-497h-231v932q0 263 162.5 429t417.5 166zM713 191q155 0 254 101.5t99 260.5q0 158 -98.5 259.5t-254.5 101.5q-155 0 -253.5 -101.5t-98.5 -259.5
t99 -260t253 -102z" />
    <glyph glyph-name="uni03C2" unicode="&#x3c2;" horiz-adv-x="1234" 
d="M885 -396q26 97 26 164q0 30 -9 55t-21.5 43.5t-38 35.5t-45 28t-57.5 24t-61.5 20t-69.5 20q-178 50 -261 93q-200 105 -248 320q-17 74 -17 162q0 158 75.5 286.5t208 201.5t295.5 73q205 0 355 -113.5t190 -304.5h-226q-46 99 -129.5 149.5t-191.5 50.5
q-148 0 -246.5 -98t-98.5 -246q0 -79 27 -140t56.5 -96t100 -69t105.5 -45t126 -36q1 -1 2 -1q166 -46 234 -82q144 -76 164 -223q4 -27 4 -57q0 -90 -32 -215h-217z" />
    <glyph glyph-name="sigma" unicode="&#x3c3;" horiz-adv-x="1411" 
d="M1366 1108v-206h-267q72 -69 111.5 -163.5t39.5 -196.5q0 -157 -71 -286t-204.5 -205.5t-305.5 -76.5q-167 0 -301.5 74.5t-210.5 205.5t-76 292q0 159 76 287.5t211.5 201.5t304.5 73h693zM666 191q158 0 257.5 99t99.5 257q0 155 -99.5 253.5t-257.5 98.5t-257.5 -98.5
t-99.5 -253.5q0 -158 99.5 -257t257.5 -99z" />
    <glyph glyph-name="tau" unicode="&#x3c4;" horiz-adv-x="999" 
d="M913 901h-324v-500q0 -95 54 -147t152 -52h107v-208h-142q-186 0 -292 103.5t-106 284.5v519h-331v205h882v-205z" />
    <glyph glyph-name="upsilon" unicode="&#x3c5;" horiz-adv-x="1294" 
d="M648 -27q-228 0 -365.5 135t-137.5 359v639h227v-607q0 -144 74 -226.5t202 -82.5t201.5 83t73.5 226v607h227v-639q0 -224 -137 -359t-365 -135z" />
    <glyph glyph-name="phi" unicode="&#x3c6;" horiz-adv-x="1536" 
d="M1455 544q0 -241 -159 -398t-414 -168v-372h-222v371q-165 6 -297.5 81.5t-207 203t-74.5 282.5q0 191 109 339t297 211l64 -191q-118 -46 -182 -139t-64 -220q0 -147 100 -245.5t256 -107.5v915h186q270 0 439 -156t169 -406zM877 191q155 10 254 108.5t99 244.5
q0 147 -98.5 243t-254.5 106v-702z" />
    <glyph glyph-name="chi" unicode="&#x3c7;" horiz-adv-x="1079" 
d="M1070 0h-256l-275 421l-279 -421h-250l393 572l-363 534h256l244 -372l252 372h250l-367 -523z" />
    <glyph glyph-name="psi" unicode="&#x3c8;" horiz-adv-x="1622" 
d="M1255 1106h228v-571q0 -242 -151 -400t-382 -158h-19v-371h-242v371h-17q-231 0 -382 158.5t-151 399.5v571h228v-572q0 -138 91 -233.5t224 -95.5h17v899h224v-899h20q132 0 222 95t90 234v572z" />
    <glyph glyph-name="omega" unicode="&#x3c9;" horiz-adv-x="1785" 
d="M1567 1106q123 -289 123 -562q0 -262 -111.5 -415.5t-301.5 -153.5q-142 0 -243.5 67t-140.5 182q-40 -115 -142.5 -182t-242.5 -67q-190 0 -300.5 152t-110.5 415q0 272 121 564h239q-63 -128 -97.5 -269.5t-34.5 -269.5q0 -175 61 -275.5t168 -100.5q103 0 168 79
t65 202v371h210v-371q0 -123 65.5 -202t167.5 -79q108 0 168 100t60 278q0 126 -34 267t-95 270h238z" />
    <glyph glyph-name="iotadieresis" unicode="&#x3ca;" horiz-adv-x="716" 
d="M-75 1275v237h250v-237h-250zM358 1275v237h249v-237h-249zM547 -6q-186 0 -292 103.5t-106 284.5v724h227v-705q0 -95 54 -147t152 -52h107v-208h-142z" />
    <glyph glyph-name="upsilondieresis" unicode="&#x3cb;" horiz-adv-x="1294" 
d="M306 1275v237h249v-237h-249zM738 1275v237h250v-237h-250zM648 -27q-228 0 -365.5 135t-137.5 359v639h227v-607q0 -144 74 -226.5t202 -82.5t201.5 83t73.5 226v607h227v-639q0 -224 -137 -359t-365 -135z" />
    <glyph glyph-name="omicrontonos" unicode="&#x3cc;" horiz-adv-x="1343" 
d="M567 1232l127 311h242l-194 -311h-175zM672 -27q-167 0 -302 75.5t-212 208t-77 296.5q0 165 77 297.5t212 207.5t302 75t302 -75t212 -208t77 -297t-77 -296.5t-212 -208t-302 -75.5zM672 190q157 0 258.5 102t101.5 261t-101.5 261t-258.5 102t-258.5 -102t-101.5 -261
t101.5 -261t258.5 -102z" />
    <glyph glyph-name="upsilontonos" unicode="&#x3cd;" horiz-adv-x="1294" 
d="M543 1232l127 311h242l-194 -311h-175zM648 -27q-228 0 -365.5 135t-137.5 359v639h227v-607q0 -144 74 -226.5t202 -82.5t201.5 83t73.5 226v607h227v-639q0 -224 -137 -359t-365 -135z" />
    <glyph glyph-name="omegatonos" unicode="&#x3ce;" horiz-adv-x="1785" 
d="M1155 1543l-194 -311h-175l127 311h242zM1567 1106q123 -289 123 -562q0 -262 -111.5 -415.5t-301.5 -153.5q-142 0 -243.5 67t-140.5 182q-40 -115 -142.5 -182t-242.5 -67q-190 0 -300.5 152t-110.5 415q0 272 121 564h239q-63 -128 -97.5 -269.5t-34.5 -269.5
q0 -175 61 -275.5t168 -100.5q103 0 168 79t65 202v371h210v-371q0 -123 65.5 -202t167.5 -79q108 0 168 100t60 278q0 126 -34 267t-95 270h238z" />
    <glyph glyph-name="uni0401" unicode="&#x401;" horiz-adv-x="1138" 
d="M242 1594v234h250v-234h-250zM701 1594v234h250v-234h-250zM418 222h619v-222h-855v1434h833v-221h-597v-374h544v-216h-544v-401z" />
    <glyph glyph-name="uni0402" unicode="&#x402;" horiz-adv-x="1525" 
d="M956 968q220 0 356.5 -137t136.5 -357q0 -221 -139.5 -356.5t-368.5 -135.5h-15v227h15q124 -1 197 75t73 190q0 116 -73.5 191.5t-198.5 75.5q-71 0 -138 -32.5t-114 -88.5v-620h-236v1214h-407v220h1061v-220h-418v-330q120 84 269 84z" />
    <glyph glyph-name="uni0403" unicode="&#x403;" horiz-adv-x="1013" 
d="M800 1876l-201 -290h-175l134 290h242zM971 1434v-220h-553v-1214h-236v1434h789z" />
    <glyph glyph-name="uni0404" unicode="&#x404;" horiz-adv-x="1593" 
d="M1293 529h236q-57 -254 -247.5 -405t-452.5 -151q-209 0 -378.5 97t-264.5 267t-95 380q0 158 56.5 296t154.5 236.5t235 155t292 56.5q256 0 441 -143t253 -392h-237q-59 144 -178.5 224.5t-278.5 80.5q-187 0 -321.5 -111.5t-169.5 -292.5h630v-215h-631
q33 -183 168 -296.5t324 -113.5q164 0 287.5 87t176.5 240z" />
    <glyph glyph-name="uni0405" unicode="&#x405;" horiz-adv-x="1241" 
d="M630 -22q-244 0 -392.5 127.5t-148.5 345.5h239q0 -116 84.5 -182t215.5 -66q119 0 201 58t82 154q0 21 -4 39.5t-14 34.5t-19 28.5t-28.5 24.5t-32 20.5t-39.5 18t-42 15t-47.5 14t-48 12t-51.5 12.5q-183 44 -264 83q-182 88 -204 269q-4 28 -4 58q0 193 135.5 302
t366.5 109q232 0 363.5 -118t131.5 -322h-232q0 104 -75.5 162.5t-192.5 58.5q-112 0 -186.5 -48.5t-74.5 -133.5q0 -32 10.5 -58t35 -46.5t48 -34.5t67 -28t73 -22t83.5 -21q185 -46 267 -85q187 -91 214 -273q5 -33 5 -69q0 -139 -70.5 -240t-187.5 -150t-264 -49z" />
    <glyph glyph-name="uni0406" unicode="&#x406;" horiz-adv-x="600" 
d="M182 0v1434h236v-1434h-236z" />
    <glyph glyph-name="uni0407" unicode="&#x407;" horiz-adv-x="600" 
d="M26 1594v234h225v-234h-225zM351 1594v234h225v-234h-225zM182 0v1434h236v-1434h-236z" />
    <glyph glyph-name="uni0408" unicode="&#x408;" horiz-adv-x="1232" 
d="M562 -27q-221 0 -365.5 143.5t-144.5 364.5v39h233v-28q0 -130 77.5 -211.5t199.5 -81.5q118 0 194 82t76 211v942h233v-953q0 -223 -141 -365.5t-362 -142.5z" />
    <glyph glyph-name="uni0409" unicode="&#x409;" horiz-adv-x="2201" 
d="M1645 953q218 0 357 -134t139 -343q0 -207 -140 -341.5t-356 -134.5h-540v1214h-468l-68 -731q-24 -245 -138.5 -365.5t-323.5 -120.5h-65v233h67q201 0 225 245l98 959h910v-481h303zM1627 219q120 0 197.5 73t77.5 186q0 114 -77.5 186t-197.5 72h-285v-517h285z" />
    <glyph glyph-name="uni040A" unicode="&#x40a;" horiz-adv-x="2074" 
d="M1544 884q211 0 342 -124t131 -318q0 -195 -131 -318.5t-342 -123.5h-539v649h-587v-649h-236v1434h236v-564h587v564h235v-550h304zM1531 220q114 0 180.5 60t66.5 162t-66.5 161.5t-180.5 59.5h-291v-443h291z" />
    <glyph glyph-name="uni040B" unicode="&#x40b;" horiz-adv-x="1570" 
d="M972 949q223 0 363 -137t140 -378v-434h-238v414q0 159 -77.5 238t-215.5 79q-105 0 -243 -48v-683h-236v1214h-421v220h1075v-220h-418v-314q142 49 271 49z" />
    <glyph glyph-name="uni040E" unicode="&#x40e;" horiz-adv-x="1259" 
d="M354 1635v177h596v-177h-596zM999 1434h249l-426 -982q-113 -263 -233.5 -359.5t-332.5 -96.5h-62v219h85q108 0 165 40t117 159l-542 1020h268l394 -749z" />
    <glyph glyph-name="uni040F" unicode="&#x40f;" horiz-adv-x="1458" 
d="M1275 1434v-1434h-431v-276h-232v276h-430v1434h236v-1215h620v1215h237z" />
    <glyph glyph-name="uni0410" unicode="&#x410;" horiz-adv-x="1445" 
d="M1162 0l-123 312h-640l-122 -312h-250l576 1434h222l593 -1434h-256zM717 1127l-236 -604h476z" />
    <glyph glyph-name="uni0411" unicode="&#x411;" horiz-adv-x="1259" 
d="M723 901q203 0 333 -126.5t130 -322.5t-132 -324t-334 -128h-538v1434h896v-220h-662v-313h307zM702 223q106 0 174.5 65t68.5 164q0 100 -67.5 163t-174.5 63h-287v-455h286z" />
    <glyph glyph-name="uni0412" unicode="&#x412;" horiz-adv-x="1318" 
d="M1009 747q96 -45 150 -137t54 -208q0 -169 -128 -285.5t-314 -116.5h-589v1434h578q180 0 298 -105t118 -264q0 -94 -45 -181t-122 -137zM941 1031q0 80 -55 133t-140 53h-332v-373h332q85 0 140 53.5t55 133.5zM758 225q94 0 154.5 57t60.5 146q0 87 -61 144.5
t-154 57.5h-344v-405h344z" />
    <glyph glyph-name="uni0413" unicode="&#x413;" horiz-adv-x="1013" 
d="M971 1434v-220h-553v-1214h-236v1434h789z" />
    <glyph glyph-name="uni0414" unicode="&#x414;" horiz-adv-x="1556" 
d="M1323 219h144v-497h-217v278h-981v-278h-217v497h113q29 20 50.5 48t39.5 65.5t33 107t28 146t27 211.5t27 274.5t32 362.5h921v-1215zM612 1214q-35 -499 -74.5 -704.5t-119.5 -290.5h668v995h-474z" />
    <glyph glyph-name="uni0415" unicode="&#x415;" horiz-adv-x="1138" 
d="M418 222h619v-222h-855v1434h833v-221h-597v-374h544v-216h-544v-401z" />
    <glyph glyph-name="uni0416" unicode="&#x416;" horiz-adv-x="2019" 
d="M1730 0l-444 629h-158v-629h-237v629h-159l-444 -629h-291l529 747l-475 687h280l403 -586h157v586h237v-586h157l403 586h278l-473 -687l528 -747h-291z" />
    <glyph glyph-name="uni0417" unicode="&#x417;" horiz-adv-x="1185" 
d="M892 752q90 -52 142 -143.5t52 -200.5q0 -128 -68 -227.5t-183.5 -152.5t-255.5 -53q-208 0 -350 121t-149 320h230q7 -103 83 -166t186 -63q119 0 197 63.5t78 166.5q0 101 -69.5 164t-180.5 63h-150v203h150q97 0 159.5 57t62.5 146q0 93 -69.5 149.5t-177.5 56.5
q-98 0 -169.5 -56.5t-81.5 -146.5h-225q9 183 145 295.5t330 112.5q132 0 239.5 -49t171 -142t63.5 -214q0 -95 -42 -175t-118 -129z" />
    <glyph glyph-name="uni0418" unicode="&#x418;" horiz-adv-x="1515" 
d="M1161 1434h171v-1434h-235v993l-751 -993h-164v1434h236v-984z" />
    <glyph glyph-name="uni0419" unicode="&#x419;" horiz-adv-x="1515" 
d="M450 1635v177h596v-177h-596zM1161 1434h171v-1434h-235v993l-751 -993h-164v1434h236v-984z" />
    <glyph glyph-name="uni041A" unicode="&#x41a;" horiz-adv-x="1320" 
d="M1035 0l-449 629h-168v-629h-236v1434h236v-586h167l408 586h289l-489 -692l534 -742h-292z" />
    <glyph glyph-name="uni041B" unicode="&#x41b;" horiz-adv-x="1527" 
d="M429 1434h916v-1434h-235v1214h-469l-68 -731q-46 -486 -462 -486h-68v232h67q201 0 225 245z" />
    <glyph glyph-name="uni041C" unicode="&#x41c;" horiz-adv-x="1974" 
d="M1890 0h-240l-166 1039l-466 -1017h-60l-467 1016l-168 -1038h-240l235 1434h231l437 -975l439 975h235z" />
    <glyph glyph-name="uni041D" unicode="&#x41d;" horiz-adv-x="1490" 
d="M1073 1434h236v-1434h-236v625h-655v-625h-236v1434h236v-586h655v586z" />
    <glyph glyph-name="uni041E" unicode="&#x41e;" horiz-adv-x="1691" 
d="M847 -27q-214 0 -387.5 97t-271.5 267t-98 380t98 380t271.5 267t387.5 97t387 -97t270.5 -267t97.5 -380t-97.5 -380t-270.5 -267t-387 -97zM847 200q222 0 369 147.5t147 369.5t-147 369.5t-369 147.5q-146 0 -264.5 -67.5t-185.5 -186t-67 -263.5t67 -263.5
t185.5 -186t264.5 -67.5z" />
    <glyph glyph-name="uni041F" unicode="&#x41f;" horiz-adv-x="1439" 
d="M182 1434h1076v-1434h-237v1214h-603v-1214h-236v1434z" />
    <glyph glyph-name="uni0420" unicode="&#x420;" horiz-adv-x="1259" 
d="M712 1434q209 0 349 -135t140 -339q0 -203 -140 -338t-349 -135h-294v-487h-236v1434h530zM701 710q114 0 187.5 71t73.5 179t-73.5 179t-187.5 71h-283v-500h283z" />
    <glyph glyph-name="uni0421" unicode="&#x421;" horiz-adv-x="1585" 
d="M828 -25q-157 0 -294 56t-234 153.5t-153 235.5t-56 296t56 296.5t153 236.5t234 154t294 56q254 0 442 -146t244 -388h-238q-51 143 -170 224.5t-278 81.5q-216 0 -357 -145.5t-141 -369.5t141 -369t357 -145q164 0 284 87t169 240h239q-56 -253 -244.5 -403.5
t-447.5 -150.5z" />
    <glyph glyph-name="uni0422" unicode="&#x422;" horiz-adv-x="1163" 
d="M1119 1434l1 -220h-421v-1214h-235v1214h-420v220h1075z" />
    <glyph glyph-name="uni0423" unicode="&#x423;" horiz-adv-x="1259" 
d="M999 1434h249l-426 -982q-113 -263 -233.5 -359.5t-332.5 -96.5h-62v219h85q108 0 165 40t117 159l-542 1020h268l394 -749z" />
    <glyph glyph-name="uni0424" unicode="&#x424;" horiz-adv-x="1806" 
d="M1713 719q0 -142 -47 -271.5t-133.5 -231.5t-220 -166.5t-295.5 -73.5v-219h-229v219q-161 9 -294.5 74t-220 166.5t-134 230t-47.5 268.5q0 141 47.5 270t134 231t220 167t294.5 74v193h229v-192q162 -9 295.5 -73t220 -165.5t133.5 -230.5t47 -270zM1016 199
q105 9 192.5 55t145 116.5t89 160t31.5 186.5q0 130 -53.5 241.5t-159.5 186.5t-245 87v-1033zM331 717q0 -201 125 -350t333 -168v1033q-139 -13 -244.5 -87.5t-159.5 -186t-54 -241.5z" />
    <glyph glyph-name="uni0425" unicode="&#x425;" horiz-adv-x="1251" 
d="M1239 0h-264l-348 559l-348 -559h-266l470 752l-436 682h265l315 -504l313 504h262l-432 -691z" />
    <glyph glyph-name="uni0426" unicode="&#x426;" horiz-adv-x="1476" 
d="M1244 219h141v-497h-217v278h-986v1434h236v-1215h591v1215h235v-1215z" />
    <glyph glyph-name="uni0427" unicode="&#x427;" horiz-adv-x="1325" 
d="M905 1434h237v-1434h-237v545q-156 -60 -300 -60q-226 0 -369 141t-143 388v420h238v-410q0 -154 76.5 -235.5t220.5 -81.5q118 0 277 66v661z" />
    <glyph glyph-name="uni0428" unicode="&#x428;" horiz-adv-x="1992" 
d="M1574 1434h235v-1434h-1627v1434h236v-1215h462v1215h230v-1215h464v1215z" />
    <glyph glyph-name="uni0429" unicode="&#x429;" horiz-adv-x="2045" 
d="M1809 219h148v-497h-217v278h-1558v1434h236v-1215h462v1215h230v-1215h464v1215h235v-1215z" />
    <glyph glyph-name="uni042A" unicode="&#x42a;" horiz-adv-x="1447" 
d="M892 955q218 0 357.5 -134.5t139.5 -343.5q0 -208 -140.5 -342.5t-356.5 -134.5h-538v1214h-316v220h551v-479h303zM875 221q120 0 197 72.5t77 185.5t-76.5 185t-197.5 72h-286v-515h286z" />
    <glyph glyph-name="uni042B" unicode="&#x42b;" horiz-adv-x="1820" 
d="M721 955q217 0 356.5 -134.5t139.5 -343.5q0 -208 -140 -342.5t-356 -134.5h-539v1434h236v-479h303zM1403 1434h235v-1434h-235v1434zM704 221q120 0 197 72.5t77 185.5t-76.5 185t-197.5 72h-286v-515h286z" />
    <glyph glyph-name="uni042C" unicode="&#x42c;" horiz-adv-x="1277" 
d="M721 955q217 0 356.5 -134.5t139.5 -343.5q0 -208 -140 -342.5t-356 -134.5h-539v1434h236v-479h303zM704 221q120 0 197 72.5t77 185.5t-76.5 185t-197.5 72h-286v-515h286z" />
    <glyph glyph-name="uni042D" unicode="&#x42d;" horiz-adv-x="1593" 
d="M764 1461q155 0 292 -56.5t235 -155t154.5 -236.5t56.5 -296q0 -210 -95 -380t-264.5 -267t-378.5 -97q-262 0 -452.5 151t-247.5 405h236q53 -154 176 -241t288 -87q189 0 324 114t167 298h-630v214h629q-35 181 -169.5 293.5t-320.5 112.5q-159 0 -278.5 -81
t-178.5 -226h-237q68 249 253 392t441 143z" />
    <glyph glyph-name="uni042E" unicode="&#x42e;" horiz-adv-x="2156" 
d="M1338 1461q155 0 290.5 -56t231 -154t150.5 -236.5t55 -297.5q0 -213 -93 -383t-259.5 -265.5t-374.5 -95.5q-285 0 -484.5 177t-234.5 458h-201v-608h-236v1434h236v-606h201q36 280 235 456.5t484 176.5zM1331 202q217 0 356.5 145.5t139.5 369.5t-140 370.5
t-356 146.5q-213 0 -355 -147.5t-142 -369.5t142 -368.5t355 -146.5z" />
    <glyph glyph-name="uni042F" unicode="&#x42f;" horiz-adv-x="1343" 
d="M592 1434h568v-1434h-236v531h-266l-306 -531h-272l333 563q-143 49 -225.5 159.5t-82.5 257.5q0 194 139 324t348 130zM604 745h320v468h-320q-113 0 -185.5 -65t-72.5 -168t72.5 -169t185.5 -66z" />
    <glyph glyph-name="uni0430" unicode="&#x430;" horiz-adv-x="1425" 
d="M1088 1107l175 -1v-1105h-183l-22 134q-76 -77 -179 -119.5t-222 -42.5q-162 0 -294 75.5t-207 209t-75 296.5q0 164 75 296.5t207 207.5t294 75q120 0 224 -43t180 -122zM674 191q156 0 258.5 103.5t102.5 259.5t-102.5 259t-258.5 103t-259 -103.5t-103 -258.5
q0 -156 103 -259.5t259 -103.5z" />
    <glyph glyph-name="uni0431" unicode="&#x431;" horiz-adv-x="1347" 
d="M726 1053q240 0 389.5 -147.5t149.5 -382.5q0 -244 -159 -397t-414 -153q-270 0 -424.5 169t-154.5 464q0 403 155 613t517 298l345 84v-224l-342 -82q-180 -43 -283 -134t-136 -236q143 128 357 128zM692 188q146 0 243.5 95.5t97.5 239.5t-97.5 240t-243.5 96
q-148 0 -245 -95.5t-97 -240.5q0 -144 97 -239.5t245 -95.5z" />
    <glyph glyph-name="uni0432" unicode="&#x432;" horiz-adv-x="1177" 
d="M911 578q79 -32 125.5 -101.5t46.5 -159.5q0 -135 -98.5 -226t-246.5 -91h-576v1106h570q139 0 227.5 -79t88.5 -203q0 -79 -37 -144.5t-100 -101.5zM824 786q0 57 -38 92t-100 35h-301v-254h301q63 0 100.5 35t37.5 92zM698 199q68 0 110.5 38.5t42.5 99.5t-43 99.5
t-112 38.5h-311v-276h313z" />
    <glyph glyph-name="uni0433" unicode="&#x433;" horiz-adv-x="903" 
d="M869 1106v-202h-484v-904h-223v1106h707z" />
    <glyph glyph-name="uni0434" unicode="&#x434;" horiz-adv-x="1347" 
d="M1122 214h143v-492h-207v278h-806v-278h-207v492h117q36 30 57 72t41 147t35 250.5t38 422.5h789v-892zM535 906q-23 -336 -51.5 -481t-83.5 -211h499v692h-364z" />
    <glyph glyph-name="uni0435" unicode="&#x435;" horiz-adv-x="1292" 
d="M1213 550q0 -32 -5 -74h-898q21 -134 112 -212t227 -78q98 0 175.5 43t121.5 119h240q-66 -175 -209 -275t-328 -100q-242 0 -405 166.5t-163 413.5q0 163 74 296t204 208.5t290 75.5q165 0 295 -78.5t199.5 -211t69.5 -293.5zM649 928q-127 0 -216 -72t-117 -196h669
q-31 126 -120.5 197t-215.5 71z" />
    <glyph glyph-name="uni0436" unicode="&#x436;" horiz-adv-x="1679" 
d="M1405 0l-324 472h-131v-472h-220v472h-131l-323 -472h-277l410 582l-369 524h261l298 -432h131v432h220v-432h131l298 432h261l-369 -524l410 -582h-276z" />
    <glyph glyph-name="uni0437" unicode="&#x437;" horiz-adv-x="1011" 
d="M780 588q145 -86 145 -268q0 -153 -122.5 -250t-314.5 -97q-187 0 -304.5 98t-127.5 262h207q11 -73 70.5 -113.5t154.5 -40.5q96 0 155.5 43.5t59.5 113.5q0 68 -53 110.5t-138 42.5h-144v176h144q76 0 121.5 36.5t45.5 98.5q0 65 -52 103.5t-141 38.5
q-81 0 -133.5 -36.5t-62.5 -101.5h-207q9 147 122 238t286 91q176 0 290 -90t114 -229q0 -145 -115 -226z" />
    <glyph glyph-name="uni0438" unicode="&#x438;" horiz-adv-x="1261" 
d="M972 1106h127v-1106h-217v702l-590 -702h-130v1106h219v-696z" />
    <glyph glyph-name="uni0439" unicode="&#x439;" horiz-adv-x="1261" 
d="M913 1470v-169h-549v169h549zM972 1106h127v-1106h-217v702l-590 -702h-130v1106h219v-696z" />
    <glyph glyph-name="uni043A" unicode="&#x43a;" horiz-adv-x="1134" 
d="M859 0l-332 472h-138v-472h-227v1106h227v-428h140l299 428h269l-374 -530l415 -576h-279z" />
    <glyph glyph-name="uni043B" unicode="&#x43b;" horiz-adv-x="1269" 
d="M355 1106h754v-1106h-224v908h-342l-49 -488q-23 -232 -120.5 -329t-293.5 -97h-39v209h54q160 0 182 202z" />
    <glyph glyph-name="uni043C" unicode="&#x43c;" horiz-adv-x="1638" 
d="M1566 0h-220l-133 753l-371 -740h-47l-369 740l-133 -753h-220l200 1106h192l354 -707l356 707h191z" />
    <glyph glyph-name="uni043D" unicode="&#x43d;" horiz-adv-x="1284" 
d="M898 1106h225v-1106h-225v463h-512v-463h-224v1106h224v-434h512v434z" />
    <glyph glyph-name="uni043E" unicode="&#x43e;" horiz-adv-x="1343" 
d="M672 -27q-167 0 -302 75.5t-212 208t-77 296.5q0 165 77 297.5t212 207.5t302 75t302 -75t212 -208t77 -297t-77 -296.5t-212 -208t-302 -75.5zM672 190q157 0 258.5 102t101.5 261t-101.5 261t-258.5 102t-258.5 -102t-101.5 -261t101.5 -261t258.5 -102z" />
    <glyph glyph-name="uni043F" unicode="&#x43f;" horiz-adv-x="1288" 
d="M162 1106h965v-1106h-225v899h-513v-899h-227v1106z" />
    <glyph glyph-name="uni0440" unicode="&#x440;" horiz-adv-x="1411" 
d="M757 1133q163 0 294 -75t204.5 -208t73.5 -297q0 -249 -162.5 -415t-409.5 -166q-213 0 -368 134v-502h-227v1502h153l43 -136q76 78 178.5 120.5t220.5 42.5zM739 190q156 0 258 103.5t102 259.5t-102 259.5t-258 103.5t-259.5 -104t-103.5 -259t103.5 -259t259.5 -104z
" />
    <glyph glyph-name="uni0441" unicode="&#x441;" horiz-adv-x="1273" 
d="M660 -27q-162 0 -295 76t-208.5 209t-75.5 296t75.5 295.5t208.5 208t296 75.5q204 0 353 -115t195 -306h-225q-44 95 -130 149.5t-194 54.5q-149 0 -248.5 -104t-99.5 -258t100 -259t248 -105q109 0 193.5 56t129.5 157h229q-46 -194 -197 -312t-355 -118z" />
    <glyph glyph-name="uni0442" unicode="&#x442;" horiz-adv-x="1073" 
d="M1037 1106v-205h-389v-901h-223v901h-390v205h1002z" />
    <glyph glyph-name="uni0443" unicode="&#x443;" horiz-adv-x="1214" 
d="M951 1106h242l-508 -1126q-95 -211 -194 -293.5t-266 -82.5h-113v204h95q108 0 159 42.5t113 177.5l25 52l-481 1026h247l351 -771z" />
    <glyph glyph-name="uni0444" unicode="&#x444;" horiz-adv-x="1515" 
d="M1435 549q0 -243 -160.5 -403.5t-408.5 -171.5v-322h-217v322q-248 11 -408 171t-160 404q0 121 43 227t118.5 182t180.5 122t226 52v309h217v-309q246 -11 407.5 -174.5t161.5 -408.5zM303 551q0 -153 97 -255t250 -113v739q-152 -11 -249.5 -115t-97.5 -256zM865 183
q153 11 250.5 114t97.5 254q0 152 -98.5 256t-249.5 115v-739z" />
    <glyph glyph-name="uni0445" unicode="&#x445;" horiz-adv-x="1079" 
d="M1070 0h-256l-275 421l-279 -421h-250l393 572l-363 534h256l244 -372l252 372h250l-367 -523z" />
    <glyph glyph-name="uni0446" unicode="&#x446;" horiz-adv-x="1318" 
d="M1091 209h149v-487h-207v278h-871v1106h223v-897h484v897h222v-897z" />
    <glyph glyph-name="uni0447" unicode="&#x447;" horiz-adv-x="1146" 
d="M764 1106h220v-1106h-220v396q-112 -42 -237 -42q-204 0 -326.5 119t-122.5 328v305h223v-297q0 -119 62.5 -182t180.5 -63q119 0 220 53v489z" />
    <glyph glyph-name="uni0448" unicode="&#x448;" horiz-adv-x="1726" 
d="M1341 1106h224v-1106h-1403v1106h223v-897h370v897h217v-897h369v897z" />
    <glyph glyph-name="uni0449" unicode="&#x449;" horiz-adv-x="1792" 
d="M1565 209h149v-487h-207v278h-1345v1106h223v-897h370v897h217v-897h369v897h224v-897z" />
    <glyph glyph-name="uni044A" unicode="&#x44a;" horiz-adv-x="1271" 
d="M808 777q182 0 295.5 -108t113.5 -281t-113.5 -280.5t-295.5 -107.5h-458v908h-313v198h536v-329h235zM781 196q94 0 151 53t57 139q0 87 -57 140t-151 53h-208v-385h208z" />
    <glyph glyph-name="uni044B" unicode="&#x44b;" horiz-adv-x="1609" 
d="M620 777q182 0 295.5 -108t113.5 -281t-113.5 -280.5t-295.5 -107.5h-458v1106h223v-329h235zM1221 1106h227v-1106h-227v1106zM593 196q94 0 150.5 52.5t56.5 139.5t-56.5 140t-150.5 53h-208v-385h208z" />
    <glyph glyph-name="uni044C" unicode="&#x44c;" horiz-adv-x="1083" 
d="M620 777q182 0 295.5 -108t113.5 -281t-113.5 -280.5t-295.5 -107.5h-458v1106h223v-329h235zM593 196q94 0 150.5 52.5t56.5 139.5t-56.5 140t-150.5 53h-208v-385h208z" />
    <glyph glyph-name="uni044D" unicode="&#x44d;" horiz-adv-x="1275" 
d="M614 1133q163 0 296.5 -75.5t209 -207.5t75.5 -293q0 -122 -45 -230t-122 -186t-185 -123t-229 -45q-204 0 -356 121.5t-198 316.5h225q39 -107 128.5 -170.5t203.5 -63.5q134 0 229 80t122 210h-458v180h457q-27 128 -121.5 205.5t-228.5 77.5q-112 0 -202 -60
t-131 -160h-220q47 190 197 306.5t353 116.5z" />
    <glyph glyph-name="uni044E" unicode="&#x44e;" horiz-adv-x="1769" 
d="M1114 1133q122 0 228.5 -44t182.5 -121t119.5 -185t43.5 -231q0 -251 -162.5 -415t-411.5 -164q-221 0 -374.5 131t-186.5 343h-165v-448h-226v1107h226v-447h166q34 211 188 342.5t372 131.5zM1114 190q148 0 246.5 103.5t98.5 258.5q0 156 -99 260t-246 104
q-148 0 -246.5 -104t-98.5 -260q0 -155 98.5 -258.5t246.5 -103.5z" />
    <glyph glyph-name="uni044F" unicode="&#x44f;" horiz-adv-x="1161" 
d="M472 1106h527v-1106h-220v405h-233l-240 -405h-248l264 442q-101 41 -158 123.5t-57 189.5q0 151 103.5 251t261.5 100zM502 604h277v300h-277q-75 0 -120.5 -41.5t-45.5 -108.5t45.5 -108.5t120.5 -41.5z" />
    <glyph glyph-name="uni0451" unicode="&#x451;" horiz-adv-x="1292" 
d="M553 1512v-237h-249v237h249zM986 1512v-237h-249v237h249zM1213 550q0 -32 -5 -74h-898q21 -134 112 -212t227 -78q98 0 175.5 43t121.5 119h240q-66 -175 -209 -275t-328 -100q-242 0 -405 166.5t-163 413.5q0 163 74 296t204 208.5t290 75.5q165 0 295 -78.5
t199.5 -211t69.5 -293.5zM649 928q-127 0 -216 -72t-117 -196h669q-31 126 -120.5 197t-215.5 71z" />
    <glyph glyph-name="uni0452" unicode="&#x452;" horiz-adv-x="1314" 
d="M749 1129q193 0 305.5 -125t112.5 -340v-652q0 -181 -109.5 -291t-290.5 -110h-76v206h43q96 0 151 55.5t55 151.5v588q0 151 -64.5 230t-189.5 79q-130 0 -213.5 -94.5t-83.5 -241.5v-585h-227v1211h-191v171h191v120h227v-120h355v-171h-355v-228q65 69 158 107.5
t202 38.5z" />
    <glyph glyph-name="uni0453" unicode="&#x453;" horiz-adv-x="903" 
d="M767 1544l-194 -311h-175l127 311h242zM869 1106v-202h-484v-904h-223v1106h707z" />
    <glyph glyph-name="uni0454" unicode="&#x454;" horiz-adv-x="1275" 
d="M991 411h225q-46 -195 -198 -316.5t-356 -121.5q-121 0 -229 45t-185 123t-122 186t-45 230q0 161 75.5 293t209 207.5t296.5 75.5q203 0 353 -116.5t197 -306.5h-220q-41 100 -131 160t-202 60q-134 0 -228.5 -77.5t-121.5 -205.5h457v-180h-458q27 -130 122 -210
t229 -80q114 0 203.5 63.5t128.5 170.5z" />
    <glyph glyph-name="uni0455" unicode="&#x455;" horiz-adv-x="1060" 
d="M530 -27q-202 0 -324.5 103t-127.5 275h222q4 -85 69.5 -131.5t168.5 -46.5q94 0 155 38.5t61 105.5q0 30 -14.5 54t-35 38.5t-58 26.5t-67 18t-79.5 15q-51 9 -81 15t-78 19.5t-77.5 28.5t-64.5 40t-54.5 55.5t-33 74.5t-13.5 97q0 149 118.5 241.5t310.5 92.5
t308.5 -96.5t119.5 -257.5h-215q-3 78 -60 119.5t-158 41.5q-94 0 -149 -36.5t-55 -97.5q0 -24 8 -42.5t27.5 -32.5t37 -23t52 -17t56.5 -12.5t65 -11.5q162 -27 233 -57q170 -73 180 -257q1 -12 1 -26q0 -161 -123 -257.5t-325 -96.5z" />
    <glyph glyph-name="uni0456" unicode="&#x456;" horiz-adv-x="550" 
d="M158 1277v235h235v-235h-235zM162 0v1106h227v-1106h-227z" />
    <glyph glyph-name="uni0457" unicode="&#x457;" horiz-adv-x="550" 
d="M-9 1275v237h217v-237h-217zM342 1274v236h217v-236h-217zM162 0v1106h227v-1106h-227z" />
    <glyph glyph-name="uni0458" unicode="&#x458;" horiz-adv-x="575" 
d="M184 1277v235h235v-235h-235zM-88 -396v208h79q95 0 145.5 50.5t50.5 145.5v1098h227v-1115q0 -173 -107.5 -280t-281.5 -107h-113z" />
    <glyph glyph-name="uni0459" unicode="&#x459;" horiz-adv-x="1779" 
d="M1319 772q181 0 294 -107t113 -280q0 -172 -112.5 -278.5t-294.5 -106.5h-460v908h-313l-49 -487q-23 -232 -121 -329t-294 -97h-42v207h57q80 0 125.5 49t56.5 152l79 703h716v-334h245zM1296 189q93 0 150 54t57 142q0 89 -57 143.5t-150 54.5h-222v-394h222z" />
    <glyph glyph-name="uni045A" unicode="&#x45a;" horiz-adv-x="1759" 
d="M1306 756q181 0 290 -104t109 -273q0 -170 -109 -274.5t-290 -104.5h-453v483h-468v-483h-223v1106h223v-414h468v414h222v-350h231zM1278 199q92 0 145 48.5t53 131.5t-53 130.5t-145 47.5h-203v-358h203z" />
    <glyph glyph-name="uni045B" unicode="&#x45b;" horiz-adv-x="1314" 
d="M749 1131q193 0 305.5 -125t112.5 -339v-667h-227v620q0 151 -64 229t-190 78q-129 0 -213 -94t-84 -241v-592h-227v1211h-188v171h188v120h227v-120h357v-171h-357v-231q65 72 158 111.5t202 39.5z" />
    <glyph glyph-name="uni045C" unicode="&#x45c;" horiz-adv-x="1134" 
d="M870 1544l-194 -311h-175l127 311h242zM859 0l-332 472h-138v-472h-227v1106h227v-428h140l299 428h269l-374 -530l415 -576h-279z" />
    <glyph glyph-name="uni045D" unicode="&#x45d;" horiz-adv-x="1261" 
d="M743 1233h-175l-194 311h242zM972 1106h127v-1106h-217v702l-590 -702h-130v1106h219v-696z" />
    <glyph glyph-name="uni045E" unicode="&#x45e;" horiz-adv-x="1214" 
d="M338 1301v169h549v-169h-549zM951 1106h242l-508 -1126q-95 -211 -194 -293.5t-266 -82.5h-113v204h95q108 0 159 42.5t113 177.5l25 52l-481 1026h247l351 -771z" />
    <glyph glyph-name="uni045F" unicode="&#x45f;" horiz-adv-x="1277" 
d="M1117 1106v-1106h-368v-276h-218v276h-369v1106h223v-897h509v897h223z" />
    <glyph glyph-name="uni0490" unicode="&#x490;" horiz-adv-x="1013" 
d="M753 1649h218v-435h-553v-1214h-236v1434h571v215z" />
    <glyph glyph-name="uni0491" unicode="&#x491;" horiz-adv-x="903" 
d="M654 1342h215v-438h-484v-904h-223v1106h492v236z" />
    <glyph glyph-name="Wgrave" unicode="&#x1e80;" horiz-adv-x="2115" 
d="M973 1586l-201 290h242l134 -290h-175zM1828 1434h247l-448 -1434h-208l-363 925l-353 -925h-209l-457 1434h249l324 -1059l402 1038h87l413 -1038z" />
    <glyph glyph-name="wgrave" unicode="&#x1e81;" horiz-adv-x="1740" 
d="M971 1233h-175l-193 311h242zM1482 1106h228l-371 -1106h-184l-285 673l-284 -673h-184l-370 1106h234l250 -745l317 733h74l321 -739z" />
    <glyph glyph-name="Wacute" unicode="&#x1e82;" horiz-adv-x="2115" 
d="M1328 1876l-201 -290h-175l134 290h242zM1828 1434h247l-448 -1434h-208l-363 925l-353 -925h-209l-457 1434h249l324 -1059l402 1038h87l413 -1038z" />
    <glyph glyph-name="wacute" unicode="&#x1e83;" horiz-adv-x="1740" 
d="M1120 1544l-194 -311h-175l127 311h242zM1482 1106h228l-371 -1106h-184l-285 673l-284 -673h-184l-370 1106h234l250 -745l317 733h74l321 -739z" />
    <glyph glyph-name="Wdieresis" unicode="&#x1e84;" horiz-adv-x="2115" 
d="M700 1594v234h250v-234h-250zM1159 1594v234h250v-234h-250zM1828 1434h247l-448 -1434h-208l-363 925l-353 -925h-209l-458 1434h250l324 -1059l402 1038h87l413 -1038z" />
    <glyph glyph-name="wdieresis" unicode="&#x1e85;" horiz-adv-x="1740" 
d="M524 1275v237h250v-237h-250zM957 1275v237h250v-237h-250zM1482 1106h228l-371 -1106h-184l-285 673l-284 -673h-184l-370 1106h234l250 -745l317 733h74l321 -739z" />
    <glyph glyph-name="uni1E9E" unicode="&#x1e9e;" horiz-adv-x="1443" 
d="M994 923q169 -32 266 -149t97 -294q0 -212 -144 -346t-387 -134h-191v224h191q129 0 210 72.5t81 185.5q0 115 -80.5 187.5t-210.5 72.5h-153v42l228 427h-225q-131 0 -200 -68t-69 -199v-944h-238v968q0 215 126 340.5t341 125.5h608v-40z" />
    <glyph glyph-name="Ygrave" unicode="&#x1ef2;" horiz-adv-x="1366" 
d="M603 1586l-201 290h242l134 -290h-175zM1322 1434l-519 -860v-574h-242v575l-514 859h254l383 -642l384 642h254z" />
    <glyph glyph-name="ygrave" unicode="&#x1ef3;" horiz-adv-x="1214" 
d="M717 1233h-175l-194 311h242zM951 1106h242l-508 -1126q-95 -211 -194 -293.5t-266 -82.5h-113v204h95q108 0 159 42.5t113 177.5l25 52l-481 1026h247l351 -771z" />
    <glyph glyph-name="endash" unicode="&#x2013;" horiz-adv-x="1310" 
d="M135 464v219h1041v-219h-1041z" />
    <glyph glyph-name="emdash" unicode="&#x2014;" horiz-adv-x="1841" 
d="M135 464v219h1572v-219h-1572z" />
    <glyph glyph-name="quoteleft" unicode="&#x2018;" horiz-adv-x="495" 
d="M363 1554v-118q-128 -30 -128 -177h140v-259h-258v240q0 132 65 212t181 102z" />
    <glyph glyph-name="quoteright" unicode="&#x2019;" horiz-adv-x="483" 
d="M138 923v118q128 30 128 176h-140v260h258v-240q0 -132 -65 -211.5t-181 -102.5z" />
    <glyph glyph-name="quotesinglbase" unicode="&#x201a;" horiz-adv-x="528" 
d="M147 -294v117q128 30 128 177h-140v260h258v-241q0 -132 -65 -211t-181 -102z" />
    <glyph glyph-name="quotedblleft" unicode="&#x201c;" horiz-adv-x="899" 
d="M363 1557v-118q-128 -30 -128 -177h140v-259h-258v240q0 132 65 211.5t181 102.5zM766 1557v-118q-128 -30 -128 -177h140v-259h-258v240q0 132 65 211.5t181 102.5z" />
    <glyph glyph-name="quotedblright" unicode="&#x201d;" horiz-adv-x="886" 
d="M138 923v118q128 30 128 176h-140v260h258v-240q0 -132 -65 -211.5t-181 -102.5zM542 923v118q128 30 128 176h-140v260h258v-240q0 -132 -65 -211.5t-181 -102.5z" />
    <glyph glyph-name="quotedblbase" unicode="&#x201e;" horiz-adv-x="931" 
d="M147 -294v117q128 30 128 177h-140v260h258v-241q0 -132 -65 -211t-181 -102zM551 -294v117q128 30 128 177h-140v260h258v-241q0 -132 -65 -211t-181 -102z" />
    <glyph glyph-name="dagger" unicode="&#x2020;" horiz-adv-x="1040" 
d="M981 1060v-207h-350v-935h-222v935h-350v207h350v374h222v-374h350z" />
    <glyph glyph-name="daggerdbl" unicode="&#x2021;" horiz-adv-x="1124" 
d="M1023 853h-350v-354h350v-207h-350v-374h-223v374h-349v207h349v354h-349v207h349v374h223v-374h350v-207z" />
    <glyph glyph-name="bullet" unicode="&#x2022;" horiz-adv-x="745" 
d="M373 387q-91 0 -152 61t-61 152q0 92 61 152.5t152 60.5q92 0 152.5 -60.5t60.5 -152.5q0 -91 -60.5 -152t-152.5 -61z" />
    <glyph glyph-name="ellipsis" unicode="&#x2026;" horiz-adv-x="1257" 
d="M133 0v261h250v-261h-250zM504 0v261h249v-261h-249zM874 0v261h250v-261h-250z" />
    <glyph glyph-name="perthousand" unicode="&#x2030;" horiz-adv-x="2351" 
d="M379 753q-139 0 -228 88.5t-89 227.5q0 138 89 226t228 88t228 -88t89 -226q0 -139 -89 -227.5t-228 -88.5zM273 1l821 1362h205l-821 -1362h-205zM379 920q64 0 105.5 42t41.5 107q0 64 -41.5 105.5t-105.5 41.5q-63 0 -104.5 -41.5t-41.5 -105.5t41.5 -106.5
t104.5 -42.5zM1216 -18q-139 0 -227.5 87.5t-88.5 225.5t88.5 225t227.5 87t228 -87t89 -225t-89 -225.5t-228 -87.5zM1976 -18q-139 0 -227.5 87.5t-88.5 225.5t88.5 225t227.5 87t227.5 -87t88.5 -225t-88.5 -225.5t-227.5 -87.5zM1216 149q64 0 105 41t41 105t-41 105
t-105 41q-63 0 -104 -41t-41 -105t41 -105t104 -41zM1976 149q64 0 104.5 41t40.5 105t-40.5 105t-104.5 41q-63 0 -104 -41t-41 -105t41 -105t104 -41z" />
    <glyph glyph-name="guilsinglleft" unicode="&#x2039;" horiz-adv-x="765" 
d="M407 116l-337 415v31l337 416h268l-344 -431l344 -431h-268z" />
    <glyph glyph-name="guilsinglright" unicode="&#x203a;" horiz-adv-x="765" 
d="M360 116h-269l344 431l-344 431h269l336 -416v-31z" />
    <glyph glyph-name="fraction" unicode="&#x2044;" horiz-adv-x="335" 
d="M-332 -61l827 1556h178l-827 -1556h-178z" />
    <glyph glyph-name="Euro" unicode="&#x20ac;" horiz-adv-x="1329" 
d="M970 1200q-145 0 -264 -69t-183 -191h629l-44 -179h-641q-4 -32 -4 -75q0 -44 6 -85h599l-43 -180h-497q65 -118 182.5 -184t259.5 -66q123 0 227 43v-200q-117 -42 -247 -42q-224 0 -403.5 122t-255.5 327h-222l43 180h137q-4 37 -4 85q0 38 3 75h-174l43 179h170
q74 211 257 335.5t411 124.5q161 0 304 -59l-46 -188q-109 47 -243 47z" />
    <glyph glyph-name="uni20BD" unicode="&#x20bd;" horiz-adv-x="1230" 
d="M753 561h-271v-142h398v-161h-398v-258h-223v258h-147v161h147v150h-147v179h147v614h494q184 0 298.5 -111.5t114.5 -289.5q0 -177 -115 -288.5t-298 -111.5zM947 961q0 89 -61.5 147.5t-154.5 58.5h-249v-411h249q93 0 154.5 58.5t61.5 146.5z" />
    <glyph glyph-name="uni2113" unicode="&#x2113;" horiz-adv-x="935" 
d="M688 322h171v-6q0 -156 -87 -249.5t-234 -93.5q-152 0 -242 95t-90 255v61q-79 -33 -134 -51v185q62 24 134 58v526q0 164 88 260.5t238 96.5q148 0 236.5 -92t88.5 -246q0 -177 -126 -347.5t-346 -299.5v-153q0 -80 41 -125.5t112 -45.5q70 0 110 44t40 121v7zM385 1115
v-437q143 98 218 212.5t75 238.5q0 75 -38.5 118t-108.5 41q-71 2 -108.5 -44t-37.5 -129z" />
    <glyph glyph-name="uni2116" unicode="&#x2116;" horiz-adv-x="2273" 
d="M1086 406v959h219v-1365h-188l-709 975v-975h-220v1365h202zM1819 1244q144 0 240.5 -93.5t95.5 -234.5q-2 -141 -97 -234t-239 -93t-240 93t-96 234t96 234.5t240 93.5zM1819 753q73 0 119 45.5t46 117.5q0 71 -46.5 117.5t-118.5 46.5t-118.5 -46.5t-46.5 -117.5
q0 -72 46.5 -117.5t118.5 -45.5zM1487 202v195h664v-195h-664z" />
    <glyph glyph-name="uni2117" unicode="&#x2117;" horiz-adv-x="1710" 
d="M853 1452q219 0 393 -94t271 -262t97 -381q0 -159 -57 -296.5t-157 -234.5t-241.5 -152t-305.5 -55q-219 0 -392 94t-269.5 262.5t-96.5 381.5t96.5 381.5t269.5 262t392 93.5zM853 113q269 0 441 168.5t172 433.5t-172 433.5t-441 168.5q-268 0 -439.5 -168t-171.5 -434
t171.5 -434t439.5 -168zM937 1115q128 0 213.5 -80.5t85.5 -200.5t-85.5 -201.5t-213.5 -81.5h-187v-278h-149v842h336zM931 679q70 0 115 43.5t45 111.5t-45 112t-115 44h-184v-311h184z" />
    <glyph glyph-name="trademark" unicode="&#x2122;" horiz-adv-x="1339" 
d="M63 1337v97h446v-97h-165v-415h-106v415h-175zM1219 922h-103l-57 347l-171 -347h-22l-170 347l-58 -347h-103l85 512h92l165 -341l165 341h93z" />
    <glyph glyph-name="estimated" unicode="&#x212e;" horiz-adv-x="1538" 
d="M1466 616h-1067v-372q161 -148 383 -148q126 0 243 47t197 129l148 -4q-94 -136 -255.5 -212t-332.5 -76q-188 0 -345 91t-248 248t-91 345q0 138 55 264.5t147 218.5t218.5 146.5t263.5 54.5q135 0 262 -54.5t220 -145t149.5 -213t56.5 -251.5q0 -29 -4 -68zM782 1231
q-107 0 -206 -40t-177 -112v-350h768v350q-79 71 -179 111.5t-206 40.5z" />
    <glyph glyph-name="uni2150" unicode="&#x2150;" horiz-adv-x="1441" 
d="M953 1495h178l-827 -1556h-178zM175 644v642h-128v148h300v-790h-172zM847 789h558v-21l-299 -769h-170l252 640h-341v150z" />
    <glyph glyph-name="uni2151" unicode="&#x2151;" horiz-adv-x="1507" 
d="M953 1495h178l-827 -1556h-178zM175 644v642h-128v148h300v-790h-172zM1141 807q134 0 218 -78.5t84 -205.5q0 -110 -84 -256l-156 -266h-184l138 234q8 15 24 43q-38 -11 -75 -11q-113 0 -188 72t-75 184q0 125 83.5 204.5t214.5 79.5zM1143 390q60 0 98.5 37t38.5 96
q0 58 -38.5 94.5t-98.5 36.5q-62 0 -100 -36.5t-38 -94.5q0 -59 38.5 -96t99.5 -37z" />
    <glyph glyph-name="uni2152" unicode="&#x2152;" horiz-adv-x="2043" 
d="M953 1495h178l-827 -1556h-178zM175 644v642h-128v148h300v-790h-172zM1652 804q150 0 236 -109.5t86 -299.5t-86.5 -300.5t-235.5 -110.5t-236 110.5t-87 300.5t86.5 299.5t236.5 109.5zM847 642v147h301v-789h-172v642h-129zM1652 148q71 0 111 65t40 181t-40 181
t-111 65t-111 -64.5t-40 -180.5q0 -117 39.5 -182t111.5 -65z" />
    <glyph glyph-name="uni2153" unicode="&#x2153;" horiz-adv-x="1476" 
d="M953 1495h178l-827 -1556h-178zM175 644v642h-128v148h300v-790h-172zM1219 498q88 -20 141 -86.5t53 -159.5q0 -116 -79.5 -191t-201.5 -75q-117 0 -193.5 73t-79.5 188h160q3 -49 34 -79.5t79 -30.5q53 0 85.5 33.5t32.5 87.5q0 53 -35.5 84.5t-93.5 31.5h-113v30
l144 239h-274v146h506v-32z" />
    <glyph glyph-name="uni2154" unicode="&#x2154;" horiz-adv-x="1703" 
d="M1179 1495h178l-828 -1556h-178zM615 804v-158h-560v39q173 199 245.5 289t99.5 139t27 91q0 44 -25.5 71t-66.5 27q-44 0 -71 -27.5t-27 -73.5v-16h-166v16q0 115 71 183t191 68q117 0 190.5 -68.5t73.5 -177.5q0 -75 -46 -156t-186 -246h250zM1444 498
q88 -20 141 -86.5t53 -159.5q0 -116 -79.5 -191t-201.5 -75q-117 0 -193.5 73t-79.5 188h160q3 -49 34 -79.5t79 -30.5q53 0 86 33.5t33 87.5q0 53 -35.5 84.5t-93.5 31.5h-114v30l145 239h-275v146h507v-32z" />
    <glyph glyph-name="uni2155" unicode="&#x2155;" horiz-adv-x="1466" 
d="M953 1495h178l-827 -1556h-178zM175 644v642h-128v148h300v-790h-172zM1125 512q125 0 204.5 -73t79.5 -187q0 -115 -79 -190.5t-198 -75.5q-121 0 -199.5 73.5t-78.5 187.5h161q1 -49 33.5 -80.5t83.5 -31.5q49 0 80.5 33t31.5 84q0 53 -34 86.5t-88 33.5h-227l-15 21
l44 396h430v-146h-297l-15 -131h83z" />
    <glyph glyph-name="uni2156" unicode="&#x2156;" horiz-adv-x="1691" 
d="M1179 1495h178l-828 -1556h-178zM615 804v-158h-560v39q173 199 245.5 289t99.5 139t27 91q0 44 -25.5 71t-66.5 27q-44 0 -71 -27.5t-27 -73.5v-16h-166v16q0 115 71 183t191 68q117 0 190.5 -68.5t73.5 -177.5q0 -75 -46 -156t-186 -246h250zM1350 512q125 0 204.5 -73
t79.5 -187q0 -115 -79 -190.5t-198 -75.5q-121 0 -199.5 73.5t-78.5 187.5h162q1 -49 33 -80.5t83 -31.5q49 0 81 33t32 84q0 53 -34 86.5t-88 33.5h-227l-15 21l43 396h431v-146h-297l-15 -131h82z" />
    <glyph glyph-name="uni2157" unicode="&#x2157;" horiz-adv-x="1691" 
d="M1178 1495h178l-827 -1556h-178zM618 896q0 -116 -79.5 -191t-201.5 -75q-117 0 -193.5 73t-79.5 188h160q3 -49 34 -79.5t79 -30.5q53 0 86 33.5t33 87.5q0 53 -35.5 84.5t-93.5 31.5h-114v31l145 238h-275v147h507v-33l-166 -259q88 -20 141 -86.5t53 -159.5zM1350 512
q125 0 204.5 -73t79.5 -187q0 -115 -79 -190.5t-198 -75.5q-121 0 -199.5 73.5t-78.5 187.5h161q1 -49 33.5 -80.5t83.5 -31.5q49 0 80.5 33t31.5 84q0 53 -34 86.5t-88 33.5h-227l-15 21l43 396h431v-146h-297l-15 -131h83z" />
    <glyph glyph-name="uni2158" unicode="&#x2158;" horiz-adv-x="1712" 
d="M1199 1495h178l-828 -1556h-178zM422 644v153h-383v29l261 608h166l-213 -493h174l30 192h124v-192h72v-144h-72v-153h-159zM1370 512q125 0 204.5 -73t79.5 -187q0 -115 -79 -190.5t-198 -75.5q-121 0 -199.5 73.5t-78.5 187.5h162q1 -49 33 -80.5t83 -31.5q49 0 81 33
t32 84q0 53 -34 86.5t-88 33.5h-227l-15 21l43 396h431v-146h-297l-15 -131h82z" />
    <glyph glyph-name="uni2159" unicode="&#x2159;" horiz-adv-x="1456" 
d="M953 1495h178l-827 -1556h-178zM175 644v642h-128v148h300v-790h-172zM1145 522q113 0 188 -71.5t75 -183.5q0 -125 -83.5 -204.5t-214.5 -79.5q-134 0 -218 78.5t-84 205.5q0 111 84 256l155 266h184l-140 -239q-11 -21 -23 -40q38 12 77 12zM1108 135q62 0 100 36.5
t38 95.5t-38.5 96t-99.5 37q-60 0 -99 -37.5t-39 -95.5q0 -59 39 -95.5t99 -36.5z" />
    <glyph glyph-name="uni215A" unicode="&#x215a;" horiz-adv-x="1671" 
d="M1167 1495h178l-827 -1556h-178zM614 896q0 -115 -79 -190.5t-198 -75.5q-121 0 -199.5 73.5t-78.5 187.5h162q1 -49 33 -80.5t83 -31.5q49 0 81 33t32 84q0 53 -34.5 86.5t-88.5 33.5h-226l-16 21l44 397h431v-147h-297l-15 -130h82q125 0 204.5 -73.5t79.5 -187.5z
M1359 522q113 0 188 -71.5t75 -183.5q0 -125 -83.5 -204.5t-214.5 -79.5q-134 0 -218 78.5t-84 205.5q0 111 84 256l155 266h185l-141 -239q-18 -34 -22 -40q37 12 76 12zM1322 135q62 0 100 36.5t38 95.5t-38.5 96t-99.5 37q-60 0 -99 -37.5t-39 -95.5q0 -59 39 -95.5
t99 -36.5z" />
    <glyph glyph-name="oneeighth" unicode="&#x215b;" horiz-adv-x="1515" 
d="M953 1495h178l-827 -1556h-178zM175 644v642h-128v148h300v-790h-172zM1344 424q102 -66 102 -184q0 -112 -83 -181t-208 -69t-207.5 69t-82.5 181q0 121 101 185q-79 62 -79 162t76 162t193 62q116 0 192 -62t76 -162q0 -102 -80 -163zM1157 678q-47 0 -79 -27t-32 -68
q0 -42 31.5 -68t79.5 -26q47 0 78 26.5t31 68.5q0 41 -31.5 67.5t-77.5 26.5zM1157 131q56 0 92 30t36 80t-36.5 81.5t-92.5 31.5t-93 -31.5t-37 -81.5q0 -49 37 -79.5t94 -30.5z" />
    <glyph glyph-name="threeeighths" unicode="&#x215c;" horiz-adv-x="1740" 
d="M1178 1495h178l-827 -1556h-178zM618 896q0 -116 -79.5 -191t-201.5 -75q-117 0 -193.5 73t-79.5 188h160q3 -49 34 -79.5t79 -30.5q53 0 86 33.5t33 87.5q0 53 -35.5 84.5t-93.5 31.5h-114v31l145 238h-275v147h507v-33l-166 -259q88 -20 141 -86.5t53 -159.5zM1569 424
q101 -66 101 -184q0 -112 -82.5 -181t-207.5 -69t-207.5 69t-82.5 181q0 121 101 185q-79 62 -79 162t76 162t193 62q116 0 192 -62t76 -162q0 -102 -80 -163zM1382 678q-47 0 -79 -27t-32 -68q0 -42 31.5 -68t79.5 -26q47 0 78 26.5t31 68.5q0 41 -31.5 67.5t-77.5 26.5z
M1382 131q56 0 91.5 30t35.5 80t-36.5 81.5t-92.5 31.5t-92.5 -31.5t-36.5 -81.5q0 -49 37 -79.5t94 -30.5z" />
    <glyph glyph-name="fiveeighths" unicode="&#x215d;" horiz-adv-x="1730" 
d="M1167 1495h178l-827 -1556h-178zM614 896q0 -115 -79 -190.5t-198 -75.5q-121 0 -199.5 73.5t-78.5 187.5h162q1 -49 33 -80.5t83 -31.5q49 0 81 33t32 84q0 53 -34.5 86.5t-88.5 33.5h-226l-16 21l44 397h431v-147h-297l-15 -130h82q125 0 204.5 -73.5t79.5 -187.5z
M1559 424q101 -66 101 -184q0 -112 -83 -181t-208 -69t-207.5 69t-82.5 181q0 121 101 185q-79 62 -79 162t76 162t193 62q116 0 192 -62t76 -162q0 -103 -79 -163zM1371 678q-47 0 -79 -27t-32 -68q0 -42 31.5 -68t79.5 -26q47 0 78 26.5t31 68.5q0 41 -31.5 67.5
t-77.5 26.5zM1371 131q56 0 92 30t36 80t-36.5 81.5t-92.5 31.5t-93 -31.5t-37 -81.5q0 -49 37 -79.5t94 -30.5z" />
    <glyph glyph-name="seveneighths" unicode="&#x215e;" horiz-adv-x="1613" 
d="M1051 1495h178l-827 -1556h-178zM306 644h-169l252 639h-341v151h558v-21zM1443 424q101 -66 101 -184q0 -112 -83 -181t-208 -69t-207.5 69t-82.5 181q0 121 101 185q-79 62 -79 162t76 162t193 62q116 0 192 -62t76 -162q0 -103 -79 -163zM1255 678q-47 0 -79 -27
t-32 -68q0 -42 31.5 -68t79.5 -26q47 0 78 26.5t31 68.5q0 41 -31.5 67.5t-77.5 26.5zM1255 131q56 0 92 30t36 80t-36.5 81.5t-92.5 31.5t-93 -31.5t-37 -81.5q0 -49 37 -79.5t94 -30.5z" />
    <glyph glyph-name="uni215F" unicode="&#x215f;" horiz-adv-x="794" 
d="M953 1495h178l-827 -1556h-178zM175 644v642h-128v148h300v-790h-172z" />
    <glyph glyph-name="uni2189" unicode="&#x2189;" horiz-adv-x="1806" 
d="M1281 1495h178l-827 -1556h-178zM715 1042q0 -190 -86.5 -301t-235.5 -111t-235.5 111t-86.5 301t86 299.5t236 109.5t236 -109.5t86 -299.5zM393 795q71 0 111.5 65t40.5 181t-40.5 180.5t-111.5 64.5t-110.5 -64t-39.5 -180q0 -117 39 -182t111 -65zM1547 498
q88 -20 141 -86.5t53 -159.5q0 -116 -80 -191t-202 -75q-117 0 -193.5 73t-79.5 188h161q3 -49 33.5 -79.5t78.5 -30.5q53 0 86 33.5t33 87.5q0 53 -35.5 84.5t-93.5 31.5h-114v30l145 239h-275v146h507v-32z" />
    <glyph glyph-name="arrowleft" unicode="&#x2190;" horiz-adv-x="1339" 
d="M1269 781v-202h-856l345 -347l-141 -126l-555 561v26l555 560l141 -125l-345 -347h856z" />
    <glyph glyph-name="arrowup" unicode="&#x2191;" horiz-adv-x="1247" 
d="M1197 791l-125 -141l-347 345v-856h-203v856l-347 -345l-125 141l561 555h25z" />
    <glyph glyph-name="arrowright" unicode="&#x2192;" horiz-adv-x="1339" 
d="M722 1253l555 -560v-26l-555 -561l-141 126l346 347h-856v202h856l-346 347z" />
    <glyph glyph-name="arrowdown" unicode="&#x2193;" horiz-adv-x="1247" 
d="M1072 809l125 -141l-561 -555h-25l-561 555l125 141l347 -346v856h203v-856z" />
    <glyph glyph-name="uni2196" unicode="&#x2196;" horiz-adv-x="1200" 
d="M1143 326l-143 -143l-673 682v-511h-187v818l23 22h817v-186h-511z" />
    <glyph glyph-name="uni2197" unicode="&#x2197;" horiz-adv-x="1200" 
d="M1037 1194l22 -22v-818h-186v511l-674 -682l-143 143l675 682h-511v186h817z" />
    <glyph glyph-name="uni2198" unicode="&#x2198;" horiz-adv-x="1245" 
d="M874 991h186v-817l-22 -22h-818v186h512l-675 682l143 143l674 -683v511z" />
    <glyph glyph-name="uni2199" unicode="&#x2199;" horiz-adv-x="1245" 
d="M1188 1020l-674 -682h511v-186h-817l-23 22v817h187v-511l674 683z" />
    <glyph glyph-name="partialdiff" unicode="&#x2202;" horiz-adv-x="1282" 
d="M526 1459q319 0 485.5 -166t166.5 -503q0 -169 -36 -327q-53 -231 -211.5 -360t-393.5 -129q-114 0 -205.5 35.5t-150 97.5t-89 142.5t-30.5 173.5q0 108 40 208.5t112.5 178.5t184 125t243.5 47q200 0 325 -123q-18 406 -461 406q-93 0 -233 -20v192q141 22 253 22z
M564 173q154 0 258.5 104t104.5 258q0 117 -77.5 190t-203.5 73q-154 0 -258.5 -102t-104.5 -254q0 -121 77 -195t204 -74z" />
    <glyph glyph-name="emptyset" unicode="&#x2205;" horiz-adv-x="1374" 
d="M1062 991q103 -78 160 -193.5t57 -253.5q0 -160 -75 -289.5t-206.5 -203t-293.5 -73.5q-119 0 -236 47l-63 -101h-211l120 191q-103 78 -161 194.5t-58 254.5q0 241 165 402.5t411 161.5q125 0 235 -46l59 97h210zM669 920q-154 0 -252 -99.5t-98 -256.5q0 -169 114 -270
l367 605q-60 21 -131 21zM704 186q153 0 251.5 100t98.5 258q0 165 -110 267l-366 -604q57 -21 126 -21z" />
    <glyph glyph-name="product" unicode="&#x220f;" horiz-adv-x="1503" 
d="M1434 1434v-220h-196v-1542h-241v1542h-491v-1542h-240v1542h-196v220h1364z" />
    <glyph glyph-name="summation" unicode="&#x2211;" horiz-adv-x="1226" 
d="M468 -110h673v-220h-1082v40l569 855l-569 829v40h1074v-218h-663l441 -635v-31z" />
    <glyph glyph-name="minus" unicode="&#x2212;" horiz-adv-x="1267" 
d="M142 585v209h983v-209h-983z" />
    <glyph glyph-name="radical" unicode="&#x221a;" horiz-adv-x="1390" 
d="M656 0l-349 831h-278v195h416l259 -632l483 1142h228l-667 -1536h-92z" />
    <glyph glyph-name="infinity" unicode="&#x221e;" horiz-adv-x="1980" 
d="M1460 1092q182 0 302 -114.5t120 -291.5q0 -178 -120 -292t-302 -114q-74 0 -141 21t-126 61.5t-104.5 83t-97.5 102.5q-53 -60 -98.5 -102t-104.5 -83t-126.5 -62t-141.5 -21q-182 0 -302 115.5t-120 290.5q0 177 120 291.5t302 114.5q74 0 141 -21t126.5 -61.5t105 -83
t98.5 -101.5q52 60 97.5 102t104 82.5t126 61.5t141.5 21zM533 467q91 0 169 56t170 163q-92 107 -170 163t-169 56q-106 0 -170 -59.5t-64 -159.5t63.5 -159.5t170.5 -59.5zM1450 467q106 0 168.5 59.5t62.5 159.5t-62.5 159.5t-168.5 59.5q-92 0 -169 -55.5t-171 -163.5
q93 -107 171 -163t169 -56z" />
    <glyph glyph-name="integral" unicode="&#x222b;" horiz-adv-x="806" 
d="M-13 -623v207h56q123 0 187 64t64 187v1653q0 188 107.5 296t294.5 108h123v-206h-57q-119 0 -181 -62.5t-62 -181.5v-1653q0 -192 -109.5 -302t-299.5 -110h-123z" />
    <glyph glyph-name="approxequal" unicode="&#x2248;" horiz-adv-x="1206" 
d="M801 736q-71 0 -130 26t-128 85q-44 38 -70 52.5t-53 14.5q-51 0 -84.5 -40.5t-33.5 -103.5v-29h-162v36q0 153 75 243.5t203 90.5q72 0 128.5 -26t119.5 -85q45 -40 72.5 -55t58.5 -15q52 0 84.5 39t32.5 103v31h161v-34q0 -154 -73.5 -243.5t-200.5 -89.5zM804 269
q-71 0 -130 26t-128 85q-44 38 -70 52.5t-53 14.5q-51 0 -84.5 -40t-33.5 -103v-29h-162v35q0 153 75 244t203 91q72 0 128.5 -26t119.5 -85q45 -40 72.5 -55t58.5 -15q52 0 84.5 39t32.5 103v31h161v-34q0 -154 -73.5 -244t-200.5 -90z" />
    <glyph glyph-name="notequal" unicode="&#x2260;" horiz-adv-x="1267" 
d="M1125 809h-374l-61 -241h435v-209h-488l-68 -271h-191l68 271h-304v209h357l61 241h-418v210h471l72 289h191l-73 -289h322v-210z" />
    <glyph glyph-name="lessequal" unicode="&#x2264;" horiz-adv-x="1132" 
d="M994 539v-218l-914 474v89l914 484v-214l-565 -313zM123 205h879v-205h-879v205z" />
    <glyph glyph-name="greaterequal" unicode="&#x2265;" horiz-adv-x="1132" 
d="M138 1368l914 -484v-89l-914 -474v218l566 302l-566 313v214zM130 0v205h880v-205h-880z" />
    <glyph glyph-name="lozenge" unicode="&#x25ca;" horiz-adv-x="1140" 
d="M554 0l-488 703v32l488 699h32l488 -699v-32l-488 -703h-32zM570 269l314 450l-314 448l-314 -450z" />
    <glyph glyph-name="K.ss01" horiz-adv-x="1298" 
d="M182 0v1434h236v-1434h-236zM706 745l608 -745h-304l-589 726v25l548 683h292z" />
    <glyph glyph-name="K.ss03" horiz-adv-x="1298" 
d="M182 0v1434h236v-1434h-236zM706 745l608 -745h-304l-589 726v25l548 683h292z" />
    <glyph glyph-name="K.ss04" horiz-adv-x="1298" 
d="M182 0v1434h236v-1434h-236zM706 745l608 -745h-304l-589 726v25l548 683h292z" />
    <glyph glyph-name="germandbls.calt" horiz-adv-x="1443" 
d="M994 923q169 -32 266 -149t97 -294q0 -212 -144 -346t-387 -134h-191v224h191q129 0 210 72.5t81 185.5q0 115 -80.5 187.5t-210.5 72.5h-153v42l228 427h-225q-131 0 -200 -68t-69 -199v-944h-238v968q0 215 126 340.5t341 125.5h608v-40z" />
    <glyph glyph-name="i.loclTRK" horiz-adv-x="550" 
d="M158 1275v237h235v-237h-235zM162 0v1106h227v-1106h-227z" />
    <glyph glyph-name="k.ss01" horiz-adv-x="1099" 
d="M162 0v1502h227v-1502h-227zM655 576l455 -576h-284l-427 564v19l402 523h272z" />
    <glyph glyph-name="k.ss03" horiz-adv-x="1099" 
d="M162 0v1502h227v-1502h-227zM655 576l455 -576h-284l-427 564v19l402 523h272z" />
    <glyph glyph-name="k.ss04" horiz-adv-x="1099" 
d="M162 0v1502h227v-1502h-227zM655 576l455 -576h-284l-427 564v19l402 523h272z" />
    <glyph glyph-name="uni0414.loclBGR" horiz-adv-x="1552" 
d="M1371 219h118v-488h-217v269h-991v-269h-218v488h117l482 1215h218zM771 1105l-348 -886h700z" />
    <glyph glyph-name="uni041B.loclBGR" horiz-adv-x="1392" 
d="M1359 0h-255l-407 1107l-417 -1107h-247l553 1434h221z" />
    <glyph glyph-name="uni0416.ss01" horiz-adv-x="1933" 
d="M47 1434h290l506 -682v-26l-550 -726h-299l573 746zM846 0v1434h236v-1434h-236zM1363 746l578 -746h-300l-558 727v23l513 684h290z" />
    <glyph glyph-name="uni041A.ss01" horiz-adv-x="1298" 
d="M182 0v1434h236v-1434h-236zM706 745l608 -745h-304l-589 726v25l548 683h292z" />
    <glyph glyph-name="uni0424.ss01" horiz-adv-x="1806" 
d="M1713 719q0 -142 -47 -271.5t-133.5 -231.5t-220 -166.5t-295.5 -73.5v-219h-229v219q-161 9 -294.5 74t-220 166.5t-134 230t-47.5 268.5q0 141 47.5 270t134 231t220 167t294.5 74v193h229v-192q162 -9 295.5 -73t220 -165.5t133.5 -230.5t47 -270zM1016 199
q105 9 192.5 55t145 116.5t89 160t31.5 186.5q0 130 -53.5 241.5t-159.5 186.5t-245 87v-1033zM331 717q0 -201 125 -350t333 -168v1033q-139 -13 -244.5 -87.5t-159.5 -186t-54 -241.5z" />
    <glyph glyph-name="uni0414.ss02" horiz-adv-x="1552" 
d="M1371 219h118v-488h-217v269h-991v-269h-218v488h117l482 1215h218zM771 1105l-348 -886h700z" />
    <glyph glyph-name="uni041B.ss02" horiz-adv-x="1392" 
d="M1359 0h-255l-407 1107l-417 -1107h-247l553 1434h221z" />
    <glyph glyph-name="uni0414.ss03" horiz-adv-x="1552" 
d="M1371 219h118v-488h-217v269h-991v-269h-218v488h117l482 1215h218zM771 1105l-348 -886h700z" />
    <glyph glyph-name="uni0416.ss03" horiz-adv-x="1933" 
d="M47 1434h290l506 -682v-26l-550 -726h-299l573 746zM846 0v1434h236v-1434h-236zM1363 746l578 -746h-300l-558 727v23l513 684h290z" />
    <glyph glyph-name="uni041A.ss03" horiz-adv-x="1298" 
d="M182 0v1434h236v-1434h-236zM706 745l608 -745h-304l-589 726v25l548 683h292z" />
    <glyph glyph-name="uni041B.ss03" horiz-adv-x="1392" 
d="M1359 0h-255l-407 1107l-417 -1107h-247l553 1434h221z" />
    <glyph glyph-name="uni0416.ss04" horiz-adv-x="1933" 
d="M47 1434h290l506 -682v-26l-550 -726h-299l573 746zM846 0v1434h236v-1434h-236zM1363 746l578 -746h-300l-558 727v23l513 684h290z" />
    <glyph glyph-name="uni041A.ss04" horiz-adv-x="1298" 
d="M182 0v1434h236v-1434h-236zM706 745l608 -745h-304l-589 726v25l548 683h292z" />
    <glyph glyph-name="uni0424.ss04" horiz-adv-x="1687" 
d="M961 1373q149 -9 272.5 -66t204 -146.5t124 -203t43.5 -237.5q0 -123 -43.5 -236t-124 -201.5t-203.5 -145.5t-272 -66v-163h-237v163q-149 9 -272 66t-203 146t-123.5 201.5t-43.5 235.5q0 124 44 237.5t124 203t203 146.5t272 66v148h235v-148zM323 720
q0 -113 48.5 -208.5t142.5 -156.5t216 -67v873q-183 -13 -295 -140t-112 -301zM957 288q184 9 295 133.5t111 298.5q0 114 -48 210.5t-141.5 159t-216.5 71.5v-873z" />
    <glyph glyph-name="uni0424.ss05" horiz-adv-x="1687" 
d="M961 1373q149 -9 272.5 -66t204 -146.5t124 -203t43.5 -237.5q0 -123 -43.5 -236t-124 -201.5t-203.5 -145.5t-272 -66v-163h-237v163q-149 9 -272 66t-203 146t-123.5 201.5t-43.5 235.5q0 124 44 237.5t124 203t203 146.5t272 66v148h235v-148zM323 720
q0 -113 48.5 -208.5t142.5 -156.5t216 -67v873q-183 -13 -295 -140t-112 -301zM957 288q184 9 295 133.5t111 298.5q0 114 -48 210.5t-141.5 159t-216.5 71.5v-873z" />
    <glyph glyph-name="uni0432.loclBGR" horiz-adv-x="1275" 
d="M978 792q103 -55 159 -153.5t56 -215.5q0 -132 -71 -235t-190.5 -157.5t-265.5 -54.5q-247 0 -387 154t-140 426v408q0 264 140.5 414t382.5 150q206 0 341 -114.5t135 -294.5q0 -96 -42 -183t-118 -144zM662 1320q-144 0 -223 -90t-79 -266v-81h308q120 0 191 61t71 162
q0 98 -73 156t-195 58zM665 189q136 0 219.5 68.5t83.5 178.5q0 109 -78.5 175t-208.5 66h-321v-121q0 -181 78 -274t227 -93z" />
    <glyph glyph-name="uni0433.loclBGR" horiz-adv-x="1058" 
d="M531 -21q-204 0 -329 92.5t-125 245.5q0 42 8.5 78t21 64t35.5 52t42.5 40.5t53.5 32t57 24.5t63 19t62.5 15t64.5 13q46 9 68.5 14t59 15t55 20.5t38.5 25.5t28.5 35t8.5 45q0 59 -57 95t-152 36q-102 0 -156.5 -43.5t-54.5 -126.5h-205q-1 167 112.5 263t301.5 96
q190 0 307.5 -88.5t117.5 -231.5q0 -41 -8 -76.5t-20 -63t-34.5 -51t-42 -39.5t-51.5 -31t-55 -24t-61.5 -18.5t-60.5 -14t-62 -12.5q-53 -10 -81.5 -16t-68 -19t-60 -28t-35.5 -39.5t-15 -56.5q0 -63 63 -100t166 -37q109 0 170 47.5t61 134.5h217q0 -179 -122.5 -283
t-325.5 -104z" />
    <glyph glyph-name="uni0434.loclBGR" horiz-adv-x="1378" 
d="M1067 1106h149v-961q0 -265 -147.5 -416.5t-404.5 -151.5q-212 0 -355.5 103.5t-185.5 285.5h227q31 -88 117.5 -138t194.5 -50q146 0 238.5 90.5t92.5 245.5v51q-154 -133 -366 -133q-152 0 -277 72.5t-197 198.5t-72 279q0 152 71.5 278.5t197 199.5t277.5 73
q119 0 223.5 -45t180.5 -125zM653 243q147 0 243 96t96 243t-95.5 243t-243.5 96q-147 0 -244 -96.5t-97 -242.5t97 -242.5t244 -96.5z" />
    <glyph glyph-name="uni0436.loclBGR" horiz-adv-x="1644" 
d="M1373 0l-311 472h-130v-472h-219v472h-129l-311 -472h-274l392 578l-351 528h258l286 -432h129v831h219v-831h129l286 432h258l-350 -528l391 -578h-273z" />
    <glyph glyph-name="uni0437.loclBGR" horiz-adv-x="1169" 
d="M889 398q96 -54 150.5 -152t54.5 -217q0 -198 -146 -326t-370 -128q-218 0 -359.5 123t-155.5 321h223q13 -101 93.5 -163.5t198.5 -62.5q125 0 206 71t81 181q0 104 -73 170.5t-186 66.5h-189l-1 212h186q90 0 149.5 59t59.5 149q0 94 -69 153t-177 59q-105 0 -175 -58
t-79 -151h-219q8 189 139 307.5t334 118.5q204 0 339.5 -117.5t135.5 -296.5q0 -95 -39.5 -178.5t-111.5 -140.5z" />
    <glyph glyph-name="uni0438.loclBGR" horiz-adv-x="1314" 
d="M925 1106h227v-1106h-166l-39 151q-64 -83 -162.5 -129.5t-217.5 -46.5q-192 0 -306 129t-114 336v666h227v-620q0 -151 64 -229t190 -78q130 0 213.5 94.5t83.5 240.5v592z" />
    <glyph glyph-name="uni0439.loclBGR" horiz-adv-x="1314" 
d="M934 1470v-169h-549v169h549zM925 1106h227v-1106h-166l-39 151q-64 -83 -162.5 -129.5t-217.5 -46.5q-192 0 -306 129t-114 336v666h227v-620q0 -151 64 -229t190 -78q130 0 213.5 94.5t83.5 240.5v592z" />
    <glyph glyph-name="uni043A.loclBGR" horiz-adv-x="1163" 
d="M881 0l-331 472h-138v-472h-227v1502h227v-824h140l298 428h270l-375 -531l414 -575h-278z" />
    <glyph glyph-name="uni043B.loclBGR" horiz-adv-x="1110" 
d="M1079 0h-232l-291 806l-298 -806h-227l421 1106h208z" />
    <glyph glyph-name="uni043F.loclBGR" horiz-adv-x="1314" 
d="M747 1131q192 0 306 -129t114 -336v-666h-227v620q0 151 -64.5 229t-189.5 78q-130 0 -213.5 -94.5t-83.5 -240.5v-592h-227v1106h158l45 -154q64 85 163 132t219 47z" />
    <glyph glyph-name="uni0442.loclBGR" horiz-adv-x="1935" 
d="M1398 1131q174 0 282.5 -120t108.5 -308v-703h-227v647q0 134 -56 207t-159 73q-111 0 -185.5 -91t-74.5 -231v-605h-222v647q0 134 -55.5 207t-159.5 73q-111 0 -186 -91t-75 -231v-605h-227v1106h161l39 -143q63 79 153.5 123.5t190.5 44.5q111 0 197.5 -51.5
t134.5 -142.5q61 90 156 142t204 52z" />
    <glyph glyph-name="uni0446.loclBGR" horiz-adv-x="1392" 
d="M1152 374q0 -115 48 -170t147 -55v-427h-209v299q-120 25 -167 149q-68 -91 -173.5 -143t-231.5 -52q-191 0 -305 129t-114 336v666h227v-617q0 -152 65 -231t191 -79q130 0 212.5 94.5t82.5 242.5v590h227v-732z" />
    <glyph glyph-name="uni0448.loclBGR" horiz-adv-x="1935" 
d="M1545 1106h227v-1106h-164l-36 141q-63 -77 -153.5 -121.5t-189.5 -44.5q-110 0 -196 52t-134 143q-61 -91 -157.5 -143t-205.5 -52q-174 0 -281.5 119t-107.5 306v706h227v-648q0 -135 55.5 -207t159.5 -72q111 0 185.5 91t74.5 231v605h222v-648q0 -135 55 -207
t160 -72q110 0 184.5 91.5t74.5 230.5v605z" />
    <glyph glyph-name="uni0449.loclBGR" horiz-adv-x="2015" 
d="M1774 374q0 -116 48 -171t145 -55v-426h-208v297q-117 26 -167 143q-62 -87 -158.5 -137t-204.5 -50q-110 0 -196 52t-134 144q-61 -91 -157.5 -143.5t-205.5 -52.5q-174 0 -281.5 119.5t-107.5 307.5v704h227v-648q0 -135 55.5 -207t159.5 -72q111 0 185.5 91t74.5 231
v605h222v-648q0 -135 55 -207t160 -72q111 0 186 91.5t75 230.5v605h227v-732z" />
    <glyph glyph-name="uni044E.loclBGR" horiz-adv-x="1773" 
d="M1114 1133q249 0 413.5 -165.5t164.5 -415.5q0 -249 -164.5 -414t-413.5 -165q-220 0 -375 132t-189 342h-162v-448h-226v1500h226v-840h162q35 211 190 342.5t374 131.5zM1114 190q151 0 249 102.5t98 259.5t-99 260.5t-248 103.5q-151 0 -249 -103t-98 -261
q0 -157 98 -259.5t249 -102.5z" />
    <glyph glyph-name="uni0436.ss01" horiz-adv-x="1638" 
d="M34 1106h263l406 -526v-21l-446 -559h-265l454 576zM707 0v1106h219v-1106h-219zM1189 577l458 -577h-265l-451 559v19l410 528h264z" />
    <glyph glyph-name="uni043A.ss01" horiz-adv-x="1103" 
d="M162 0v1106h227v-1106h-227zM656 577l458 -577h-273l-433 564v19l407 523h258z" />
    <glyph glyph-name="uni0432.ss02" horiz-adv-x="1275" 
d="M978 792q103 -55 159 -153.5t56 -215.5q0 -132 -71 -235t-190.5 -157.5t-265.5 -54.5q-247 0 -387 154t-140 426v408q0 264 140.5 414t382.5 150q206 0 341 -114.5t135 -294.5q0 -96 -42 -183t-118 -144zM662 1320q-144 0 -223 -90t-79 -266v-81h308q120 0 191 61t71 162
q0 98 -73 156t-195 58zM665 189q136 0 219.5 68.5t83.5 178.5q0 109 -78.5 175t-208.5 66h-321v-121q0 -181 78 -274t227 -93z" />
    <glyph glyph-name="uni0433.ss02" horiz-adv-x="1058" 
d="M531 -21q-204 0 -329 92.5t-125 245.5q0 42 8.5 78t21 64t35.5 52t42.5 40.5t53.5 32t57 24.5t63 19t62.5 15t64.5 13q46 9 68.5 14t59 15t55 20.5t38.5 25.5t28.5 35t8.5 45q0 59 -57 95t-152 36q-102 0 -156.5 -43.5t-54.5 -126.5h-205q-1 167 112.5 263t301.5 96
q190 0 307.5 -88.5t117.5 -231.5q0 -41 -8 -76.5t-20 -63t-34.5 -51t-42 -39.5t-51.5 -31t-55 -24t-61.5 -18.5t-60.5 -14t-62 -12.5q-53 -10 -81.5 -16t-68 -19t-60 -28t-35.5 -39.5t-15 -56.5q0 -63 63 -100t166 -37q109 0 170 47.5t61 134.5h217q0 -179 -122.5 -283
t-325.5 -104z" />
    <glyph glyph-name="uni0434.ss02" horiz-adv-x="1378" 
d="M1067 1106h149v-961q0 -265 -147.5 -416.5t-404.5 -151.5q-212 0 -355.5 103.5t-185.5 285.5h227q31 -88 117.5 -138t194.5 -50q146 0 238.5 90.5t92.5 245.5v51q-154 -133 -366 -133q-152 0 -277 72.5t-197 198.5t-72 279q0 152 71.5 278.5t197 199.5t277.5 73
q119 0 223.5 -45t180.5 -125zM653 243q147 0 243 96t96 243t-95.5 243t-243.5 96q-147 0 -244 -96.5t-97 -242.5t97 -242.5t244 -96.5z" />
    <glyph glyph-name="uni0436.ss02" horiz-adv-x="1644" 
d="M1373 0l-311 472h-130v-472h-219v472h-129l-311 -472h-274l392 578l-351 528h258l286 -432h129v831h219v-831h129l286 432h258l-350 -528l391 -578h-273z" />
    <glyph glyph-name="uni0437.ss02" horiz-adv-x="1169" 
d="M889 398q96 -54 150.5 -152t54.5 -217q0 -198 -146 -326t-370 -128q-218 0 -359.5 123t-155.5 321h223q13 -101 93.5 -163.5t198.5 -62.5q125 0 206 71t81 181q0 104 -73 170.5t-186 66.5h-189l-1 212h186q90 0 149.5 59t59.5 149q0 94 -69 153t-177 59q-105 0 -175 -58
t-79 -151h-219q8 189 139 307.5t334 118.5q204 0 339.5 -117.5t135.5 -296.5q0 -95 -39.5 -178.5t-111.5 -140.5z" />
    <glyph glyph-name="uni0438.ss02" horiz-adv-x="1314" 
d="M925 1106h227v-1106h-166l-39 151q-64 -83 -162.5 -129.5t-217.5 -46.5q-192 0 -306 129t-114 336v666h227v-620q0 -151 64 -229t190 -78q130 0 213.5 94.5t83.5 240.5v592z" />
    <glyph glyph-name="uni0439.ss02" horiz-adv-x="1314" 
d="M934 1470v-169h-549v169h549zM925 1106h227v-1106h-166l-39 151q-64 -83 -162.5 -129.5t-217.5 -46.5q-192 0 -306 129t-114 336v666h227v-620q0 -151 64 -229t190 -78q130 0 213.5 94.5t83.5 240.5v592z" />
    <glyph glyph-name="uni043A.ss02" horiz-adv-x="1163" 
d="M881 0l-331 472h-138v-472h-227v1502h227v-824h140l298 428h270l-375 -531l414 -575h-278z" />
    <glyph glyph-name="uni043B.ss02" horiz-adv-x="1110" 
d="M1079 0h-232l-291 806l-298 -806h-227l421 1106h208z" />
    <glyph glyph-name="uni043F.ss02" horiz-adv-x="1314" 
d="M747 1131q192 0 306 -129t114 -336v-666h-227v620q0 151 -64.5 229t-189.5 78q-130 0 -213.5 -94.5t-83.5 -240.5v-592h-227v1106h158l45 -154q64 85 163 132t219 47z" />
    <glyph glyph-name="uni0442.ss02" horiz-adv-x="1935" 
d="M1398 1131q174 0 282.5 -120t108.5 -308v-703h-227v647q0 134 -56 207t-159 73q-111 0 -185.5 -91t-74.5 -231v-605h-222v647q0 134 -55.5 207t-159.5 73q-111 0 -186 -91t-75 -231v-605h-227v1106h161l39 -143q63 79 153.5 123.5t190.5 44.5q111 0 197.5 -51.5
t134.5 -142.5q61 90 156 142t204 52z" />
    <glyph glyph-name="uni0446.ss02" horiz-adv-x="1392" 
d="M1152 374q0 -115 48 -170t147 -55v-427h-209v299q-120 25 -167 149q-68 -91 -173.5 -143t-231.5 -52q-191 0 -305 129t-114 336v666h227v-617q0 -152 65 -231t191 -79q130 0 212.5 94.5t82.5 242.5v590h227v-732z" />
    <glyph glyph-name="uni0448.ss02" horiz-adv-x="1935" 
d="M1545 1106h227v-1106h-164l-36 141q-63 -77 -153.5 -121.5t-189.5 -44.5q-110 0 -196 52t-134 143q-61 -91 -157.5 -143t-205.5 -52q-174 0 -281.5 119t-107.5 306v706h227v-648q0 -135 55.5 -207t159.5 -72q111 0 185.5 91t74.5 231v605h222v-648q0 -135 55 -207
t160 -72q110 0 184.5 91.5t74.5 230.5v605z" />
    <glyph glyph-name="uni0449.ss02" horiz-adv-x="2015" 
d="M1774 374q0 -116 48 -171t145 -55v-426h-208v297q-117 26 -167 143q-62 -87 -158.5 -137t-204.5 -50q-110 0 -196 52t-134 144q-61 -91 -157.5 -143.5t-205.5 -52.5q-174 0 -281.5 119.5t-107.5 307.5v704h227v-648q0 -135 55.5 -207t159.5 -72q111 0 185.5 91t74.5 231
v605h222v-648q0 -135 55 -207t160 -72q111 0 186 91.5t75 230.5v605h227v-732z" />
    <glyph glyph-name="uni044E.ss02" horiz-adv-x="1773" 
d="M1114 1133q249 0 413.5 -165.5t164.5 -415.5q0 -249 -164.5 -414t-413.5 -165q-220 0 -375 132t-189 342h-162v-448h-226v1500h226v-840h162q35 211 190 342.5t374 131.5zM1114 190q151 0 249 102.5t98 259.5t-99 260.5t-248 103.5q-151 0 -249 -103t-98 -261
q0 -157 98 -259.5t249 -102.5z" />
    <glyph glyph-name="uni0432.ss03" horiz-adv-x="1275" 
d="M978 792q103 -55 159 -153.5t56 -215.5q0 -132 -71 -235t-190.5 -157.5t-265.5 -54.5q-247 0 -387 154t-140 426v408q0 264 140.5 414t382.5 150q206 0 341 -114.5t135 -294.5q0 -96 -42 -183t-118 -144zM662 1320q-144 0 -223 -90t-79 -266v-81h308q120 0 191 61t71 162
q0 98 -73 156t-195 58zM665 189q136 0 219.5 68.5t83.5 178.5q0 109 -78.5 175t-208.5 66h-321v-121q0 -181 78 -274t227 -93z" />
    <glyph glyph-name="uni0433.ss03" horiz-adv-x="1058" 
d="M531 -21q-204 0 -329 92.5t-125 245.5q0 42 8.5 78t21 64t35.5 52t42.5 40.5t53.5 32t57 24.5t63 19t62.5 15t64.5 13q46 9 68.5 14t59 15t55 20.5t38.5 25.5t28.5 35t8.5 45q0 59 -57 95t-152 36q-102 0 -156.5 -43.5t-54.5 -126.5h-205q-1 167 112.5 263t301.5 96
q190 0 307.5 -88.5t117.5 -231.5q0 -41 -8 -76.5t-20 -63t-34.5 -51t-42 -39.5t-51.5 -31t-55 -24t-61.5 -18.5t-60.5 -14t-62 -12.5q-53 -10 -81.5 -16t-68 -19t-60 -28t-35.5 -39.5t-15 -56.5q0 -63 63 -100t166 -37q109 0 170 47.5t61 134.5h217q0 -179 -122.5 -283
t-325.5 -104z" />
    <glyph glyph-name="uni0434.ss03" horiz-adv-x="1378" 
d="M1067 1106h149v-961q0 -265 -147.5 -416.5t-404.5 -151.5q-212 0 -355.5 103.5t-185.5 285.5h227q31 -88 117.5 -138t194.5 -50q146 0 238.5 90.5t92.5 245.5v51q-154 -133 -366 -133q-152 0 -277 72.5t-197 198.5t-72 279q0 152 71.5 278.5t197 199.5t277.5 73
q119 0 223.5 -45t180.5 -125zM653 243q147 0 243 96t96 243t-95.5 243t-243.5 96q-147 0 -244 -96.5t-97 -242.5t97 -242.5t244 -96.5z" />
    <glyph glyph-name="uni0436.ss03" horiz-adv-x="1638" 
d="M707 0v1502h219v-1502h-219zM34 1106h263l406 -526v-21l-446 -559h-265l454 576zM1189 577l458 -577h-265l-451 559v19l410 528h264z" />
    <glyph glyph-name="uni0437.ss03" horiz-adv-x="1169" 
d="M889 398q96 -54 150.5 -152t54.5 -217q0 -198 -146 -326t-370 -128q-218 0 -359.5 123t-155.5 321h223q13 -101 93.5 -163.5t198.5 -62.5q125 0 206 71t81 181q0 104 -73 170.5t-186 66.5h-189l-1 212h186q90 0 149.5 59t59.5 149q0 94 -69 153t-177 59q-105 0 -175 -58
t-79 -151h-219q8 189 139 307.5t334 118.5q204 0 339.5 -117.5t135.5 -296.5q0 -95 -39.5 -178.5t-111.5 -140.5z" />
    <glyph glyph-name="uni0438.ss03" horiz-adv-x="1314" 
d="M925 1106h227v-1106h-166l-39 151q-64 -83 -162.5 -129.5t-217.5 -46.5q-192 0 -306 129t-114 336v666h227v-620q0 -151 64 -229t190 -78q130 0 213.5 94.5t83.5 240.5v592z" />
    <glyph glyph-name="uni0439.ss03" horiz-adv-x="1314" 
d="M934 1470v-169h-549v169h549zM925 1106h227v-1106h-166l-39 151q-64 -83 -162.5 -129.5t-217.5 -46.5q-192 0 -306 129t-114 336v666h227v-620q0 -151 64 -229t190 -78q130 0 213.5 94.5t83.5 240.5v592z" />
    <glyph glyph-name="uni043A.ss03" horiz-adv-x="1103" 
d="M162 0v1502h227v-1502h-227zM656 577l458 -577h-273l-433 564v19l407 523h258z" />
    <glyph glyph-name="uni043B.ss03" horiz-adv-x="1110" 
d="M1079 0h-232l-291 806l-298 -806h-227l421 1106h208z" />
    <glyph glyph-name="uni043F.ss03" horiz-adv-x="1314" 
d="M747 1131q192 0 306 -129t114 -336v-666h-227v620q0 151 -64.5 229t-189.5 78q-130 0 -213.5 -94.5t-83.5 -240.5v-592h-227v1106h158l45 -154q64 85 163 132t219 47z" />
    <glyph glyph-name="uni0442.ss03" horiz-adv-x="1935" 
d="M1398 1131q174 0 282.5 -120t108.5 -308v-703h-227v647q0 134 -56 207t-159 73q-111 0 -185.5 -91t-74.5 -231v-605h-222v647q0 134 -55.5 207t-159.5 73q-111 0 -186 -91t-75 -231v-605h-227v1106h161l39 -143q63 79 153.5 123.5t190.5 44.5q111 0 197.5 -51.5
t134.5 -142.5q61 90 156 142t204 52z" />
    <glyph glyph-name="uni0446.ss03" horiz-adv-x="1392" 
d="M1152 374q0 -115 48 -170t147 -55v-427h-209v299q-120 25 -167 149q-68 -91 -173.5 -143t-231.5 -52q-191 0 -305 129t-114 336v666h227v-617q0 -152 65 -231t191 -79q130 0 212.5 94.5t82.5 242.5v590h227v-732z" />
    <glyph glyph-name="uni0448.ss03" horiz-adv-x="1935" 
d="M1545 1106h227v-1106h-164l-36 141q-63 -77 -153.5 -121.5t-189.5 -44.5q-110 0 -196 52t-134 143q-61 -91 -157.5 -143t-205.5 -52q-174 0 -281.5 119t-107.5 306v706h227v-648q0 -135 55.5 -207t159.5 -72q111 0 185.5 91t74.5 231v605h222v-648q0 -135 55 -207
t160 -72q110 0 184.5 91.5t74.5 230.5v605z" />
    <glyph glyph-name="uni0449.ss03" horiz-adv-x="2015" 
d="M1774 374q0 -116 48 -171t145 -55v-426h-208v297q-117 26 -167 143q-62 -87 -158.5 -137t-204.5 -50q-110 0 -196 52t-134 144q-61 -91 -157.5 -143.5t-205.5 -52.5q-174 0 -281.5 119.5t-107.5 307.5v704h227v-648q0 -135 55.5 -207t159.5 -72q111 0 185.5 91t74.5 231
v605h222v-648q0 -135 55 -207t160 -72q111 0 186 91.5t75 230.5v605h227v-732z" />
    <glyph glyph-name="uni044E.ss03" horiz-adv-x="1773" 
d="M1114 1133q249 0 413.5 -165.5t164.5 -415.5q0 -249 -164.5 -414t-413.5 -165q-220 0 -375 132t-189 342h-162v-448h-226v1500h226v-840h162q35 211 190 342.5t374 131.5zM1114 190q151 0 249 102.5t98 259.5t-99 260.5t-248 103.5q-151 0 -249 -103t-98 -261
q0 -157 98 -259.5t249 -102.5z" />
    <glyph glyph-name="uni0436.ss04" horiz-adv-x="1638" 
d="M34 1106h263l406 -526v-21l-446 -559h-265l454 576zM707 0v1106h219v-1106h-219zM1189 577l458 -577h-265l-451 559v19l410 528h264z" />
    <glyph glyph-name="uni043A.ss04" horiz-adv-x="1103" 
d="M162 0v1106h227v-1106h-227zM656 577l458 -577h-273l-433 564v19l407 523h258z" />
    <glyph glyph-name="zero.sinf" horiz-adv-x="786" 
d="M393 -153q-149 0 -235.5 110.5t-86.5 300.5t86 299.5t236 109.5t236 -109.5t86 -299.5t-86.5 -300.5t-235.5 -110.5zM393 11q71 0 111.5 65t40.5 181t-40.5 181t-111.5 65t-110.5 -64t-39.5 -181t39 -182t111 -65z" />
    <glyph glyph-name="one.sinf" horiz-adv-x="458" 
d="M47 651h300v-789h-172v641h-128v148z" />
    <glyph glyph-name="two.sinf" horiz-adv-x="684" 
d="M365 21h250v-157h-560v38q172 198 245.5 289.5t100 140t26.5 90.5q0 44 -25.5 70.5t-66.5 26.5q-45 0 -72 -27.5t-27 -72.5v-16h-165v15q0 115 71 183.5t191 68.5q117 0 190.5 -68.5t73.5 -177.5q0 -75 -46 -156.5t-186 -246.5z" />
    <glyph glyph-name="three.sinf" horiz-adv-x="681" 
d="M424 358q88 -20 141 -86t53 -159q0 -116 -79.5 -191.5t-201.5 -75.5q-117 0 -193.5 73.5t-79.5 188.5h160q3 -49 34 -80t79 -31q53 0 86 33.5t33 87.5q0 53 -35.5 85t-93.5 32h-114v30l145 239h-275v146h507v-33z" />
    <glyph glyph-name="four.sinf" horiz-adv-x="704" 
d="M651 158v-144h-71v-152h-160v152h-383v30l262 607h166l-213 -493h174l30 193h124v-193h71z" />
    <glyph glyph-name="five.sinf" horiz-adv-x="671" 
d="M330 374q125 0 204.5 -73t79.5 -187q0 -115 -79 -191t-198 -76q-121 0 -199.5 74t-78.5 188h162q1 -49 33 -80.5t83 -31.5q49 0 81 33t32 84q0 53 -34.5 86.5t-88.5 33.5h-226l-16 21l44 396h431v-146h-297l-15 -131h82z" />
    <glyph glyph-name="six.sinf" horiz-adv-x="712" 
d="M401 384q113 0 188.5 -71.5t75.5 -182.5q0 -125 -84 -204.5t-215 -79.5q-134 0 -217.5 78.5t-83.5 205.5q0 112 83 255l156 267h184l-140 -239q-11 -21 -23 -40q34 11 76 11zM364 -3q61 0 99.5 37t38.5 96t-38.5 95.5t-99.5 36.5q-60 0 -98.5 -37t-38.5 -95
q0 -59 38.5 -96t98.5 -37z" />
    <glyph glyph-name="seven.sinf" horiz-adv-x="643" 
d="M48 652h558v-22l-300 -768h-169l252 639h-341v151z" />
    <glyph glyph-name="eight.sinf" horiz-adv-x="720" 
d="M550 281q101 -66 101 -184q0 -112 -83 -181t-208 -69t-207 69t-82 181q0 120 101 184q-79 62 -79 163q0 100 76 161.5t193 61.5q116 0 191.5 -61.5t75.5 -161.5q0 -103 -79 -163zM362 534q-48 0 -79.5 -26.5t-31.5 -67.5q0 -42 31.5 -68t79.5 -26q47 0 78 26.5t31 68.5
q0 41 -31.5 67t-77.5 26zM362 -12q56 0 92 30t36 80t-36.5 81.5t-92.5 31.5t-92.5 -31.5t-36.5 -81.5q0 -49 37 -79.5t93 -30.5z" />
    <glyph glyph-name="nine.sinf" horiz-adv-x="712" 
d="M346 670q134 0 218 -78.5t84 -205.5q0 -110 -84 -256l-155 -266h-184l137 234q5 9 14 24t11 19q-34 -10 -75 -10q-113 0 -188.5 72t-75.5 183q0 125 83.5 204.5t214.5 79.5zM348 253q60 0 99 37t39 96q0 58 -39 95t-99 37q-61 0 -99.5 -36.5t-38.5 -95.5t38.5 -96
t99.5 -37z" />
    <glyph glyph-name="zero.tf" horiz-adv-x="1191" 
d="M597 -25q-247 0 -391 190.5t-144 516.5q0 327 143.5 517t391.5 190q247 0 390.5 -190t143.5 -517q0 -325 -144.5 -516t-389.5 -191zM597 186q147 0 228.5 129.5t81.5 365.5t-82 366.5t-228 130.5q-147 0 -229.5 -130t-82.5 -366t81.5 -366t230.5 -130z" />
    <glyph glyph-name="one.tf" horiz-adv-x="1191" 
d="M732 205h313v-205h-858v205h325v956h-268v201h488v-1157z" />
    <glyph glyph-name="two.tf" horiz-adv-x="1191" 
d="M544 209h511v-209h-936v60q305 334 442 500.5t181.5 252.5t44.5 170q0 90 -56.5 144.5t-148.5 54.5q-96 0 -154.5 -56t-58.5 -146v-30h-221v31q0 184 119 297.5t313 113.5q190 0 310 -114.5t120 -293.5q0 -95 -34 -183.5t-135 -228.5t-297 -363z" />
    <glyph glyph-name="three.tf" horiz-adv-x="1191" 
d="M702 852q159 -28 256.5 -145t97.5 -280q0 -196 -134.5 -324t-335.5 -128q-195 0 -323 122t-136 314h219q6 -101 72 -163t168 -62q108 0 177 70.5t69 178.5q0 109 -74.5 177t-192.5 68h-172v44l277 437h-502v201h834v-46z" />
    <glyph glyph-name="four.tf" horiz-adv-x="1191" 
d="M1097 471v-195h-134v-276h-210v276h-678v45l465 1041h223l-401 -891h395l37 380h169v-380h134z" />
    <glyph glyph-name="five.tf" horiz-adv-x="1191" 
d="M583 872q207 0 341.5 -126.5t134.5 -317.5q0 -194 -133 -323.5t-331 -129.5t-328.5 123.5t-135.5 312.5h222q5 -99 72.5 -162t169.5 -63q103 0 172 69t69 173q0 108 -74 179t-187 71h-359l-28 32l72 652h705v-200h-526l-32 -290h176z" />
    <glyph glyph-name="six.tf" horiz-adv-x="1191" 
d="M654 896q197 0 328 -126t131 -319q0 -208 -140 -342t-358 -134q-221 0 -361 133.5t-140 342.5q0 195 146 444l272 471h243q-239 -418 -284 -502q79 32 163 32zM613 185q121 0 199 75t78 191t-78 190t-199 74q-120 0 -198 -74.5t-78 -189.5t78 -190.5t198 -75.5z" />
    <glyph glyph-name="seven.tf" horiz-adv-x="1191" 
d="M130 1362h944v-34l-529 -1328h-228l467 1161h-654v201z" />
    <glyph glyph-name="eight.tf" horiz-adv-x="1191" 
d="M909 729q86 -51 133.5 -137t47.5 -189q0 -188 -138.5 -308t-356.5 -120q-220 0 -356.5 118.5t-136.5 309.5q0 102 48 187.5t134 138.5q-66 50 -102.5 125t-36.5 161q0 167 125 272t325 105t324 -104.5t124 -272.5q0 -87 -36 -163t-98 -123zM595 1208q-103 0 -167.5 -54.5
t-64.5 -141.5t64.5 -141.5t167.5 -54.5t168 55t65 141t-65 141t-168 55zM595 168q122 0 197.5 65t75.5 168t-75.5 167.5t-197.5 64.5t-197.5 -64.5t-75.5 -167.5t75.5 -168t197.5 -65z" />
    <glyph glyph-name="nine.tf" horiz-adv-x="1191" 
d="M579 1392q221 0 361.5 -133t140.5 -342q0 -192 -147 -444l-272 -473h-243q215 377 283 503q-78 -31 -162 -31q-123 0 -227.5 54.5t-168.5 157.5t-64 233q0 208 140.5 341.5t358.5 133.5zM581 651q122 0 202.5 75.5t80.5 190.5t-80.5 190.5t-202.5 75.5q-123 0 -203 -75
t-80 -191q0 -117 80 -191.5t203 -74.5z" />
    <glyph glyph-name="zero.dnom" horiz-adv-x="786" 
d="M393 -16q-149 0 -235.5 110.5t-86.5 300.5t86 299.5t236 109.5t236 -109.5t86 -299.5t-86.5 -300.5t-235.5 -110.5zM393 148q71 0 111.5 65t40.5 181t-40.5 181t-111.5 65t-110.5 -64t-39.5 -181t39 -182t111 -65z" />
    <glyph glyph-name="one.dnom" horiz-adv-x="458" 
d="M47 789h300v-789h-172v642h-128v147z" />
    <glyph glyph-name="two.dnom" horiz-adv-x="684" 
d="M365 158h250v-157h-560v38q172 198 245.5 289.5t100 140t26.5 90.5q0 44 -25.5 70.5t-66.5 26.5q-45 0 -72 -27t-27 -73v-17h-165v16q0 115 71 183.5t191 68.5q117 0 190.5 -68.5t73.5 -177.5q0 -75 -46 -156.5t-186 -246.5z" />
    <glyph glyph-name="three.dnom" horiz-adv-x="681" 
d="M424 498q88 -20 141 -86.5t53 -159.5q0 -116 -79.5 -191t-201.5 -75q-117 0 -193.5 73t-79.5 188h160q3 -49 34 -79.5t79 -30.5q53 0 86 33.5t33 87.5q0 53 -35.5 84.5t-93.5 31.5h-114v30l145 239h-275v146h507v-32z" />
    <glyph glyph-name="four.dnom" horiz-adv-x="704" 
d="M653 296v-144h-72v-152h-159v152h-383v30l261 607h166l-213 -493h174l30 193h124v-193h72z" />
    <glyph glyph-name="five.dnom" horiz-adv-x="671" 
d="M330 512q125 0 204.5 -73t79.5 -187q0 -115 -79 -190.5t-198 -75.5q-121 0 -199.5 73.5t-78.5 187.5h162q1 -49 33 -80.5t83 -31.5q49 0 81 33t32 84q0 53 -34.5 86.5t-88.5 33.5h-226l-16 21l44 396h431v-146h-297l-15 -131h82z" />
    <glyph glyph-name="six.dnom" horiz-adv-x="712" 
d="M401 522q113 0 188.5 -72t75.5 -183q0 -125 -84 -204.5t-215 -79.5q-134 0 -217.5 78.5t-83.5 205.5q0 113 83 256l156 266h184l-140 -239q-11 -21 -23 -40q37 12 76 12zM364 135q62 0 100 36.5t38 95.5t-38.5 96t-99.5 37q-60 0 -98.5 -37.5t-38.5 -95.5
q0 -59 38.5 -95.5t98.5 -36.5z" />
    <glyph glyph-name="seven.dnom" horiz-adv-x="643" 
d="M49 789h558v-21l-300 -769h-170l252 640h-340v150z" />
    <glyph glyph-name="eight.dnom" horiz-adv-x="720" 
d="M550 424q101 -66 101 -184q0 -112 -83 -181t-208 -69t-207 69t-82 181q0 121 101 185q-79 62 -79 162t76 162t193 62q116 0 191.5 -61.5t75.5 -162.5q0 -103 -79 -163zM362 678q-47 0 -79 -27t-32 -68q0 -42 31.5 -68t79.5 -26q47 0 78 26.5t31 68.5q0 41 -31.5 67.5
t-77.5 26.5zM362 131q56 0 92 30t36 80t-36.5 81.5t-92.5 31.5t-92.5 -31.5t-36.5 -81.5q0 -49 37 -79.5t93 -30.5z" />
    <glyph glyph-name="nine.dnom" horiz-adv-x="712" 
d="M346 807q134 0 218 -78.5t84 -205.5q0 -110 -84 -256l-155 -266h-184l137 234q5 9 14 24t11 19q-38 -11 -75 -11q-113 0 -188.5 72t-75.5 184q0 125 83.5 204.5t214.5 79.5zM348 390q60 0 99 37t39 96q0 58 -39 94.5t-99 36.5q-62 0 -100 -36.5t-38 -94.5q0 -59 38.5 -96
t99.5 -37z" />
    <glyph glyph-name="zero.numr" horiz-adv-x="786" 
d="M393 630q-149 0 -235.5 111t-86.5 301t86 299.5t236 109.5t236 -109.5t86 -299.5t-86.5 -301t-235.5 -111zM393 795q71 0 111.5 65t40.5 181t-40.5 180.5t-111.5 64.5t-110.5 -64t-39.5 -180q0 -117 39 -182t111 -65z" />
    <glyph glyph-name="one.numr" horiz-adv-x="458" 
d="M47 1434h300v-790h-172v642h-128v148z" />
    <glyph glyph-name="two.numr" horiz-adv-x="684" 
d="M365 804h250v-158h-560v39q173 199 245.5 289t99.5 139t27 91q0 44 -25.5 71t-66.5 27q-44 0 -71.5 -27.5t-27.5 -73.5v-16h-165v16q0 115 71 183t191 68q117 0 190.5 -68.5t73.5 -177.5q0 -75 -46 -156t-186 -246z" />
    <glyph glyph-name="three.numr" horiz-adv-x="681" 
d="M424 1142q88 -20 141 -86.5t53 -159.5q0 -116 -79.5 -191t-201.5 -75q-117 0 -193.5 73t-79.5 188h160q3 -49 34 -79.5t79 -30.5q53 0 86 33.5t33 87.5q0 53 -35.5 84.5t-93.5 31.5h-114v31l145 238h-275v147h507v-33z" />
    <glyph glyph-name="four.numr" horiz-adv-x="704" 
d="M653 941v-144h-72v-153h-159v153h-383v29l261 608h166l-213 -493h174l30 192h124v-192h72z" />
    <glyph glyph-name="five.numr" horiz-adv-x="671" 
d="M330 1157q125 0 204.5 -73.5t79.5 -187.5q0 -115 -79 -190.5t-198 -75.5q-121 0 -199.5 73.5t-78.5 187.5h162q1 -49 33 -80.5t83 -31.5q49 0 81 33t32 84q0 53 -34.5 86.5t-88.5 33.5h-226l-16 21l44 397h431v-147h-297l-15 -130h82z" />
    <glyph glyph-name="six.numr" horiz-adv-x="712" 
d="M401 1166q113 0 188.5 -71.5t75.5 -182.5q0 -125 -84 -205t-215 -80q-134 0 -217.5 79t-83.5 206q0 112 83 255l156 267h184l-140 -239q-11 -21 -23 -40q34 11 76 11zM364 779q61 0 99.5 37t38.5 96t-38.5 95.5t-99.5 36.5q-60 0 -98.5 -37t-38.5 -95q0 -59 38.5 -96
t98.5 -37z" />
    <glyph glyph-name="seven.numr" horiz-adv-x="643" 
d="M48 1434h558v-21l-300 -769h-169l252 639h-341v151z" />
    <glyph glyph-name="eight.numr" horiz-adv-x="720" 
d="M550 1065q101 -66 101 -185q0 -112 -83 -180.5t-208 -68.5t-207 68.5t-82 180.5q0 121 101 185q-79 62 -79 162t76 162t193 62q116 0 191.5 -61.5t75.5 -162.5q0 -102 -79 -162zM362 1318q-48 0 -79.5 -26.5t-31.5 -67.5q0 -42 31.5 -68t79.5 -26q47 0 78 26.5t31 68.5
q0 41 -31.5 67t-77.5 26zM362 772q56 0 92 30t36 80t-36.5 81t-92.5 31t-92.5 -31t-36.5 -81q0 -49 37 -79.5t93 -30.5z" />
    <glyph glyph-name="nine.numr" horiz-adv-x="712" 
d="M346 1452q134 0 218 -78.5t84 -205.5q0 -110 -84 -256l-155 -266h-184l137 235q4 8 13 22.5t12 19.5q-34 -10 -75 -10q-113 0 -188.5 72t-75.5 183q0 125 83.5 204.5t214.5 79.5zM348 1036q60 0 99 36.5t39 95.5q0 58 -39 95t-99 37q-61 0 -99.5 -36.5t-38.5 -95.5
t38 -95.5t100 -36.5z" />
    <glyph glyph-name="zero.sups" horiz-adv-x="786" 
d="M393 835q-149 0 -235.5 111t-86.5 301t86 299.5t236 109.5t236 -109.5t86 -299.5t-86.5 -301t-235.5 -111zM393 1000q71 0 111.5 65t40.5 181t-40.5 180.5t-111.5 64.5t-110.5 -64t-39.5 -180q0 -117 39 -182t111 -65z" />
    <glyph glyph-name="one.sups" horiz-adv-x="458" 
d="M47 1638h300v-789h-172v642h-128v147z" />
    <glyph glyph-name="two.sups" horiz-adv-x="684" 
d="M365 1009h250v-158h-560v38q172 198 245.5 289.5t100 140t26.5 90.5q0 44 -25.5 71t-66.5 27q-44 0 -71.5 -27.5t-27.5 -73.5v-16h-165v15q0 115 71 183.5t191 68.5q117 0 190.5 -68.5t73.5 -177.5q0 -75 -46 -156t-186 -246z" />
    <glyph glyph-name="three.sups" horiz-adv-x="681" 
d="M424 1347q88 -20 141 -86.5t53 -159.5q0 -116 -79.5 -191t-201.5 -75q-117 0 -193.5 73t-79.5 188h160q3 -49 34 -79.5t79 -30.5q53 0 86 33.5t33 87.5q0 53 -35.5 84.5t-93.5 31.5h-114v30l145 239h-275v146h507v-32z" />
    <glyph glyph-name="four.sups" horiz-adv-x="704" 
d="M651 1145v-144h-71v-152h-160v152h-383v30l262 607h166l-213 -493h174l30 193h124v-193h71z" />
    <glyph glyph-name="five.sups" horiz-adv-x="671" 
d="M330 1361q125 0 204.5 -73t79.5 -187q0 -115 -79 -190.5t-198 -75.5q-121 0 -199.5 73.5t-78.5 187.5h162q1 -49 33 -80.5t83 -31.5q49 0 81 33t32 84q0 53 -34.5 86.5t-88.5 33.5h-226l-16 21l44 396h431v-146h-297l-15 -131h82z" />
    <glyph glyph-name="six.sups" horiz-adv-x="712" 
d="M401 1371q113 0 188.5 -72t75.5 -183q0 -125 -84 -204.5t-215 -79.5q-134 0 -217.5 78.5t-83.5 205.5q0 113 83 256l156 266h184l-140 -239q-11 -21 -23 -40q37 12 76 12zM364 984q62 0 100 36.5t38 95.5t-38.5 96t-99.5 37q-60 0 -98.5 -37.5t-38.5 -95.5
q0 -59 38.5 -95.5t98.5 -36.5z" />
    <glyph glyph-name="seven.sups" horiz-adv-x="643" 
d="M48 1638h558v-21l-300 -769h-169l252 640h-341v150z" />
    <glyph glyph-name="eight.sups" horiz-adv-x="720" 
d="M550 1269q101 -66 101 -184q0 -112 -83 -180.5t-208 -68.5t-207 68.5t-82 180.5q0 121 101 185q-79 62 -79 162t76 162t193 62q116 0 191.5 -61.5t75.5 -162.5q0 -103 -79 -163zM362 1523q-48 0 -79.5 -26.5t-31.5 -67.5q0 -42 31.5 -68t79.5 -26q47 0 78 26t31 68
q0 41 -31.5 67.5t-77.5 26.5zM362 977q56 0 92 30t36 80t-36.5 81t-92.5 31t-92.5 -31t-36.5 -81q0 -49 37 -79.5t93 -30.5z" />
    <glyph glyph-name="nine.sups" horiz-adv-x="712" 
d="M346 1657q134 0 218 -78.5t84 -205.5q0 -110 -84 -256l-155 -266h-184l137 234q5 9 14 24t11 19q-34 -10 -75 -10q-113 0 -188.5 72t-75.5 183q0 125 83.5 204.5t214.5 79.5zM348 1240q60 0 99 37t39 96q0 58 -39 95t-99 37q-61 0 -99.5 -36.5t-38.5 -95.5t38.5 -96
t99.5 -37z" />
    <glyph glyph-name="bullet.case" horiz-adv-x="739" 
d="M369 530q-91 0 -152 61t-61 152q0 92 61 153t152 61q92 0 153 -61t61 -153q0 -91 -61 -152t-153 -61z" />
    <glyph glyph-name="braceleft.case" horiz-adv-x="747" 
d="M549 -61h119v-201h-202q-103 0 -175.5 72t-72.5 176v498q0 52 -36.5 87.5t-89.5 35.5h-29v188h29q53 0 89.5 36.5t36.5 89.5v499q0 104 72.5 175.5t175.5 71.5h200v-201h-117q-47 0 -76.5 -28t-29.5 -74v-431q0 -79 -43 -142t-111 -88q68 -26 111 -89.5t43 -142.5v-428
q0 -47 29.5 -75.5t76.5 -28.5z" />
    <glyph glyph-name="braceright.case" horiz-adv-x="747" 
d="M625 795h28v-188h-28q-53 0 -89.5 -35.5t-36.5 -87.5v-498q0 -104 -72.5 -176t-175.5 -72h-202v201h119q47 0 76.5 28.5t29.5 75.5v428q0 79 42.5 142.5t110.5 89.5q-68 25 -110.5 88t-42.5 142v431q0 46 -29.5 74t-76.5 28h-117v201h200q103 0 175.5 -71.5t72.5 -175.5
v-499q0 -53 36.5 -89.5t89.5 -36.5z" />
    <glyph glyph-name="bracketleft.case" horiz-adv-x="710" 
d="M188 -265v1934h452v-193h-239v-1546h243v-195h-456z" />
    <glyph glyph-name="bracketright.case" horiz-adv-x="710" 
d="M523 -265h-456v195h243v1546h-239v193h452v-1934z" />
    <glyph glyph-name="parenleft.case" horiz-adv-x="673" 
d="M380 -277q-134 206 -206 456.5t-72 522.5q0 269 71 519.5t203 458.5h252q-127 -186 -213.5 -442t-86.5 -536q0 -283 87 -540.5t215 -438.5h-250z" />
    <glyph glyph-name="parenright.case" horiz-adv-x="673" 
d="M293 -277h-249q128 181 215 438.5t87 540.5q0 280 -86.5 536t-213.5 442h252q131 -208 202 -458.5t71 -519.5q0 -272 -72 -522.5t-206 -456.5z" />
    <glyph glyph-name="emdash.case" horiz-adv-x="1855" 
d="M142 591v219h1573v-219h-1573z" />
    <glyph glyph-name="endash.case" horiz-adv-x="1325" 
d="M142 591v219h1041v-219h-1041z" />
    <glyph glyph-name="hyphen.case" horiz-adv-x="940" 
d="M142 593v220h657v-220h-657z" />
    <glyph glyph-name="guillemotleft.case" horiz-adv-x="1300" 
d="M413 246l-336 415v31l336 416h269l-344 -431l344 -431h-269zM937 246l-336 415v31l336 416h269l-344 -431l344 -431h-269z" />
    <glyph glyph-name="guillemotright.case" horiz-adv-x="1300" 
d="M363 247h-268l343 431l-343 431h268l336 -415v-31zM887 247h-268l343 431l-343 431h268l336 -415v-31z" />
    <glyph glyph-name="guilsinglleft.case" horiz-adv-x="776" 
d="M413 246l-336 415v31l336 416h269l-344 -431l344 -431h-269z" />
    <glyph glyph-name="guilsinglright.case" horiz-adv-x="776" 
d="M363 246h-268l343 431l-343 431h268l336 -416v-31z" />
    <glyph glyph-name="cent.tf" horiz-adv-x="1191" 
d="M1144 383q-39 -160 -154 -266.5t-276 -131.5v-155h-181v155q-201 30 -331 182t-130 362q0 211 129 361.5t332 180.5v169h181v-169q161 -25 275.5 -130t152.5 -263h-217q-41 90 -122 140.5t-182 50.5q-141 0 -235 -97.5t-94 -243.5q0 -145 94.5 -243t234.5 -98
q102 0 182 52.5t123 146.5z" />
    <glyph glyph-name="currency.tf" horiz-adv-x="1232" 
d="M1139 219l-130 -130l-156 158q-110 -70 -239 -70q-130 0 -238 69l-149 -155l-131 130l150 155q-72 110 -72 239q0 139 77 251l-150 151l131 131l156 -155q105 62 226 62q122 0 229 -64l156 157l130 -131l-152 -153q77 -114 77 -249q0 -129 -70 -237zM361 617
q0 -103 75.5 -178t179.5 -75q103 0 176 74.5t73 178.5q0 103 -72.5 177t-176.5 74q-103 0 -179 -73.5t-76 -177.5z" />
    <glyph glyph-name="dollar.tf" horiz-adv-x="1191" 
d="M1107 402q0 -172 -111 -281.5t-297 -133.5v-157h-185v156q-201 23 -314.5 142.5t-113.5 311.5h229q0 -114 81.5 -178t206.5 -64q114 0 194 56t80 146q0 28 -9.5 52t-22 41t-39.5 33t-46.5 25.5t-60 21t-62 17t-70.5 16.5q-85 19 -132 32t-119 44.5t-110 69t-67.5 102.5
t-29.5 149q0 164 104 266t285 123v146h189v-147q181 -24 280.5 -136t99.5 -290h-225q0 104 -72 162t-184 58q-107 0 -179 -46t-72 -126q0 -21 5.5 -39t13 -32t24.5 -27.5t29.5 -23t38 -19.5t41 -16t48 -15t49 -13t53.5 -13q47 -11 73.5 -17.5t72 -20t73 -25t66 -31
t61.5 -39.5t49.5 -49.5t41 -62.5t24 -76t9.5 -92z" />
    <glyph glyph-name="Euro.tf" horiz-adv-x="1329" 
d="M970 1200q-145 0 -264 -69t-183 -191h629l-44 -179h-641q-4 -32 -4 -75q0 -44 6 -85h599l-43 -180h-497q65 -118 182.5 -184t259.5 -66q123 0 227 43v-200q-117 -42 -247 -42q-224 0 -403.5 122t-255.5 327h-222l43 180h137q-4 37 -4 85q0 38 3 75h-174l43 179h170
q74 211 257 335.5t411 124.5q161 0 304 -59l-46 -188q-109 47 -243 47z" />
    <glyph glyph-name="florin.tf" horiz-adv-x="1191" 
d="M848 1206q-67 0 -113 -38t-53 -101l-20 -149h291l-25 -173h-284l-126 -881q-19 -140 -117 -224.5t-241 -84.5h-136l27 197h76q73 0 121.5 42.5t59.5 116.5l117 834h-190l25 173h189l24 173q17 127 108.5 204t225.5 77h207l-21 -166h-145z" />
    <glyph glyph-name="uni20BD.tf" horiz-adv-x="1191" 
d="M733 561h-272v-142h398v-161h-398v-258h-223v258h-147v161h147v150h-147v179h147v614h495q183 0 297.5 -111.5t114.5 -289.5q0 -177 -114.5 -288.5t-297.5 -111.5zM926 961q0 89 -61.5 147.5t-154.5 58.5h-249v-411h249q93 0 154.5 58.5t61.5 146.5z" />
    <glyph glyph-name="sterling.tf" horiz-adv-x="1191" 
d="M916 359h202v-359h-1042v156l136 30v376h-111v185h111v241q0 182 122 297.5t313 115.5q186 0 301 -112.5t115 -294.5v-24h-203v12q0 94 -60 154.5t-153 60.5q-95 0 -155 -61.5t-60 -159.5v-229h331v-185h-331v-370h484v167z" />
    <glyph glyph-name="yen.tf" horiz-adv-x="1191" 
d="M706 609v-47h367v-138h-367v-113h367v-135h-367v-176h-224v176h-366v135h366v113h-366v138h366v44l-491 756h232l370 -579l374 579h234z" />
    <glyph glyph-name="uni0308.case" 
d="M-910 1594v234h249v-234h-249zM-451 1594v234h249v-234h-249z" />
    <glyph glyph-name="uni0307.case" 
d="M-487 1595v233h248v-233h-248z" />
    <glyph glyph-name="gravecomb.case" 
d="M-607 1586l-201 290h242l134 -290h-175z" />
    <glyph glyph-name="acutecomb.case" 
d="M-688 1586l135 290h242l-201 -290h-176z" />
    <glyph glyph-name="uni030B.case" 
d="M-949 1586l114 290h214l-168 -290h-160zM-589 1586l161 290h223l-221 -290h-163z" />
    </font>
</defs>
</svg>
